<svg width="255" height="77" viewBox="0 0 255 77" fill="none" xmlns="http://www.w3.org/2000/svg">
<mask id="path-1-outside-1_30_12" maskUnits="userSpaceOnUse" x="-1" y="-1" width="257" height="79" fill="black">
<rect fill="white" x="-1" y="-1" width="257" height="79"/>
<path d="M47.4938 57V47.72H55.8938V57H47.4938ZM24.4538 76.84C19.8138 76.84 15.6538 75.9867 11.9738 74.28C8.34708 72.6267 5.49375 70.3067 3.41375 67.32C1.33375 64.3333 0.29375 60.9467 0.29375 57.16C0.29375 56.0933 0.37375 54.68 0.53375 52.92C0.69375 51.16 0.907084 49.1867 1.17375 47C1.49375 44.8133 1.81375 42.6 2.13375 40.36C2.50708 38.0667 2.85375 35.8533 3.17375 33.72L13.7338 35.16C13.1471 38.7333 12.6404 42.0133 12.2138 45C11.8404 47.9333 11.5471 50.44 11.3338 52.52C11.1204 54.6 11.0138 56.12 11.0138 57.08C11.0138 59.2133 11.5471 61.0533 12.6138 62.6C13.6804 64.1467 15.2004 65.3467 17.1738 66.2C19.2004 67.1067 21.6271 67.56 24.4538 67.56C27.3871 67.56 29.7604 67.1333 31.5738 66.28C33.3871 65.4267 34.6938 64.2533 35.4938 62.76C36.3471 61.2667 36.7738 59.5867 36.7738 57.72V16.84H47.4938V57.72C47.4938 61.56 46.4804 64.92 44.4538 67.8C42.4804 70.68 39.7604 72.8933 36.2938 74.44C32.8271 76.04 28.8804 76.84 24.4538 76.84ZM55.8938 57V47.72C56.2138 47.72 56.4538 47.8267 56.6138 48.04C56.8271 48.2533 56.9871 48.5733 57.0938 49C57.2538 49.4267 57.3604 49.9333 57.4138 50.52C57.4671 51.0533 57.4938 51.6667 57.4938 52.36C57.4938 53.0533 57.4671 53.6933 57.4138 54.28C57.3604 54.8667 57.2538 55.3733 57.0938 55.8C56.9871 56.1733 56.8271 56.4667 56.6138 56.68C56.4538 56.8933 56.2138 57 55.8938 57ZM18.6138 13.96V4.84H29.3338V13.96H18.6138ZM97.3619 57V47.72H105.842V57H97.3619ZM55.9219 57C55.6019 57 55.3619 56.8933 55.2019 56.68C54.9885 56.4667 54.8285 56.1733 54.7219 55.8C54.5619 55.3733 54.4552 54.8667 54.4019 54.28C54.3485 53.6933 54.3219 53.0533 54.3219 52.36C54.3219 51.4 54.3752 50.6 54.4819 49.96C54.5885 49.2667 54.7752 48.7333 55.0419 48.36C55.2552 47.9333 55.5485 47.72 55.9219 47.72V57ZM55.9219 57V47.72H90.3219L86.7219 50.68V35.88C86.7219 32.68 85.7085 30.2533 83.6819 28.6C81.7085 26.9467 78.5619 26.12 74.2419 26.12C73.0152 26.12 71.3352 26.2267 69.2019 26.44C67.0685 26.6 64.7485 26.8667 62.2419 27.24L61.2019 18.76C63.4952 18.2267 65.8152 17.7733 68.1619 17.4C70.5619 17.0267 72.9085 16.84 75.2019 16.84C79.5752 16.84 83.4152 17.6133 86.7219 19.16C90.0285 20.6533 92.6152 22.8133 94.4819 25.64C96.4019 28.4667 97.3619 31.88 97.3619 35.88V57H55.9219ZM105.842 57V47.72C106.109 47.72 106.349 47.8267 106.562 48.04C106.775 48.2533 106.935 48.5733 107.042 49C107.149 49.4267 107.229 49.9333 107.282 50.52C107.389 51.0533 107.442 51.6667 107.442 52.36C107.442 53.0533 107.389 53.6933 107.282 54.28C107.229 54.8667 107.149 55.3733 107.042 55.8C106.935 56.1733 106.775 56.4667 106.562 56.68C106.349 56.8933 106.109 57 105.842 57ZM105.844 57V47.72H120.484L114.244 52.92V16.84H124.964V57H105.844ZM105.844 57C105.524 57 105.284 56.8933 105.124 56.68C104.91 56.4667 104.75 56.1733 104.644 55.8C104.484 55.3733 104.377 54.8667 104.324 54.28C104.27 53.6933 104.244 53.0533 104.244 52.36C104.244 51.4 104.297 50.6 104.404 49.96C104.51 49.2667 104.697 48.7333 104.964 48.36C105.177 47.9333 105.47 47.72 105.844 47.72V57ZM114.244 9.48V0.36H124.964V9.48H114.244ZM198.588 57V47.72H206.988V57H198.588ZM175.548 76.84C170.908 76.84 166.748 75.9867 163.068 74.28C159.441 72.6267 156.588 70.3067 154.508 67.32C152.428 64.3333 151.388 60.9467 151.388 57.16C151.388 56.0933 151.468 54.68 151.628 52.92C151.788 51.16 152.001 49.1867 152.268 47C152.588 44.8133 152.908 42.6 153.228 40.36C153.601 38.0667 153.948 35.8533 154.268 33.72L164.828 35.16C164.241 38.7333 163.734 42.0133 163.308 45C162.934 47.9333 162.641 50.44 162.428 52.52C162.214 54.6 162.108 56.12 162.108 57.08C162.108 59.2133 162.641 61.0533 163.708 62.6C164.774 64.1467 166.294 65.3467 168.268 66.2C170.294 67.1067 172.721 67.56 175.548 67.56C178.481 67.56 180.854 67.1333 182.668 66.28C184.481 65.4267 185.788 64.2533 186.588 62.76C187.441 61.2667 187.868 59.5867 187.868 57.72V16.84H198.588V57.72C198.588 61.56 197.574 64.92 195.548 67.8C193.574 70.68 190.854 72.8933 187.388 74.44C183.921 76.04 179.974 76.84 175.548 76.84ZM206.988 57V47.72C207.308 47.72 207.548 47.8267 207.708 48.04C207.921 48.2533 208.081 48.5733 208.188 49C208.348 49.4267 208.454 49.9333 208.508 50.52C208.561 51.0533 208.588 51.6667 208.588 52.36C208.588 53.0533 208.561 53.6933 208.508 54.28C208.454 54.8667 208.348 55.3733 208.188 55.8C208.081 56.1733 207.921 56.4667 207.708 56.68C207.548 56.8933 207.308 57 206.988 57ZM169.708 13.96V4.84H180.428V13.96H169.708ZM207.016 57V47.72H248.536L243.656 51.88V37.16C243.656 34.28 243.336 32.04 242.696 30.44C242.056 28.7867 240.936 27.64 239.336 27C237.789 26.3067 235.629 25.96 232.856 25.96C230.669 25.96 228.509 26.12 226.376 26.44C224.296 26.7067 222.669 27.08 221.496 27.56L228.136 21.32C227.816 22.5467 227.496 24.0933 227.176 25.96C226.909 27.8267 226.669 29.8267 226.456 31.96C226.242 34.04 226.136 36.0933 226.136 38.12C226.136 39.9867 226.216 41.9333 226.376 43.96C226.589 45.9867 226.802 47.7733 227.016 49.32C227.282 50.8667 227.496 51.9333 227.656 52.52L217.496 55.32C217.282 54.5733 217.016 53.3467 216.696 51.64C216.376 49.9333 216.082 47.9067 215.816 45.56C215.602 43.2133 215.496 40.7333 215.496 38.12C215.496 35.4533 215.629 32.8933 215.896 30.44C216.162 27.9333 216.456 25.6933 216.776 23.72C217.149 21.6933 217.496 20.0667 217.816 18.84C219.096 18.36 221.096 17.88 223.816 17.4C226.536 16.92 229.549 16.68 232.856 16.68C237.656 16.68 241.629 17.3467 244.776 18.68C247.976 20.0133 250.349 22.1733 251.896 25.16C253.496 28.1467 254.296 32.1733 254.296 37.24V57H207.016ZM207.016 57C206.696 57 206.456 56.8933 206.296 56.68C206.082 56.4667 205.922 56.1733 205.816 55.8C205.656 55.3733 205.549 54.8667 205.496 54.28C205.442 53.6933 205.416 53.0533 205.416 52.36C205.416 51.4 205.469 50.6 205.576 49.96C205.682 49.2667 205.869 48.7333 206.136 48.36C206.349 47.9333 206.642 47.72 207.016 47.72V57Z"/>
</mask>
<path d="M47.4938 57H46.4938V58H47.4938V57ZM47.4938 47.72V46.72H46.4938V47.72H47.4938ZM55.8938 47.72H56.8938V46.72H55.8938V47.72ZM55.8938 57V58H56.8938V57H55.8938ZM11.9738 74.28L12.3945 73.3728L12.3886 73.3701L11.9738 74.28ZM3.41375 67.32L2.59314 67.8915L2.59314 67.8915L3.41375 67.32ZM0.53375 52.92L-0.462143 52.8295L-0.462143 52.8295L0.53375 52.92ZM1.17375 47L0.184289 46.8552L0.182555 46.8671L0.181104 46.8789L1.17375 47ZM2.13375 40.36L1.14674 40.1993L1.14518 40.2089L1.1438 40.2186L2.13375 40.36ZM3.17375 33.72L3.30886 32.7292L2.33119 32.5958L2.18481 33.5717L3.17375 33.72ZM13.7338 35.16L14.7205 35.322L14.887 34.308L13.8689 34.1692L13.7338 35.16ZM12.2138 45L11.2238 44.8586L11.2227 44.8662L11.2218 44.8737L12.2138 45ZM11.3338 52.52L10.339 52.418L10.339 52.418L11.3338 52.52ZM12.6138 62.6L11.7905 63.1677L11.7905 63.1677L12.6138 62.6ZM17.1738 66.2L17.5821 65.2871L17.5707 65.2821L17.1738 66.2ZM31.5738 66.28L31.9995 67.1848L31.9995 67.1848L31.5738 66.28ZM35.4938 62.76L34.6255 62.2639L34.6187 62.2757L34.6123 62.2878L35.4938 62.76ZM36.7738 16.84V15.84H35.7738V16.84H36.7738ZM47.4938 16.84H48.4938V15.84H47.4938V16.84ZM44.4538 67.8L43.6359 67.2245L43.6288 67.2348L44.4538 67.8ZM36.2938 74.44L35.8863 73.5267L35.8747 73.532L36.2938 74.44ZM55.8938 57H54.8938V58H55.8938V57ZM55.8938 47.72V46.72H54.8938V47.72H55.8938ZM56.6138 48.04L55.8137 48.64L55.8564 48.6969L55.9066 48.7471L56.6138 48.04ZM57.0938 49L56.1236 49.2425L56.1374 49.2978L56.1574 49.3511L57.0938 49ZM57.4138 50.52L56.4178 50.6105L56.4187 50.6195L57.4138 50.52ZM57.4138 54.28L56.4179 54.1895L56.4179 54.1895L57.4138 54.28ZM57.0938 55.8L56.1574 55.4489L56.1433 55.4866L56.1322 55.5253L57.0938 55.8ZM56.6138 56.68L55.9066 55.9729L55.8564 56.0231L55.8137 56.08L56.6138 56.68ZM18.6138 13.96H17.6138V14.96H18.6138V13.96ZM18.6138 4.84V3.84H17.6138V4.84H18.6138ZM29.3338 4.84H30.3338V3.84H29.3338V4.84ZM29.3338 13.96V14.96H30.3338V13.96H29.3338ZM48.4938 57V47.72H46.4938V57H48.4938ZM47.4938 48.72H55.8938V46.72H47.4938V48.72ZM54.8938 47.72V57H56.8938V47.72H54.8938ZM55.8938 56H47.4938V58H55.8938V56ZM24.4538 75.84C19.9382 75.84 15.9249 75.0101 12.3945 73.3728L11.553 75.1872C15.3826 76.9632 19.6893 77.84 24.4538 77.84V75.84ZM12.3886 73.3701C8.90906 71.7838 6.20228 69.5742 4.23436 66.7485L2.59314 67.8915C4.78522 71.0391 7.78511 73.4695 11.5589 75.1899L12.3886 73.3701ZM4.23436 66.7485C2.27606 63.9366 1.29375 60.7511 1.29375 57.16H-0.70625C-0.70625 61.1422 0.391441 64.7301 2.59314 67.8915L4.23436 66.7485ZM1.29375 57.16C1.29375 56.1367 1.37086 54.7572 1.52964 53.0105L-0.462143 52.8295C-0.623357 54.6028 -0.70625 56.05 -0.70625 57.16H1.29375ZM1.52964 53.0105C1.68853 51.2628 1.90068 49.2999 2.1664 47.1211L0.181104 46.8789C-0.086514 49.0734 -0.301025 51.0572 -0.462143 52.8295L1.52964 53.0105ZM2.16321 47.1448C2.48338 44.957 2.80354 42.7425 3.1237 40.5014L1.1438 40.2186C0.823958 42.4575 0.504121 44.6697 0.184289 46.8552L2.16321 47.1448ZM3.12076 40.5207C3.49471 38.2235 3.84202 36.0061 4.16269 33.8683L2.18481 33.5717C1.86548 35.7006 1.51946 37.9098 1.14674 40.1993L3.12076 40.5207ZM3.03864 34.7108L13.5986 36.1508L13.8689 34.1692L3.30886 32.7292L3.03864 34.7108ZM12.747 34.998C12.1594 38.5769 11.6516 41.8638 11.2238 44.8586L13.2037 45.1414C13.6292 42.1628 14.1348 38.8898 14.7205 35.322L12.747 34.998ZM11.2218 44.8737C10.8478 47.8121 10.5534 50.3273 10.339 52.418L12.3285 52.622C12.5408 50.5527 12.8331 48.0545 13.2057 45.1263L11.2218 44.8737ZM10.339 52.418C10.1252 54.502 10.0138 56.0653 10.0138 57.08H12.0138C12.0138 56.1747 12.1156 54.698 12.3285 52.622L10.339 52.418ZM10.0138 57.08C10.0138 59.3877 10.5936 61.4321 11.7905 63.1677L13.437 62.0323C12.5006 60.6745 12.0138 59.039 12.0138 57.08H10.0138ZM11.7905 63.1677C12.9784 64.8901 14.6568 66.2011 16.7768 67.1179L17.5707 65.2821C15.744 64.4923 14.3825 63.4033 13.437 62.0323L11.7905 63.1677ZM16.7654 67.1128C18.9505 68.0904 21.5234 68.56 24.4538 68.56V66.56C21.7308 66.56 19.4503 66.123 17.5821 65.2872L16.7654 67.1128ZM24.4538 68.56C27.4715 68.56 30.0059 68.123 31.9995 67.1848L31.148 65.3752C29.5149 66.1437 27.3027 66.56 24.4538 66.56V68.56ZM31.9995 67.1848C33.9706 66.2573 35.4561 64.9479 36.3752 63.2322L34.6123 62.2878C33.9314 63.5588 32.8036 64.5961 31.148 65.3752L31.9995 67.1848ZM36.362 63.2561C37.309 61.599 37.7738 59.7454 37.7738 57.72H35.7738C35.7738 59.4279 35.3852 60.9344 34.6255 62.2639L36.362 63.2561ZM37.7738 57.72V16.84H35.7738V57.72H37.7738ZM36.7738 17.84H47.4938V15.84H36.7738V17.84ZM46.4938 16.84V57.72H48.4938V16.84H46.4938ZM46.4938 57.72C46.4938 61.3735 45.5333 64.5283 43.6359 67.2245L45.2716 68.3755C47.4276 65.3117 48.4938 61.7465 48.4938 57.72H46.4938ZM43.6288 67.2348C41.7689 69.9492 39.1996 72.0485 35.8863 73.5268L36.7012 75.3532C40.3212 73.7381 43.1919 71.4108 45.2787 68.3652L43.6288 67.2348ZM35.8747 73.532C32.5588 75.0625 28.7587 75.84 24.4538 75.84V77.84C29.0022 77.84 33.0954 77.0175 36.7128 75.348L35.8747 73.532ZM56.8938 57V47.72H54.8938V57H56.8938ZM55.8938 48.72C55.9437 48.72 55.9402 48.7283 55.9076 48.7138C55.8914 48.7066 55.8726 48.6957 55.8541 48.6809C55.8356 48.6661 55.8222 48.6513 55.8137 48.64L57.4138 47.44C57.0261 46.9232 56.4577 46.72 55.8938 46.72V48.72ZM55.9066 48.7471C55.9461 48.7866 56.042 48.9161 56.1236 49.2425L58.0639 48.7575C57.9322 48.2305 57.7081 47.7201 57.3209 47.3329L55.9066 48.7471ZM56.1574 49.3511C56.2784 49.6737 56.3704 50.0885 56.4179 50.6105L58.4096 50.4295C58.3504 49.7782 58.2291 49.1797 58.0301 48.6489L56.1574 49.3511ZM56.4187 50.6195C56.4679 51.1118 56.4938 51.6908 56.4938 52.36H58.4938C58.4938 51.6425 58.4662 50.9948 58.4088 50.4205L56.4187 50.6195ZM56.4938 52.36C56.4938 53.0282 56.468 53.6376 56.4179 54.1895L58.4096 54.3705C58.4661 53.7491 58.4938 53.0784 58.4938 52.36H56.4938ZM56.4179 54.1895C56.3704 54.7115 56.2784 55.1263 56.1574 55.4489L58.0301 56.1511C58.2291 55.6203 58.3504 55.0218 58.4096 54.3705L56.4179 54.1895ZM56.1322 55.5253C56.0592 55.7809 55.9701 55.9094 55.9066 55.9729L57.3209 57.3871C57.684 57.0239 57.915 56.5657 58.0553 56.0747L56.1322 55.5253ZM55.8137 56.08C55.8222 56.0687 55.8356 56.0539 55.8541 56.0391C55.8726 56.0243 55.8914 56.0134 55.9076 56.0062C55.9402 55.9917 55.9437 56 55.8938 56V58C56.4577 58 57.0261 57.7968 57.4138 57.28L55.8137 56.08ZM19.6138 13.96V4.84H17.6138V13.96H19.6138ZM18.6138 5.84H29.3338V3.84H18.6138V5.84ZM28.3338 4.84V13.96H30.3338V4.84H28.3338ZM29.3338 12.96H18.6138V14.96H29.3338V12.96ZM97.3619 57H96.3619V58H97.3619V57ZM97.3619 47.72V46.72H96.3619V47.72H97.3619ZM105.842 47.72H106.842V46.72H105.842V47.72ZM105.842 57V58H106.842V57H105.842ZM55.9219 57V58H56.9219V57H55.9219ZM55.2019 56.68L56.0019 56.08L55.9592 56.0231L55.909 55.9729L55.2019 56.68ZM54.7219 55.8L55.6834 55.5253L55.6723 55.4866L55.6582 55.4489L54.7219 55.8ZM54.4819 49.96L55.4683 50.1244L55.4702 50.1121L54.4819 49.96ZM55.0419 48.36L55.8556 48.9412L55.9012 48.8774L55.9363 48.8072L55.0419 48.36ZM55.9219 47.72H56.9219V46.72H55.9219V47.72ZM55.9219 57H54.9219V58H55.9219V57ZM55.9219 47.72V46.72H54.9219V47.72H55.9219ZM90.3219 47.72L90.957 48.4924L93.1126 46.72H90.3219V47.72ZM86.7219 50.68H85.7219V52.7968L87.357 51.4524L86.7219 50.68ZM83.6819 28.6L83.0396 29.3666L83.0497 29.3749L83.6819 28.6ZM69.2019 26.44L69.2767 27.4372L69.289 27.4363L69.3014 27.435L69.2019 26.44ZM62.2419 27.24L61.2493 27.3617L61.3742 28.3803L62.3892 28.2291L62.2419 27.24ZM61.2019 18.76L60.9754 17.786L60.0999 17.9896L60.2093 18.8817L61.2019 18.76ZM68.1619 17.4L68.0082 16.4119L68.0048 16.4124L68.1619 17.4ZM86.7219 19.16L86.2982 20.0659L86.3103 20.0714L86.7219 19.16ZM94.4819 25.64L93.6473 26.1911L93.6547 26.2019L94.4819 25.64ZM97.3619 57V58H98.3619V57H97.3619ZM105.842 57H104.842V58H105.842V57ZM105.842 47.72V46.72H104.842V47.72H105.842ZM107.042 49L108.012 48.7575L108.012 48.7575L107.042 49ZM107.282 50.52L106.286 50.6105L106.291 50.6637L106.301 50.7161L107.282 50.52ZM107.282 54.28L106.298 54.1011L106.29 54.145L106.286 54.1895L107.282 54.28ZM107.042 55.8L108.003 56.0747L108.008 56.0587L108.012 56.0425L107.042 55.8ZM98.3619 57V47.72H96.3619V57H98.3619ZM97.3619 48.72H105.842V46.72H97.3619V48.72ZM104.842 47.72V57H106.842V47.72H104.842ZM105.842 56H97.3619V58H105.842V56ZM55.9219 56C55.8719 56 55.8754 55.9917 55.908 56.0062C55.9243 56.0134 55.943 56.0243 55.9616 56.0391C55.9801 56.0539 55.9934 56.0687 56.0019 56.08L54.4019 57.28C54.7895 57.7968 55.3579 58 55.9219 58V56ZM55.909 55.9729C55.8455 55.9094 55.7564 55.7809 55.6834 55.5253L53.7604 56.0747C53.9006 56.5657 54.1316 57.0239 54.4948 57.3871L55.909 55.9729ZM55.6582 55.4489C55.5372 55.1263 55.4452 54.7115 55.3978 54.1895L53.406 54.3705C53.4652 55.0218 53.5865 55.6203 53.7855 56.1511L55.6582 55.4489ZM55.3978 54.1895C55.3476 53.6376 55.3219 53.0282 55.3219 52.36H53.3219C53.3219 53.0784 53.3495 53.7491 53.406 54.3705L55.3978 54.1895ZM55.3219 52.36C55.3219 51.4316 55.3738 50.691 55.4683 50.1244L53.4955 49.7956C53.3766 50.509 53.3219 51.3684 53.3219 52.36H55.3219ZM55.4702 50.1121C55.5646 49.499 55.7154 49.1375 55.8556 48.9412L54.2281 47.7788C53.835 48.3292 53.6125 49.0343 53.4935 49.8079L55.4702 50.1121ZM55.9363 48.8072C55.9931 48.6937 56.0273 48.6762 56.01 48.6887C56.0003 48.6958 55.9835 48.7054 55.9617 48.7124C55.9401 48.7193 55.9251 48.72 55.9219 48.72V46.72C55.0591 46.72 54.4743 47.2591 54.1474 47.9128L55.9363 48.8072ZM54.9219 47.72V57H56.9219V47.72H54.9219ZM56.9219 57V47.72H54.9219V57H56.9219ZM55.9219 48.72H90.3219V46.72H55.9219V48.72ZM89.6868 46.9476L86.0868 49.9076L87.357 51.4524L90.957 48.4924L89.6868 46.9476ZM87.7219 50.68V35.88H85.7219V50.68H87.7219ZM87.7219 35.88C87.7219 32.4534 86.6252 29.7106 84.314 27.8251L83.0497 29.3749C84.7918 30.796 85.7219 32.9066 85.7219 35.88H87.7219ZM84.3241 27.8335C82.0837 25.9564 78.6503 25.12 74.2419 25.12V27.12C78.4735 27.12 81.3334 27.937 83.0397 29.3665L84.3241 27.8335ZM74.2419 25.12C72.9663 25.12 71.2483 25.2304 69.1024 25.445L69.3014 27.435C71.4221 27.223 73.0641 27.12 74.2419 27.12V25.12ZM69.1271 25.4428C66.9656 25.6049 64.6211 25.8746 62.0946 26.2509L62.3892 28.2291C64.876 27.8587 67.1715 27.5951 69.2767 27.4372L69.1271 25.4428ZM63.2344 27.1183L62.1944 18.6383L60.2093 18.8817L61.2493 27.3617L63.2344 27.1183ZM61.4284 19.734C63.6985 19.2061 65.9954 18.7572 68.319 18.3876L68.0048 16.4124C65.635 16.7894 63.2919 17.2473 60.9754 17.786L61.4284 19.734ZM68.3156 18.3881C70.6677 18.0222 72.9629 17.84 75.2019 17.84V15.84C72.8542 15.84 70.456 16.0311 68.0082 16.4119L68.3156 18.3881ZM75.2019 17.84C79.4574 17.84 83.1478 18.5922 86.2982 20.0658L87.1456 18.2542C83.6826 16.6344 79.693 15.84 75.2019 15.84V17.84ZM86.3103 20.0714C89.4576 21.4927 91.8923 23.5333 93.6474 26.1911L95.3163 25.0889C93.3381 22.0933 90.5995 19.8139 87.1335 18.2486L86.3103 20.0714ZM93.6547 26.2019C95.4439 28.836 96.3619 32.0453 96.3619 35.88H98.3619C98.3619 31.7147 97.3599 28.0973 95.3091 25.0781L93.6547 26.2019ZM96.3619 35.88V57H98.3619V35.88H96.3619ZM97.3619 56H55.9219V58H97.3619V56ZM106.842 57V47.72H104.842V57H106.842ZM105.842 48.72C105.841 48.72 105.837 48.7199 105.831 48.7185C105.824 48.7172 105.819 48.7153 105.816 48.7138C105.813 48.7124 105.814 48.7126 105.82 48.717C105.827 48.7214 105.838 48.7306 105.855 48.7471L107.269 47.3329C106.895 46.9589 106.409 46.72 105.842 46.72V48.72ZM105.855 48.7471C105.894 48.7866 105.99 48.9161 106.072 49.2425L108.012 48.7575C107.88 48.2305 107.656 47.7201 107.269 47.3329L105.855 48.7471ZM106.072 49.2425C106.163 49.6058 106.236 50.0591 106.286 50.6105L108.278 50.4295C108.221 49.8076 108.135 49.2476 108.012 48.7575L106.072 49.2425ZM106.301 50.7161C106.392 51.1701 106.442 51.7155 106.442 52.36H108.442C108.442 51.6178 108.385 50.9366 108.262 50.3239L106.301 50.7161ZM106.442 52.36C106.442 53.0028 106.392 53.5821 106.298 54.1011L108.266 54.4589C108.385 53.8046 108.442 53.1039 108.442 52.36H106.442ZM106.286 54.1895C106.236 54.7409 106.163 55.1942 106.072 55.5575L108.012 56.0425C108.135 55.5524 108.221 54.9924 108.278 54.3705L106.286 54.1895ZM106.08 55.5253C106.007 55.7809 105.918 55.9094 105.855 55.9729L107.269 57.3871C107.632 57.0239 107.863 56.5657 108.003 56.0747L106.08 55.5253ZM105.855 55.9729C105.838 55.9894 105.827 55.9986 105.82 56.003C105.814 56.0074 105.813 56.0076 105.816 56.0062C105.819 56.0047 105.824 56.0028 105.831 56.0015C105.837 56.0001 105.841 56 105.842 56V58C106.409 58 106.895 57.7611 107.269 57.3871L105.855 55.9729ZM105.844 57H104.844V58H105.844V57ZM105.844 47.72V46.72H104.844V47.72H105.844ZM120.484 47.72L121.124 48.4882L123.246 46.72H120.484V47.72ZM114.244 52.92H113.244V55.055L114.884 53.6882L114.244 52.92ZM114.244 16.84V15.84H113.244V16.84H114.244ZM124.964 16.84H125.964V15.84H124.964V16.84ZM124.964 57V58H125.964V57H124.964ZM105.844 57V58H106.844V57H105.844ZM105.124 56.68L105.924 56.08L105.881 56.0231L105.831 55.9729L105.124 56.68ZM104.644 55.8L105.605 55.5253L105.594 55.4866L105.58 55.4489L104.644 55.8ZM104.404 49.96L105.39 50.1244L105.392 50.1121L104.404 49.96ZM104.964 48.36L105.777 48.9412L105.823 48.8774L105.858 48.8072L104.964 48.36ZM105.844 47.72H106.844V46.72H105.844V47.72ZM114.244 9.48H113.244V10.48H114.244V9.48ZM114.244 0.36V-0.64H113.244V0.36H114.244ZM124.964 0.36H125.964V-0.64H124.964V0.36ZM124.964 9.48V10.48H125.964V9.48H124.964ZM106.844 57V47.72H104.844V57H106.844ZM105.844 48.72H120.484V46.72H105.844V48.72ZM119.844 46.9518L113.604 52.1518L114.884 53.6882L121.124 48.4882L119.844 46.9518ZM115.244 52.92V16.84H113.244V52.92H115.244ZM114.244 17.84H124.964V15.84H114.244V17.84ZM123.964 16.84V57H125.964V16.84H123.964ZM124.964 56H105.844V58H124.964V56ZM105.844 56C105.794 56 105.797 55.9917 105.83 56.0062C105.846 56.0134 105.865 56.0243 105.883 56.0391C105.902 56.0539 105.915 56.0687 105.924 56.08L104.324 57.28C104.711 57.7968 105.28 58 105.844 58V56ZM105.831 55.9729C105.767 55.9094 105.678 55.7809 105.605 55.5253L103.682 56.0747C103.823 56.5657 104.053 57.0239 104.417 57.3871L105.831 55.9729ZM105.58 55.4489C105.459 55.1263 105.367 54.7115 105.32 54.1895L103.328 54.3705C103.387 55.0218 103.508 55.6203 103.707 56.1511L105.58 55.4489ZM105.32 54.1895C105.269 53.6376 105.244 53.0282 105.244 52.36H103.244C103.244 53.0784 103.271 53.7491 103.328 54.3705L105.32 54.1895ZM105.244 52.36C105.244 51.4316 105.296 50.691 105.39 50.1244L103.417 49.7956C103.298 50.509 103.244 51.3684 103.244 52.36H105.244ZM105.392 50.1121C105.486 49.499 105.637 49.1375 105.777 48.9412L104.15 47.7788C103.757 48.3292 103.534 49.0343 103.415 49.8079L105.392 50.1121ZM105.858 48.8072C105.915 48.6937 105.949 48.6762 105.932 48.6887C105.922 48.6958 105.905 48.7054 105.884 48.7124C105.862 48.7193 105.847 48.72 105.844 48.72V46.72C104.981 46.72 104.396 47.2591 104.069 47.9128L105.858 48.8072ZM104.844 47.72V57H106.844V47.72H104.844ZM115.244 9.48V0.36H113.244V9.48H115.244ZM114.244 1.36H124.964V-0.64H114.244V1.36ZM123.964 0.36V9.48H125.964V0.36H123.964ZM124.964 8.48H114.244V10.48H124.964V8.48ZM198.588 57H197.588V58H198.588V57ZM198.588 47.72V46.72H197.588V47.72H198.588ZM206.988 47.72H207.988V46.72H206.988V47.72ZM206.988 57V58H207.988V57H206.988ZM163.068 74.28L163.488 73.3728L163.482 73.3701L163.068 74.28ZM154.508 67.32L153.687 67.8915L153.687 67.8915L154.508 67.32ZM151.628 52.92L150.632 52.8295L150.632 52.8295L151.628 52.92ZM152.268 47L151.278 46.8552L151.276 46.8671L151.275 46.8789L152.268 47ZM153.228 40.36L152.24 40.1993L152.239 40.2089L152.238 40.2186L153.228 40.36ZM154.268 33.72L154.403 32.7292L153.425 32.5958L153.279 33.5717L154.268 33.72ZM164.828 35.16L165.814 35.322L165.981 34.308L164.963 34.1692L164.828 35.16ZM163.308 45L162.318 44.8586L162.316 44.8662L162.316 44.8737L163.308 45ZM162.428 52.52L161.433 52.418L161.433 52.418L162.428 52.52ZM163.708 62.6L162.884 63.1677L162.884 63.1677L163.708 62.6ZM168.268 66.2L168.676 65.2871L168.664 65.2821L168.268 66.2ZM182.668 66.28L183.093 67.1848L183.093 67.1848L182.668 66.28ZM186.588 62.76L185.719 62.2639L185.712 62.2757L185.706 62.2878L186.588 62.76ZM187.868 16.84V15.84H186.868V16.84H187.868ZM198.588 16.84H199.588V15.84H198.588V16.84ZM195.548 67.8L194.73 67.2245L194.723 67.2348L195.548 67.8ZM187.388 74.44L186.98 73.5267L186.968 73.532L187.388 74.44ZM206.988 57H205.988V58H206.988V57ZM206.988 47.72V46.72H205.988V47.72H206.988ZM207.708 48.04L206.907 48.64L206.95 48.6969L207 48.7471L207.708 48.04ZM208.188 49L207.217 49.2425L207.231 49.2978L207.251 49.3511L208.188 49ZM208.508 50.52L207.512 50.6105L207.512 50.6195L208.508 50.52ZM208.508 54.28L207.512 54.1895L207.512 54.1895L208.508 54.28ZM208.188 55.8L207.251 55.4489L207.237 55.4866L207.226 55.5253L208.188 55.8ZM207.708 56.68L207 55.9729L206.95 56.0231L206.907 56.08L207.708 56.68ZM169.708 13.96H168.708V14.96H169.708V13.96ZM169.708 4.84V3.84H168.708V4.84H169.708ZM180.428 4.84H181.428V3.84H180.428V4.84ZM180.428 13.96V14.96H181.428V13.96H180.428ZM199.588 57V47.72H197.588V57H199.588ZM198.588 48.72H206.988V46.72H198.588V48.72ZM205.988 47.72V57H207.988V47.72H205.988ZM206.988 56H198.588V58H206.988V56ZM175.548 75.84C171.032 75.84 167.019 75.0101 163.488 73.3728L162.647 75.1872C166.476 76.9632 170.783 77.84 175.548 77.84V75.84ZM163.482 73.3701C160.003 71.7838 157.296 69.5742 155.328 66.7485L153.687 67.8915C155.879 71.0391 158.879 73.4695 162.653 75.1899L163.482 73.3701ZM155.328 66.7485C153.37 63.9366 152.388 60.7511 152.388 57.16H150.388C150.388 61.1422 151.485 64.7301 153.687 67.8915L155.328 66.7485ZM152.388 57.16C152.388 56.1367 152.465 54.7572 152.623 53.0105L150.632 52.8295C150.47 54.6028 150.388 56.05 150.388 57.16H152.388ZM152.623 53.0105C152.782 51.2628 152.994 49.2999 153.26 47.1211L151.275 46.8789C151.007 49.0734 150.793 51.0572 150.632 52.8295L152.623 53.0105ZM153.257 47.1448C153.577 44.957 153.897 42.7425 154.217 40.5014L152.238 40.2186C151.918 42.4575 151.598 44.6697 151.278 46.8552L153.257 47.1448ZM154.215 40.5207C154.588 38.2235 154.936 36.0061 155.256 33.8683L153.279 33.5717C152.959 35.7006 152.613 37.9098 152.24 40.1993L154.215 40.5207ZM154.132 34.7108L164.692 36.1508L164.963 34.1692L154.403 32.7292L154.132 34.7108ZM163.841 34.998C163.253 38.5769 162.745 41.8638 162.318 44.8586L164.297 45.1414C164.723 42.1628 165.229 38.8898 165.814 35.322L163.841 34.998ZM162.316 44.8737C161.942 47.8121 161.647 50.3273 161.433 52.418L163.422 52.622C163.635 50.5527 163.927 48.0545 164.299 45.1263L162.316 44.8737ZM161.433 52.418C161.219 54.502 161.108 56.0653 161.108 57.08H163.108C163.108 56.1747 163.209 54.698 163.422 52.622L161.433 52.418ZM161.108 57.08C161.108 59.3877 161.687 61.4321 162.884 63.1677L164.531 62.0323C163.594 60.6745 163.108 59.039 163.108 57.08H161.108ZM162.884 63.1677C164.072 64.8901 165.751 66.2011 167.871 67.1179L168.664 65.2821C166.838 64.4923 165.476 63.4033 164.531 62.0323L162.884 63.1677ZM167.859 67.1128C170.044 68.0904 172.617 68.56 175.548 68.56V66.56C172.825 66.56 170.544 66.123 168.676 65.2872L167.859 67.1128ZM175.548 68.56C178.565 68.56 181.1 68.123 183.093 67.1848L182.242 65.3752C180.609 66.1437 178.396 66.56 175.548 66.56V68.56ZM183.093 67.1848C185.064 66.2573 186.55 64.9479 187.469 63.2322L185.706 62.2878C185.025 63.5588 183.897 64.5961 182.242 65.3752L183.093 67.1848ZM187.456 63.2561C188.403 61.599 188.868 59.7454 188.868 57.72H186.868C186.868 59.4279 186.479 60.9344 185.719 62.2639L187.456 63.2561ZM188.868 57.72V16.84H186.868V57.72H188.868ZM187.868 17.84H198.588V15.84H187.868V17.84ZM197.588 16.84V57.72H199.588V16.84H197.588ZM197.588 57.72C197.588 61.3735 196.627 64.5283 194.73 67.2245L196.365 68.3755C198.521 65.3117 199.588 61.7465 199.588 57.72H197.588ZM194.723 67.2348C192.863 69.9492 190.293 72.0485 186.98 73.5268L187.795 75.3532C191.415 73.7381 194.286 71.4108 196.372 68.3652L194.723 67.2348ZM186.968 73.532C183.653 75.0625 179.852 75.84 175.548 75.84V77.84C180.096 77.84 184.189 77.0175 187.807 75.348L186.968 73.532ZM207.988 57V47.72H205.988V57H207.988ZM206.988 48.72C207.037 48.72 207.034 48.7283 207.001 48.7138C206.985 48.7066 206.966 48.6957 206.948 48.6809C206.929 48.6661 206.916 48.6513 206.907 48.64L208.508 47.44C208.12 46.9232 207.551 46.72 206.988 46.72V48.72ZM207 48.7471C207.04 48.7866 207.136 48.9161 207.217 49.2425L209.158 48.7575C209.026 48.2305 208.802 47.7201 208.415 47.3329L207 48.7471ZM207.251 49.3511C207.372 49.6737 207.464 50.0885 207.512 50.6105L209.503 50.4295C209.444 49.7782 209.323 49.1797 209.124 48.6489L207.251 49.3511ZM207.512 50.6195C207.562 51.1118 207.588 51.6908 207.588 52.36H209.588C209.588 51.6425 209.56 50.9948 209.503 50.4205L207.512 50.6195ZM207.588 52.36C207.588 53.0282 207.562 53.6376 207.512 54.1895L209.503 54.3705C209.56 53.7491 209.588 53.0784 209.588 52.36H207.588ZM207.512 54.1895C207.464 54.7115 207.372 55.1263 207.251 55.4489L209.124 56.1511C209.323 55.6203 209.444 55.0218 209.503 54.3705L207.512 54.1895ZM207.226 55.5253C207.153 55.7809 207.064 55.9094 207 55.9729L208.415 57.3871C208.778 57.0239 209.009 56.5657 209.149 56.0747L207.226 55.5253ZM206.907 56.08C206.916 56.0687 206.929 56.0539 206.948 56.0391C206.966 56.0243 206.985 56.0134 207.001 56.0062C207.034 55.9917 207.037 56 206.988 56V58C207.551 58 208.12 57.7968 208.508 57.28L206.907 56.08ZM170.708 13.96V4.84H168.708V13.96H170.708ZM169.708 5.84H180.428V3.84H169.708V5.84ZM179.428 4.84V13.96H181.428V4.84H179.428ZM180.428 12.96H169.708V14.96H180.428V12.96ZM207.016 57H206.016V58H207.016V57ZM207.016 47.72V46.72H206.016V47.72H207.016ZM248.536 47.72L249.184 48.481L251.25 46.72H248.536V47.72ZM243.656 51.88H242.656V54.0465L244.304 52.641L243.656 51.88ZM242.696 30.44L241.763 30.801L241.767 30.8114L242.696 30.44ZM239.336 27L238.927 27.9125L238.945 27.9209L238.964 27.9285L239.336 27ZM226.376 26.44L226.503 27.4319L226.513 27.4305L226.524 27.4289L226.376 26.44ZM221.496 27.56L220.811 26.8313L221.874 28.4855L221.496 27.56ZM228.136 21.32L229.103 21.5724L229.979 18.2154L227.451 20.5913L228.136 21.32ZM227.176 25.96L226.19 25.791L226.188 25.8048L226.186 25.8186L227.176 25.96ZM226.456 31.96L227.45 32.062L227.451 32.0595L226.456 31.96ZM226.376 43.96L225.379 44.0387L225.38 44.0517L225.381 44.0647L226.376 43.96ZM227.016 49.32L226.025 49.4566L226.027 49.4733L226.03 49.4899L227.016 49.32ZM227.656 52.52L227.921 53.4841L228.883 53.2191L228.62 52.2569L227.656 52.52ZM217.496 55.32L216.534 55.5947L216.806 56.5473L217.761 56.2841L217.496 55.32ZM216.696 51.64L217.678 51.4557L217.678 51.4557L216.696 51.64ZM215.816 45.56L214.82 45.6505L214.821 45.6617L214.822 45.6729L215.816 45.56ZM215.896 30.44L216.89 30.5481L216.89 30.5458L215.896 30.44ZM216.776 23.72L215.792 23.5388L215.79 23.5494L215.789 23.5599L216.776 23.72ZM217.816 18.84L217.465 17.9037L216.979 18.0858L216.848 18.5876L217.816 18.84ZM223.816 17.4L223.642 16.4152L223.642 16.4152L223.816 17.4ZM244.776 18.68L244.385 19.6008L244.391 19.6031L244.776 18.68ZM251.896 25.16L251.008 25.6199L251.014 25.6322L251.896 25.16ZM254.296 57V58H255.296V57H254.296ZM207.016 57V58H208.016V57H207.016ZM206.296 56.68L207.096 56.08L207.053 56.0231L207.003 55.9729L206.296 56.68ZM205.816 55.8L206.777 55.5253L206.766 55.4866L206.752 55.4489L205.816 55.8ZM205.576 49.96L206.562 50.1244L206.564 50.1121L205.576 49.96ZM206.136 48.36L206.949 48.9412L206.995 48.8774L207.03 48.8072L206.136 48.36ZM207.016 47.72H208.016V46.72H207.016V47.72ZM208.016 57V47.72H206.016V57H208.016ZM207.016 48.72H248.536V46.72H207.016V48.72ZM247.887 46.959L243.007 51.119L244.304 52.641L249.184 48.481L247.887 46.959ZM244.656 51.88V37.16H242.656V51.88H244.656ZM244.656 37.16C244.656 34.2267 244.333 31.84 243.624 30.0686L241.767 30.8114C242.339 32.24 242.656 34.3333 242.656 37.16H244.656ZM243.628 30.079C242.891 28.1753 241.573 26.8179 239.707 26.0715L238.964 27.9285C240.298 28.4621 241.22 29.3981 241.763 30.801L243.628 30.079ZM239.745 26.0875C238.013 25.3112 235.691 24.96 232.856 24.96V26.96C235.567 26.96 237.565 27.3021 238.927 27.9125L239.745 26.0875ZM232.856 24.96C230.62 24.96 228.41 25.1236 226.227 25.4511L226.524 27.4289C228.608 27.1164 230.718 26.96 232.856 26.96V24.96ZM226.248 25.4481C224.131 25.7196 222.406 26.1071 221.117 26.6345L221.874 28.4855C222.932 28.0529 224.461 27.6937 226.503 27.4319L226.248 25.4481ZM222.18 28.2887L228.82 22.0487L227.451 20.5913L220.811 26.8313L222.18 28.2887ZM227.168 21.0676C226.838 22.3316 226.513 23.9085 226.19 25.791L228.161 26.129C228.479 24.2781 228.793 22.7617 229.103 21.5724L227.168 21.0676ZM226.186 25.8186C225.917 27.7009 225.675 29.715 225.461 31.8605L227.451 32.0595C227.663 29.9383 227.901 27.9524 228.166 26.1014L226.186 25.8186ZM225.461 31.858C225.244 33.9708 225.136 36.0582 225.136 38.12H227.136C227.136 36.1285 227.24 34.1092 227.45 32.062L225.461 31.858ZM225.136 38.12C225.136 40.0151 225.217 41.9881 225.379 44.0387L227.373 43.8813C227.214 41.8785 227.136 39.9582 227.136 38.12H225.136ZM225.381 44.0647C225.595 46.099 225.81 47.8967 226.025 49.4566L228.006 49.1834C227.795 47.65 227.583 45.8743 227.37 43.8553L225.381 44.0647ZM226.03 49.4899C226.296 51.0341 226.517 52.1446 226.691 52.7831L228.62 52.2569C228.475 51.7221 228.268 50.6993 228.001 49.1501L226.03 49.4899ZM227.39 51.5559L217.23 54.3559L217.761 56.2841L227.921 53.4841L227.39 51.5559ZM218.457 55.0453C218.258 54.3469 217.998 53.1597 217.678 51.4557L215.713 51.8243C216.033 53.5337 216.307 54.7998 216.534 55.5947L218.457 55.0453ZM217.678 51.4557C217.364 49.7794 217.074 47.7777 216.809 45.4471L214.822 45.6729C215.091 48.0356 215.387 50.0873 215.713 51.8243L217.678 51.4557ZM216.812 45.4695C216.601 43.1559 216.496 40.7063 216.496 38.12H214.496C214.496 40.7603 214.603 43.2707 214.82 45.6505L216.812 45.4695ZM216.496 38.12C216.496 35.4866 216.627 32.9628 216.89 30.5481L214.901 30.3319C214.631 32.8239 214.496 35.4201 214.496 38.12H216.496ZM216.89 30.5458C217.155 28.0528 217.446 25.8315 217.763 23.8801L215.789 23.5599C215.465 25.5552 215.169 27.8138 214.901 30.3342L216.89 30.5458ZM217.759 23.9012C218.13 21.8857 218.472 20.2856 218.783 19.0924L216.848 18.5876C216.519 19.8477 216.168 21.501 215.792 23.5388L217.759 23.9012ZM218.167 19.7763C219.357 19.3301 221.282 18.8626 223.989 18.3848L223.642 16.4152C220.909 16.8974 218.834 17.3899 217.465 17.9037L218.167 19.7763ZM223.989 18.3848C226.642 17.9167 229.596 17.68 232.856 17.68V15.68C229.502 15.68 226.429 15.9233 223.642 16.4152L223.989 18.3848ZM232.856 17.68C237.572 17.68 241.401 18.3363 244.385 19.6007L245.166 17.7592C241.856 16.357 237.739 15.68 232.856 15.68V17.68ZM244.391 19.6031C247.381 20.849 249.573 22.8489 251.008 25.6199L252.784 24.7001C251.125 21.4978 248.57 19.1777 245.16 17.7569L244.391 19.6031ZM251.014 25.6322C252.507 28.4193 253.296 32.2629 253.296 37.24H255.296C255.296 32.0838 254.484 27.874 252.777 24.6878L251.014 25.6322ZM253.296 37.24V57H255.296V37.24H253.296ZM254.296 56H207.016V58H254.296V56ZM207.016 56C206.966 56 206.969 55.9917 207.002 56.0062C207.018 56.0134 207.037 56.0243 207.055 56.0391C207.074 56.0539 207.087 56.0687 207.096 56.08L205.496 57.28C205.883 57.7968 206.452 58 207.016 58V56ZM207.003 55.9729C206.939 55.9094 206.85 55.7809 206.777 55.5253L204.854 56.0747C204.994 56.5657 205.225 57.0239 205.589 57.3871L207.003 55.9729ZM206.752 55.4489C206.631 55.1263 206.539 54.7115 206.492 54.1895L204.5 54.3705C204.559 55.0218 204.68 55.6203 204.879 56.1511L206.752 55.4489ZM206.492 54.1895C206.441 53.6376 206.416 53.0282 206.416 52.36H204.416C204.416 53.0784 204.443 53.7491 204.5 54.3705L206.492 54.1895ZM206.416 52.36C206.416 51.4316 206.468 50.691 206.562 50.1244L204.589 49.7956C204.47 50.509 204.416 51.3684 204.416 52.36H206.416ZM206.564 50.1121C206.658 49.499 206.809 49.1375 206.949 48.9412L205.322 47.7788C204.929 48.3292 204.706 49.0343 204.587 49.8079L206.564 50.1121ZM207.03 48.8072C207.087 48.6937 207.121 48.6762 207.104 48.6887C207.094 48.6958 207.077 48.7054 207.055 48.7124C207.034 48.7193 207.019 48.72 207.016 48.72V46.72C206.153 46.72 205.568 47.2591 205.241 47.9128L207.03 48.8072ZM206.016 47.72V57H208.016V47.72H206.016Z" fill="#188F58" fill-opacity="0.32" mask="url(#path-1-outside-1_30_12)"/>
</svg>
