<svg width="439" height="58" viewBox="0 0 439 58" fill="none" xmlns="http://www.w3.org/2000/svg">
<mask id="path-1-outside-1_83_470" maskUnits="userSpaceOnUse" x="-1" y="-1" width="441" height="60" fill="black">
<rect fill="white" x="-1" y="-1" width="441" height="60"/>
<path d="M15.7116 43C12.3116 43 9.51164 42.46 7.31164 41.38C5.11164 40.3 3.47164 38.66 2.39164 36.46C1.35164 34.26 0.831641 31.48 0.831641 28.12C0.831641 24.76 1.35164 21.96 2.39164 19.72C3.47164 17.44 5.11164 15.74 7.31164 14.62C9.51164 13.46 12.3116 12.88 15.7116 12.88H29.2716V39.22H21.2316V18.1L23.2116 19.84H15.7116C14.0716 19.84 12.7516 20.04 11.7516 20.44C10.7516 20.8 10.0116 21.58 9.53164 22.78C9.09164 23.94 8.87164 25.72 8.87164 28.12C8.87164 30.4 9.07164 32.12 9.47164 33.28C9.91164 34.4 10.6316 35.14 11.6316 35.5C12.6316 35.86 13.9916 36.04 15.7116 36.04H35.5716V43H15.7116ZM35.5716 43V36.04C35.8116 36.04 35.9916 36.12 36.1116 36.28C36.2716 36.44 36.3916 36.68 36.4716 37C36.5916 37.32 36.6716 37.7 36.7116 38.14C36.7516 38.54 36.7716 39 36.7716 39.52C36.7716 40.04 36.7516 40.52 36.7116 40.96C36.6716 41.4 36.5916 41.78 36.4716 42.1C36.3916 42.38 36.2716 42.6 36.1116 42.76C35.9916 42.92 35.8116 43 35.5716 43ZM6.77164 7.36V0.52H14.5116V7.36H6.77164ZM17.6916 7.36V0.52H25.4316V7.36H17.6916ZM53.1001 43V36.04H60.6001V43H53.1001ZM60.6001 43V36.04C60.8001 36.04 60.9801 36.12 61.1401 36.28C61.3001 36.44 61.4201 36.68 61.5001 37C61.5801 37.32 61.6401 37.7 61.6801 38.14C61.7601 38.54 61.8001 39 61.8001 39.52C61.8001 40.04 61.7601 40.52 61.6801 40.96C61.6401 41.4 61.5801 41.78 61.5001 42.1C61.4201 42.38 61.3001 42.6 61.1401 42.76C61.0201 42.92 60.8401 43 60.6001 43ZM35.5801 43C35.3401 43 35.1601 42.92 35.0401 42.76C34.8801 42.6 34.7601 42.38 34.6801 42.1C34.5601 41.78 34.4801 41.4 34.4401 40.96C34.4001 40.52 34.3801 40.04 34.3801 39.52C34.3801 38.8 34.4201 38.2 34.5001 37.72C34.5801 37.2 34.7201 36.8 34.9201 36.52C35.0801 36.2 35.3001 36.04 35.5801 36.04V43ZM35.5801 43V36.04H49.8001L45.1201 39.94V12.88H53.1001V43H35.5801ZM37.7401 55.78V48.94H45.4801V55.78H37.7401ZM48.6601 55.78V48.94H56.4001V55.78H48.6601ZM96.0596 43V36.04H102.42V43H96.0596ZM60.5996 43C60.3596 43 60.1796 42.92 60.0596 42.76C59.8996 42.6 59.7796 42.38 59.6996 42.1C59.5796 41.78 59.4996 41.4 59.4596 40.96C59.4196 40.52 59.3996 40.04 59.3996 39.52C59.3996 38.8 59.4396 38.2 59.5196 37.72C59.5996 37.2 59.7396 36.8 59.9396 36.52C60.0996 36.2 60.3196 36.04 60.5996 36.04V43ZM60.5996 43V36.04H91.7396L88.0796 39.16V28.12C88.0796 25.96 87.8396 24.28 87.3596 23.08C86.8796 21.84 86.0396 20.98 84.8396 20.5C83.6796 19.98 82.0596 19.72 79.9796 19.72C78.3396 19.72 76.7196 19.84 75.1196 20.08C73.5596 20.28 72.3396 20.56 71.4596 20.92L76.4396 16.24C76.1996 17.16 75.9596 18.32 75.7196 19.72C75.5196 21.12 75.3396 22.62 75.1796 24.22C75.0196 25.78 74.9396 27.32 74.9396 28.84C74.9396 30.24 74.9996 31.7 75.1196 33.22C75.2796 34.74 75.4396 36.08 75.5996 37.24C75.7996 38.4 75.9596 39.2 76.0796 39.64L68.4596 41.74C68.2996 41.18 68.0996 40.26 67.8596 38.98C67.6196 37.7 67.3996 36.18 67.1996 34.42C67.0396 32.66 66.9596 30.8 66.9596 28.84C66.9596 26.84 67.0596 24.92 67.2596 23.08C67.4596 21.2 67.6796 19.52 67.9196 18.04C68.1996 16.52 68.4596 15.3 68.6996 14.38C69.6596 14.02 71.1596 13.66 73.1996 13.3C75.2396 12.94 77.4996 12.76 79.9796 12.76C83.5796 12.76 86.5596 13.26 88.9196 14.26C91.3196 15.26 93.0996 16.88 94.2596 19.12C95.4596 21.36 96.0596 24.38 96.0596 28.18V43H60.5996ZM102.42 43V36.04C102.62 36.04 102.8 36.12 102.96 36.28C103.12 36.44 103.24 36.68 103.32 37C103.4 37.32 103.46 37.7 103.5 38.14C103.58 38.54 103.62 39 103.62 39.52C103.62 40.04 103.58 40.52 103.5 40.96C103.46 41.4 103.4 41.78 103.32 42.1C103.24 42.38 103.12 42.6 102.96 42.76C102.8 42.92 102.62 43 102.42 43ZM119.956 43V36.04H127.456V43H119.956ZM127.456 43V36.04C127.656 36.04 127.836 36.12 127.996 36.28C128.156 36.44 128.276 36.68 128.356 37C128.436 37.32 128.496 37.7 128.536 38.14C128.616 38.54 128.656 39 128.656 39.52C128.656 40.04 128.616 40.52 128.536 40.96C128.496 41.4 128.436 41.78 128.356 42.1C128.276 42.38 128.156 42.6 127.996 42.76C127.876 42.92 127.696 43 127.456 43ZM102.436 43C102.196 43 102.016 42.92 101.896 42.76C101.736 42.6 101.616 42.38 101.536 42.1C101.416 41.78 101.336 41.4 101.296 40.96C101.256 40.52 101.236 40.04 101.236 39.52C101.236 38.8 101.276 38.2 101.356 37.72C101.436 37.2 101.576 36.8 101.776 36.52C101.936 36.2 102.156 36.04 102.436 36.04V43ZM102.436 43V36.04H116.656L111.976 39.94V12.88H119.956V43H102.436ZM104.596 55.78V48.94H112.336V55.78H104.596ZM115.516 55.78V48.94H123.256V55.78H115.516ZM142.275 43V36.04H148.575V43H142.275ZM127.455 43C127.215 43 127.035 42.92 126.915 42.76C126.755 42.6 126.635 42.38 126.555 42.1C126.435 41.78 126.355 41.4 126.315 40.96C126.275 40.52 126.255 40.04 126.255 39.52C126.255 38.8 126.295 38.2 126.375 37.72C126.455 37.2 126.595 36.8 126.795 36.52C126.955 36.2 127.175 36.04 127.455 36.04V43ZM134.235 43V0.579999H142.275V43H134.235ZM127.455 43V36.04H134.235V43H127.455ZM148.575 43V36.04C148.815 36.04 149.015 36.12 149.175 36.28C149.335 36.44 149.455 36.68 149.535 37C149.615 37.32 149.675 37.7 149.715 38.14C149.755 38.54 149.775 39 149.775 39.52C149.775 40.04 149.755 40.52 149.715 40.96C149.675 41.4 149.615 41.78 149.535 42.1C149.455 42.38 149.335 42.6 149.175 42.76C149.015 42.92 148.815 43 148.575 43ZM148.549 43V36.04H161.269C162.989 36.04 164.649 35.72 166.249 35.08C167.849 34.4 169.309 33.52 170.629 32.44C171.989 31.32 173.169 30.1 174.169 28.78C175.209 27.42 176.009 26.04 176.569 24.64C177.169 23.24 177.469 21.92 177.469 20.68V16.84L181.309 23.2C179.229 22.08 177.109 21.24 174.949 20.68C172.789 20.12 170.729 19.84 168.769 19.84C166.849 19.84 164.789 20.12 162.589 20.68C160.429 21.24 158.329 22.08 156.289 23.2L160.129 16.84V20.68C160.129 21.92 160.409 23.24 160.969 24.64C161.569 26.04 162.369 27.42 163.369 28.78C164.369 30.1 165.549 31.32 166.909 32.44C168.269 33.52 169.749 34.4 171.349 35.08C172.949 35.72 174.589 36.04 176.269 36.04H188.629V43H178.789C175.669 43 172.749 42.5 170.029 41.5C167.309 40.5 164.849 39.18 162.649 37.54C160.449 35.86 158.549 34.04 156.949 32.08C155.389 30.08 154.189 28.1 153.349 26.14C152.509 24.14 152.089 22.32 152.089 20.68V17.26C153.809 16.3 155.629 15.5 157.549 14.86C159.509 14.22 161.449 13.74 163.369 13.42C165.329 13.06 167.129 12.88 168.769 12.88C170.449 12.88 172.249 13.06 174.169 13.42C176.089 13.74 178.009 14.22 179.929 14.86C181.889 15.5 183.729 16.3 185.449 17.26V20.68C185.449 22.32 185.029 24.14 184.189 26.14C183.349 28.1 182.129 30.08 180.529 32.08C178.969 34.04 177.089 35.86 174.889 37.54C172.689 39.18 170.229 40.5 167.509 41.5C164.789 42.5 161.869 43 158.749 43H148.549ZM148.549 43C148.309 43 148.129 42.92 148.009 42.76C147.849 42.6 147.729 42.38 147.649 42.1C147.529 41.78 147.449 41.4 147.409 40.96C147.369 40.52 147.349 40.04 147.349 39.52C147.349 38.8 147.389 38.2 147.469 37.72C147.549 37.2 147.689 36.8 147.889 36.52C148.049 36.2 148.269 36.04 148.549 36.04V43ZM188.629 43V36.04C188.869 36.04 189.069 36.12 189.229 36.28C189.389 36.44 189.509 36.68 189.589 37C189.669 37.32 189.729 37.7 189.769 38.14C189.809 38.54 189.829 39 189.829 39.52C189.829 40.04 189.809 40.52 189.769 40.96C189.729 41.4 189.669 41.78 189.589 42.1C189.509 42.38 189.389 42.6 189.229 42.76C189.069 42.92 188.869 43 188.629 43ZM206.147 43V36.04H213.647V43H206.147ZM213.647 43V36.04C213.847 36.04 214.027 36.12 214.187 36.28C214.347 36.44 214.467 36.68 214.547 37C214.627 37.32 214.687 37.7 214.727 38.14C214.807 38.54 214.847 39 214.847 39.52C214.847 40.04 214.807 40.52 214.727 40.96C214.687 41.4 214.627 41.78 214.547 42.1C214.467 42.38 214.347 42.6 214.187 42.76C214.067 42.92 213.887 43 213.647 43ZM188.627 43C188.387 43 188.207 42.92 188.087 42.76C187.927 42.6 187.807 42.38 187.727 42.1C187.607 41.78 187.527 41.4 187.487 40.96C187.447 40.52 187.427 40.04 187.427 39.52C187.427 38.8 187.467 38.2 187.547 37.72C187.627 37.2 187.767 36.8 187.967 36.52C188.127 36.2 188.347 36.04 188.627 36.04V43ZM188.627 43V36.04H202.847L198.167 39.94V12.88H206.147V43H188.627ZM192.887 7.36V0.52H200.627V7.36H192.887ZM203.807 7.36V0.52H211.547V7.36H203.807ZM220.426 43V0.579999H228.466V43H220.426ZM213.646 43V36.04H220.426V43H213.646ZM213.646 43C213.406 43 213.226 42.92 213.106 42.76C212.946 42.6 212.826 42.38 212.746 42.1C212.626 41.78 212.546 41.4 212.506 40.96C212.466 40.52 212.446 40.04 212.446 39.52C212.446 38.8 212.486 38.2 212.566 37.72C212.646 37.2 212.786 36.8 212.986 36.52C213.146 36.2 213.366 36.04 213.646 36.04V43ZM238.089 43V0.579999H246.069V43H238.089ZM278.484 43V36.04H286.224V43H278.484ZM266.844 57.88C266.324 57.88 265.764 57.86 265.164 57.82C264.564 57.78 263.944 57.72 263.304 57.64L263.604 50.8C264.244 50.84 264.844 50.88 265.404 50.92C266.004 50.96 266.444 50.98 266.724 50.98C268.284 50.98 269.524 50.36 270.444 49.12C271.404 47.88 271.884 46.14 271.884 43.9V12.88H279.924V43.9C279.924 46.62 279.364 49.04 278.244 51.16C277.164 53.28 275.644 54.92 273.684 56.08C271.724 57.28 269.444 57.88 266.844 57.88ZM286.224 43V36.04C286.464 36.04 286.644 36.12 286.764 36.28C286.924 36.44 287.044 36.68 287.124 37C287.244 37.32 287.324 37.7 287.364 38.14C287.404 38.54 287.424 39 287.424 39.52C287.424 40.04 287.404 40.52 287.364 40.96C287.324 41.4 287.244 41.78 287.124 42.1C287.044 42.38 286.924 42.6 286.764 42.76C286.644 42.92 286.464 43 286.224 43ZM286.244 43V36.04H300.464L295.784 39.94V12.88H303.764V43H286.244ZM286.244 43C286.004 43 285.824 42.92 285.704 42.76C285.544 42.6 285.424 42.38 285.344 42.1C285.224 41.78 285.144 41.4 285.104 40.96C285.064 40.52 285.044 40.04 285.044 39.52C285.044 38.8 285.084 38.2 285.164 37.72C285.244 37.2 285.384 36.8 285.584 36.52C285.744 36.2 285.964 36.04 286.244 36.04V43ZM290.504 7.36V0.52H298.244V7.36H290.504ZM301.424 7.36V0.52H309.164V7.36H301.424ZM321.538 43V36.04H328.378V43H321.538ZM313.558 43V0.579999H321.538V43H313.558ZM328.378 43V36.04C328.618 36.04 328.798 36.12 328.918 36.28C329.078 36.44 329.198 36.68 329.278 37C329.398 37.32 329.478 37.7 329.518 38.14C329.558 38.54 329.578 39 329.578 39.52C329.578 40.04 329.558 40.52 329.518 40.96C329.478 41.4 329.398 41.78 329.278 42.1C329.198 42.38 329.078 42.6 328.918 42.76C328.798 42.92 328.618 43 328.378 43ZM342.713 43V36.04H349.013V43H342.713ZM328.373 43C328.133 43 327.953 42.92 327.833 42.76C327.673 42.6 327.553 42.38 327.473 42.1C327.353 41.78 327.273 41.4 327.233 40.96C327.193 40.52 327.173 40.04 327.173 39.52C327.173 38.8 327.213 38.2 327.293 37.72C327.373 37.2 327.513 36.8 327.713 36.52C327.873 36.2 328.093 36.04 328.373 36.04V43ZM328.373 43V36.04H339.353L334.673 39.94V12.88H342.713V43H328.373ZM349.013 43V36.04C349.253 36.04 349.453 36.12 349.613 36.28C349.773 36.44 349.893 36.68 349.973 37C350.053 37.32 350.113 37.7 350.153 38.14C350.193 38.54 350.213 39 350.213 39.52C350.213 40.04 350.193 40.52 350.153 40.96C350.113 41.4 350.053 41.78 349.973 42.1C349.893 42.38 349.773 42.6 349.613 42.76C349.453 42.92 349.253 43 349.013 43ZM334.673 7.36V0.52H342.713V7.36H334.673ZM399.338 43V36.04H405.698V43H399.338ZM348.998 43C348.758 43 348.578 42.92 348.458 42.76C348.298 42.6 348.178 42.38 348.098 42.1C347.978 41.78 347.898 41.4 347.858 40.96C347.818 40.52 347.798 40.04 347.798 39.52C347.798 38.8 347.838 38.2 347.918 37.72C347.998 37.2 348.138 36.8 348.338 36.52C348.498 36.2 348.718 36.04 348.998 36.04V43ZM384.278 43C382.638 43 380.998 42.7 379.358 42.1C377.758 41.46 376.278 40.52 374.918 39.28L379.838 34.18C380.638 34.82 381.378 35.3 382.058 35.62C382.778 35.9 383.518 36.04 384.278 36.04H395.498L391.358 39.82V26.5C391.358 25.86 391.278 24.9 391.118 23.62C390.998 22.3 390.798 20.82 390.518 19.18C390.278 17.5 389.978 15.8 389.618 14.08L397.538 12.88C397.818 14.32 398.078 15.94 398.318 17.74C398.598 19.5 398.838 21.18 399.038 22.78C399.238 24.34 399.338 25.58 399.338 26.5V43H384.278ZM348.998 43V36.04H357.758L355.958 37.9V19H363.998V43H348.998ZM363.998 43V36.04H368.858C370.138 36.04 371.118 35.86 371.798 35.5C372.478 35.1 372.938 34.32 373.178 33.16C373.458 31.96 373.598 30.18 373.598 27.82V16H381.638V27.82C381.638 31.38 381.178 34.28 380.258 36.52C379.378 38.76 377.998 40.4 376.118 41.44C374.238 42.48 371.818 43 368.858 43H363.998ZM405.698 43V36.04C405.898 36.04 406.078 36.12 406.238 36.28C406.398 36.44 406.518 36.68 406.598 37C406.678 37.32 406.738 37.7 406.778 38.14C406.858 38.54 406.898 39 406.898 39.52C406.898 40.04 406.858 40.52 406.778 40.96C406.738 41.4 406.678 41.78 406.598 42.1C406.518 42.38 406.398 42.6 406.238 42.76C406.078 42.92 405.898 43 405.698 43ZM412.497 43V0.579999H420.537V43H412.497ZM405.717 43V36.04H412.497V43H405.717ZM405.717 43C405.477 43 405.297 42.92 405.177 42.76C405.017 42.6 404.897 42.38 404.817 42.1C404.697 41.78 404.617 41.4 404.577 40.96C404.537 40.52 404.517 40.04 404.517 39.52C404.517 38.8 404.557 38.2 404.637 37.72C404.717 37.2 404.857 36.8 405.057 36.52C405.217 36.2 405.437 36.04 405.717 36.04V43ZM430.16 43V0.579999H438.14V43H430.16Z"/>
</mask>
<path d="M7.31164 41.38L6.87097 42.2777L7.31164 41.38ZM2.39164 36.46L1.48757 36.8874L1.49072 36.8941L1.49397 36.9007L2.39164 36.46ZM2.39164 19.72L1.48788 19.2919L1.48463 19.2989L2.39164 19.72ZM7.31164 14.62L7.76532 15.5112L7.77171 15.5079L7.77805 15.5046L7.31164 14.62ZM29.2716 12.88H30.2716V11.88H29.2716V12.88ZM29.2716 39.22V40.22H30.2716V39.22H29.2716ZM21.2316 39.22H20.2316V40.22H21.2316V39.22ZM21.2316 18.1L21.8918 17.3488L20.2316 15.8899V18.1H21.2316ZM23.2116 19.84V20.84H25.8645L23.8718 19.0888L23.2116 19.84ZM11.7516 20.44L12.0904 21.3809L12.1068 21.375L12.123 21.3685L11.7516 20.44ZM9.53164 22.78L8.60316 22.4086L8.59983 22.4169L8.59664 22.4253L9.53164 22.78ZM9.47164 33.28L8.52627 33.606L8.53316 33.626L8.54089 33.6457L9.47164 33.28ZM11.6316 35.5L11.2929 36.4409L11.6316 35.5ZM35.5716 36.04H36.5716V35.04H35.5716V36.04ZM35.5716 43V44H36.5716V43H35.5716ZM35.5716 43H34.5716V44H35.5716V43ZM35.5716 36.04V35.04H34.5716V36.04H35.5716ZM36.1116 36.28L35.3116 36.88L35.3543 36.9369L35.4045 36.9871L36.1116 36.28ZM36.4716 37L35.5015 37.2425L35.5153 37.2978L35.5353 37.3511L36.4716 37ZM36.7116 38.14L35.7157 38.2305L35.7166 38.2395L36.7116 38.14ZM36.7116 40.96L35.7157 40.8695V40.8695L36.7116 40.96ZM36.4716 42.1L35.5353 41.7489L35.5212 41.7866L35.5101 41.8253L36.4716 42.1ZM36.1116 42.76L35.4045 42.0529L35.3543 42.1031L35.3116 42.16L36.1116 42.76ZM6.77164 7.36H5.77164V8.36H6.77164V7.36ZM6.77164 0.52V-0.48H5.77164V0.52H6.77164ZM14.5116 0.52H15.5116V-0.48H14.5116V0.52ZM14.5116 7.36V8.36H15.5116V7.36H14.5116ZM17.6916 7.36H16.6916V8.36H17.6916V7.36ZM17.6916 0.52V-0.48H16.6916V0.52H17.6916ZM25.4316 0.52H26.4316V-0.48H25.4316V0.52ZM25.4316 7.36V8.36H26.4316V7.36H25.4316ZM15.7116 42C12.4087 42 9.77266 41.4741 7.75231 40.4823L6.87097 42.2777C9.25062 43.4459 12.2146 44 15.7116 44V42ZM7.75231 40.4823C5.75103 39.4999 4.27176 38.0206 3.28931 36.0193L1.49397 36.9007C2.67152 39.2994 4.47225 41.1001 6.87097 42.2777L7.75231 40.4823ZM3.29571 36.0326C2.33816 34.007 1.83164 31.3851 1.83164 28.12H-0.168359C-0.168359 31.5749 0.365126 34.513 1.48757 36.8874L3.29571 36.0326ZM1.83164 28.12C1.83164 24.8559 2.33781 22.2106 3.29865 20.1411L1.48463 19.2989C0.365474 21.7094 -0.168359 24.6641 -0.168359 28.12H1.83164ZM3.29538 20.1481C4.28294 18.0632 5.76705 16.5285 7.76532 15.5112L6.85796 13.7288C4.45623 14.9515 2.66034 16.8168 1.4879 19.2919L3.29538 20.1481ZM7.77805 15.5046C9.79129 14.443 12.4174 13.88 15.7116 13.88V11.88C12.2059 11.88 9.23199 12.477 6.84523 13.7354L7.77805 15.5046ZM15.7116 13.88H29.2716V11.88H15.7116V13.88ZM28.2716 12.88V39.22H30.2716V12.88H28.2716ZM29.2716 38.22H21.2316V40.22H29.2716V38.22ZM22.2316 39.22V18.1H20.2316V39.22H22.2316ZM20.5715 18.8512L22.5515 20.5912L23.8718 19.0888L21.8918 17.3488L20.5715 18.8512ZM23.2116 18.84H15.7116V20.84H23.2116V18.84ZM15.7116 18.84C14.0042 18.84 12.5434 19.0462 11.3803 19.5115L12.123 21.3685C12.9599 21.0337 14.1391 20.84 15.7116 20.84V18.84ZM11.4129 19.4991C10.0867 19.9765 9.1644 21.0055 8.60316 22.4086L10.4601 23.1514C10.8589 22.1545 11.4166 21.6235 12.0904 21.3809L11.4129 19.4991ZM8.59664 22.4253C8.09011 23.7607 7.87164 25.6904 7.87164 28.12H9.87164C9.87164 25.7496 10.0932 24.1192 10.4666 23.1347L8.59664 22.4253ZM7.87164 28.12C7.87164 30.4328 8.07128 32.2865 8.52627 33.606L10.417 32.954C10.072 31.9535 9.87164 30.3672 9.87164 28.12H7.87164ZM8.54089 33.6457C9.0707 34.9943 9.98447 35.9698 11.2929 36.4409L11.9704 34.5591C11.2788 34.3102 10.7526 33.8057 10.4024 32.9143L8.54089 33.6457ZM11.2929 36.4409C12.4478 36.8567 13.9385 37.04 15.7116 37.04V35.04C14.0448 35.04 12.8155 34.8633 11.9704 34.5591L11.2929 36.4409ZM15.7116 37.04H35.5716V35.04H15.7116V37.04ZM34.5716 36.04V43H36.5716V36.04H34.5716ZM35.5716 42H15.7116V44H35.5716V42ZM36.5716 43V36.04H34.5716V43H36.5716ZM35.5716 37.04C35.5816 37.04 35.5431 37.0416 35.4805 37.0138C35.4121 36.9834 35.3524 36.9343 35.3116 36.88L36.9116 35.68C36.564 35.2165 36.0556 35.04 35.5716 35.04V37.04ZM35.4045 36.9871C35.3907 36.9732 35.4466 37.0228 35.5015 37.2425L37.4418 36.7575C37.3367 36.3372 37.1526 35.9068 36.8187 35.5729L35.4045 36.9871ZM35.5353 37.3511C35.6163 37.567 35.6816 37.8551 35.7157 38.2305L37.7075 38.0495C37.6617 37.5449 37.567 37.073 37.408 36.6489L35.5353 37.3511ZM35.7166 38.2395C35.7525 38.5985 35.7716 39.0242 35.7716 39.52H37.7716C37.7716 38.9758 37.7508 38.4815 37.7067 38.0405L35.7166 38.2395ZM35.7716 39.52C35.7716 40.0149 35.7526 40.4643 35.7157 40.8695L37.7075 41.0505C37.7507 40.5757 37.7716 40.0651 37.7716 39.52H35.7716ZM35.7157 40.8695C35.6816 41.2449 35.6163 41.533 35.5353 41.7489L37.408 42.4511C37.567 42.027 37.6617 41.5551 37.7075 41.0505L35.7157 40.8695ZM35.5101 41.8253C35.4637 41.9876 35.4147 42.0427 35.4045 42.0529L36.8187 43.4671C37.1286 43.1573 37.3195 42.7724 37.4332 42.3747L35.5101 41.8253ZM35.3116 42.16C35.3524 42.1057 35.4121 42.0566 35.4805 42.0262C35.5431 41.9984 35.5816 42 35.5716 42V44C36.0556 44 36.564 43.8235 36.9116 43.36L35.3116 42.16ZM7.77164 7.36V0.52H5.77164V7.36H7.77164ZM6.77164 1.52H14.5116V-0.48H6.77164V1.52ZM13.5116 0.52V7.36H15.5116V0.52H13.5116ZM14.5116 6.36H6.77164V8.36H14.5116V6.36ZM18.6916 7.36V0.52H16.6916V7.36H18.6916ZM17.6916 1.52H25.4316V-0.48H17.6916V1.52ZM24.4316 0.52V7.36H26.4316V0.52H24.4316ZM25.4316 6.36H17.6916V8.36H25.4316V6.36ZM53.1001 43H52.1001V44H53.1001V43ZM53.1001 36.04V35.04H52.1001V36.04H53.1001ZM60.6001 36.04H61.6001V35.04H60.6001V36.04ZM60.6001 43V44H61.6001V43H60.6001ZM60.6001 43H59.6001V44H60.6001V43ZM60.6001 36.04V35.04H59.6001V36.04H60.6001ZM61.1401 36.28L61.8472 35.5729V35.5729L61.1401 36.28ZM61.5001 37L60.5299 37.2425L61.5001 37ZM61.6801 38.14L60.6842 38.2305L60.689 38.2837L60.6995 38.3361L61.6801 38.14ZM61.6801 40.96L60.6962 40.7811L60.6882 40.825L60.6842 40.8695L61.6801 40.96ZM61.5001 42.1L62.4616 42.3747L62.4662 42.3587L62.4702 42.3425L61.5001 42.1ZM61.1401 42.76L60.433 42.0529L60.3827 42.1031L60.3401 42.16L61.1401 42.76ZM35.5801 43V44H36.5801V43H35.5801ZM35.0401 42.76L35.8401 42.16L35.7974 42.1031L35.7472 42.0529L35.0401 42.76ZM34.6801 42.1L35.6416 41.8253L35.6305 41.7866L35.6164 41.7489L34.6801 42.1ZM34.5001 37.72L35.4865 37.8844L35.4884 37.8721L34.5001 37.72ZM34.9201 36.52L35.7338 37.1012L35.7794 37.0374L35.8145 36.9672L34.9201 36.52ZM35.5801 36.04H36.5801V35.04H35.5801V36.04ZM35.5801 43H34.5801V44H35.5801V43ZM35.5801 36.04V35.04H34.5801V36.04H35.5801ZM49.8001 36.04L50.4403 36.8082L52.5621 35.04H49.8001V36.04ZM45.1201 39.94H44.1201V42.075L45.7603 40.7082L45.1201 39.94ZM45.1201 12.88V11.88H44.1201V12.88H45.1201ZM53.1001 12.88H54.1001V11.88H53.1001V12.88ZM53.1001 43V44H54.1001V43H53.1001ZM37.7401 55.78H36.7401V56.78H37.7401V55.78ZM37.7401 48.94V47.94H36.7401V48.94H37.7401ZM45.4801 48.94H46.4801V47.94H45.4801V48.94ZM45.4801 55.78V56.78H46.4801V55.78H45.4801ZM48.6601 55.78H47.6601V56.78H48.6601V55.78ZM48.6601 48.94V47.94H47.6601V48.94H48.6601ZM56.4001 48.94H57.4001V47.94H56.4001V48.94ZM56.4001 55.78V56.78H57.4001V55.78H56.4001ZM54.1001 43V36.04H52.1001V43H54.1001ZM53.1001 37.04H60.6001V35.04H53.1001V37.04ZM59.6001 36.04V43H61.6001V36.04H59.6001ZM60.6001 42H53.1001V44H60.6001V42ZM61.6001 43V36.04H59.6001V43H61.6001ZM60.6001 37.04C60.5624 37.04 60.5188 37.0315 60.4789 37.0138C60.4414 36.9971 60.427 36.9811 60.433 36.9871L61.8472 35.5729C61.5265 35.2522 61.101 35.04 60.6001 35.04V37.04ZM60.433 36.9871C60.4191 36.9732 60.475 37.0228 60.5299 37.2425L62.4702 36.7575C62.3652 36.3372 62.1811 35.9068 61.8472 35.5729L60.433 36.9871ZM60.5299 37.2425C60.5941 37.4991 60.6474 37.8258 60.6842 38.2305L62.676 38.0495C62.6328 37.5742 62.5661 37.1409 62.4702 36.7575L60.5299 37.2425ZM60.6995 38.3361C60.7636 38.6568 60.8001 39.0489 60.8001 39.52H62.8001C62.8001 38.9511 62.7565 38.4232 62.6607 37.9439L60.6995 38.3361ZM60.8001 39.52C60.8001 39.9894 60.7639 40.4087 60.6962 40.7811L62.6639 41.1389C62.7562 40.6313 62.8001 40.0906 62.8001 39.52H60.8001ZM60.6842 40.8695C60.6474 41.2742 60.5941 41.6009 60.5299 41.8575L62.4702 42.3425C62.5661 41.9591 62.6328 41.5258 62.676 41.0505L60.6842 40.8695ZM60.5386 41.8253C60.4922 41.9876 60.4431 42.0427 60.433 42.0529L61.8472 43.4671C62.157 43.1573 62.348 42.7724 62.4616 42.3747L60.5386 41.8253ZM60.3401 42.16C60.3808 42.1057 60.4405 42.0566 60.5089 42.0262C60.5715 41.9984 60.61 42 60.6001 42V44C61.0841 44 61.5925 43.8235 61.9401 43.36L60.3401 42.16ZM35.5801 42C35.5701 42 35.6086 41.9984 35.6712 42.0262C35.7396 42.0566 35.7994 42.1057 35.8401 42.16L34.2401 43.36C34.5877 43.8235 35.0961 44 35.5801 44V42ZM35.7472 42.0529C35.737 42.0427 35.688 41.9876 35.6416 41.8253L33.7186 42.3747C33.8322 42.7724 34.0231 43.1573 34.333 43.4671L35.7472 42.0529ZM35.6164 41.7489C35.5354 41.533 35.4701 41.2449 35.436 40.8695L33.4442 41.0505C33.4901 41.5551 33.5847 42.027 33.7437 42.4511L35.6164 41.7489ZM35.436 40.8695C35.3991 40.4643 35.3801 40.0149 35.3801 39.52H33.3801C33.3801 40.0651 33.401 40.5757 33.4442 41.0505L35.436 40.8695ZM35.3801 39.52C35.3801 38.8316 35.4187 38.291 35.4865 37.8844L33.5137 37.5556C33.4214 38.109 33.3801 38.7684 33.3801 39.52H35.3801ZM35.4884 37.8721C35.5561 37.4324 35.6603 37.2041 35.7338 37.1012L34.1063 35.9388C33.7798 36.3959 33.6041 36.9676 33.5117 37.5679L35.4884 37.8721ZM35.8145 36.9672C35.8446 36.907 35.8471 36.9295 35.7933 36.9687C35.7652 36.9891 35.7288 37.0088 35.6861 37.0224C35.6437 37.036 35.6066 37.04 35.5801 37.04V35.04C34.8107 35.04 34.2992 35.5258 34.0257 36.0728L35.8145 36.9672ZM34.5801 36.04V43H36.5801V36.04H34.5801ZM36.5801 43V36.04H34.5801V43H36.5801ZM35.5801 37.04H49.8001V35.04H35.5801V37.04ZM49.1599 35.2718L44.4799 39.1718L45.7603 40.7082L50.4403 36.8082L49.1599 35.2718ZM46.1201 39.94V12.88H44.1201V39.94H46.1201ZM45.1201 13.88H53.1001V11.88H45.1201V13.88ZM52.1001 12.88V43H54.1001V12.88H52.1001ZM53.1001 42H35.5801V44H53.1001V42ZM38.7401 55.78V48.94H36.7401V55.78H38.7401ZM37.7401 49.94H45.4801V47.94H37.7401V49.94ZM44.4801 48.94V55.78H46.4801V48.94H44.4801ZM45.4801 54.78H37.7401V56.78H45.4801V54.78ZM49.6601 55.78V48.94H47.6601V55.78H49.6601ZM48.6601 49.94H56.4001V47.94H48.6601V49.94ZM55.4001 48.94V55.78H57.4001V48.94H55.4001ZM56.4001 54.78H48.6601V56.78H56.4001V54.78ZM96.0596 43H95.0596V44H96.0596V43ZM96.0596 36.04V35.04H95.0596V36.04H96.0596ZM102.42 36.04H103.42V35.04H102.42V36.04ZM102.42 43V44H103.42V43H102.42ZM60.5996 43V44H61.5996V43H60.5996ZM60.0596 42.76L60.8596 42.16L60.817 42.1031L60.7667 42.0529L60.0596 42.76ZM59.6996 42.1L60.6611 41.8253L60.6501 41.7866L60.6359 41.7489L59.6996 42.1ZM59.5196 37.72L60.5061 37.8844L60.508 37.8721L59.5196 37.72ZM59.9396 36.52L60.7533 37.1012L60.7989 37.0374L60.834 36.9672L59.9396 36.52ZM60.5996 36.04H61.5996V35.04H60.5996V36.04ZM60.5996 43H59.5996V44H60.5996V43ZM60.5996 36.04V35.04H59.5996V36.04H60.5996ZM91.7396 36.04L92.3883 36.801L94.4542 35.04H91.7396V36.04ZM88.0796 39.16H87.0796V41.3265L88.7283 39.921L88.0796 39.16ZM87.3596 23.08L86.427 23.441L86.4311 23.4514L87.3596 23.08ZM84.8396 20.5L84.4306 21.4125L84.4492 21.4209L84.4682 21.4285L84.8396 20.5ZM75.1196 20.08L75.2468 21.0719L75.2574 21.0705L75.268 21.0689L75.1196 20.08ZM71.4596 20.92L70.7748 20.1913L71.8382 21.8455L71.4596 20.92ZM76.4396 16.24L77.4072 16.4924L78.283 13.1354L75.7548 15.5113L76.4396 16.24ZM75.7196 19.72L74.734 19.551L74.7316 19.5648L74.7297 19.5786L75.7196 19.72ZM75.1796 24.22L76.1744 24.322L76.1746 24.3195L75.1796 24.22ZM75.1196 33.22L74.1227 33.2987L74.1237 33.3117L74.1251 33.3247L75.1196 33.22ZM75.5996 37.24L74.609 37.3766L74.6113 37.3933L74.6142 37.4099L75.5996 37.24ZM76.0796 39.64L76.3453 40.6041L77.3068 40.3391L77.0444 39.3769L76.0796 39.64ZM68.4596 41.74L67.4981 42.0147L67.7702 42.9673L68.7253 42.7041L68.4596 41.74ZM67.8596 38.98L68.8425 38.7957L67.8596 38.98ZM67.1996 34.42L66.2037 34.5105L66.2047 34.5217L66.206 34.5329L67.1996 34.42ZM67.2596 23.08L68.2538 23.1881L68.254 23.1858L67.2596 23.08ZM67.9196 18.04L66.9362 17.8588L66.9342 17.8694L66.9325 17.8799L67.9196 18.04ZM68.6996 14.38L68.3485 13.4437L67.8629 13.6258L67.732 14.1276L68.6996 14.38ZM73.1996 13.3L73.0258 12.3152L73.1996 13.3ZM88.9196 14.26L88.5295 15.1808L88.535 15.1831L88.9196 14.26ZM94.2596 19.12L93.3715 19.5799L93.3781 19.5922L94.2596 19.12ZM96.0596 43V44H97.0596V43H96.0596ZM102.42 43H101.42V44H102.42V43ZM102.42 36.04V35.04H101.42V36.04H102.42ZM103.32 37L102.349 37.2425L102.349 37.2425L103.32 37ZM103.5 38.14L102.504 38.2305L102.509 38.2837L102.519 38.3361L103.5 38.14ZM103.5 40.96L102.516 40.7811L102.508 40.825L102.504 40.8695L103.5 40.96ZM103.32 42.1L104.281 42.3747L104.286 42.3587L104.29 42.3425L103.32 42.1ZM102.96 42.76L102.253 42.0529L102.96 42.76ZM97.0596 43V36.04H95.0596V43H97.0596ZM96.0596 37.04H102.42V35.04H96.0596V37.04ZM101.42 36.04V43H103.42V36.04H101.42ZM102.42 42H96.0596V44H102.42V42ZM60.5996 42C60.5897 42 60.6282 41.9984 60.6907 42.0262C60.7591 42.0566 60.8189 42.1057 60.8596 42.16L59.2596 43.36C59.6072 43.8235 60.1156 44 60.5996 44V42ZM60.7667 42.0529C60.7565 42.0427 60.7075 41.9876 60.6611 41.8253L58.7381 42.3747C58.8517 42.7724 59.0427 43.1573 59.3525 43.4671L60.7667 42.0529ZM60.6359 41.7489C60.555 41.533 60.4896 41.2449 60.4555 40.8695L58.4637 41.0505C58.5096 41.5551 58.6042 42.027 58.7633 42.4511L60.6359 41.7489ZM60.4555 40.8695C60.4187 40.4643 60.3996 40.0149 60.3996 39.52H58.3996C58.3996 40.0651 58.4206 40.5757 58.4637 41.0505L60.4555 40.8695ZM60.3996 39.52C60.3996 38.8316 60.4382 38.291 60.506 37.8844L58.5332 37.5556C58.441 38.109 58.3996 38.7684 58.3996 39.52H60.3996ZM60.508 37.8721C60.5756 37.4324 60.6798 37.2041 60.7533 37.1012L59.1259 35.9388C58.7994 36.3959 58.6236 36.9676 58.5312 37.5679L60.508 37.8721ZM60.834 36.9672C60.8641 36.907 60.8667 36.9295 60.8128 36.9687C60.7847 36.9891 60.7483 37.0088 60.7056 37.0224C60.6632 37.036 60.6261 37.04 60.5996 37.04V35.04C59.8302 35.04 59.3187 35.5258 59.0452 36.0728L60.834 36.9672ZM59.5996 36.04V43H61.5996V36.04H59.5996ZM61.5996 43V36.04H59.5996V43H61.5996ZM60.5996 37.04H91.7396V35.04H60.5996V37.04ZM91.0909 35.279L87.4309 38.399L88.7283 39.921L92.3883 36.801L91.0909 35.279ZM89.0796 39.16V28.12H87.0796V39.16H89.0796ZM89.0796 28.12C89.0796 25.9067 88.8366 24.08 88.2881 22.7086L86.4311 23.4514C86.8426 24.48 87.0796 26.0133 87.0796 28.12H89.0796ZM88.2922 22.719C87.7152 21.2286 86.677 20.1579 85.211 19.5715L84.4682 21.4285C85.4022 21.8021 86.044 22.4514 86.427 23.441L88.2922 22.719ZM85.2487 19.5875C83.9036 18.9845 82.1218 18.72 79.9796 18.72V20.72C81.9974 20.72 83.4556 20.9755 84.4306 21.4125L85.2487 19.5875ZM79.9796 18.72C78.2906 18.72 76.621 18.8436 74.9713 19.0911L75.268 21.0689C76.8182 20.8364 78.3886 20.72 79.9796 20.72V18.72ZM74.9924 19.0881C73.3945 19.293 72.0768 19.5871 71.081 19.9944L71.8382 21.8455C72.6024 21.5329 73.7247 21.267 75.2468 21.0719L74.9924 19.0881ZM72.1444 21.6487L77.1244 16.9687L75.7548 15.5113L70.7748 20.1913L72.1444 21.6487ZM75.472 15.9876C75.2222 16.945 74.9767 18.1352 74.734 19.551L76.7052 19.889C76.9425 18.5048 77.177 17.375 77.4072 16.4924L75.472 15.9876ZM74.7297 19.5786C74.5274 20.9942 74.3458 22.5083 74.1846 24.1205L76.1746 24.3195C76.3334 22.7317 76.5118 21.2458 76.7096 19.8614L74.7297 19.5786ZM74.1848 24.118C74.0215 25.7108 73.9396 27.2849 73.9396 28.84H75.9396C75.9396 27.3551 76.0178 25.8492 76.1744 24.322L74.1848 24.118ZM73.9396 28.84C73.9396 30.2685 74.0008 31.7548 74.1227 33.2987L76.1165 33.1413C75.9984 31.6452 75.9396 30.2115 75.9396 28.84H73.9396ZM74.1251 33.3247C74.2859 34.8523 74.4472 36.2034 74.609 37.3766L76.5902 37.1034C76.4321 35.9566 76.2733 34.6277 76.1141 33.1153L74.1251 33.3247ZM74.6142 37.4099C74.8137 38.5674 74.9807 39.4112 75.1148 39.9031L77.0444 39.3769C76.9385 38.9888 76.7855 38.2326 76.5851 37.0701L74.6142 37.4099ZM75.8139 38.6759L68.1939 40.7759L68.7253 42.7041L76.3453 40.6041L75.8139 38.6759ZM69.4211 41.4653C69.2749 40.9535 69.082 40.073 68.8425 38.7957L66.8767 39.1643C67.1172 40.447 67.3243 41.4065 67.4981 42.0147L69.4211 41.4653ZM68.8425 38.7957C68.6082 37.546 68.3914 36.051 68.1932 34.3071L66.206 34.5329C66.4078 36.309 66.6311 37.854 66.8767 39.1643L68.8425 38.7957ZM68.1955 34.3295C68.0385 32.6026 67.9596 30.773 67.9596 28.84H65.9596C65.9596 30.827 66.0407 32.7174 66.2037 34.5105L68.1955 34.3295ZM67.9596 28.84C67.9596 26.8732 68.058 24.9894 68.2538 23.1881L66.2655 22.9719C66.0613 24.8506 65.9596 26.8068 65.9596 28.84H67.9596ZM68.254 23.1858C68.4525 21.3195 68.6703 19.6581 68.9067 18.2001L66.9325 17.8799C66.6889 19.3819 66.4667 21.0805 66.2652 22.9742L68.254 23.1858ZM68.9031 18.2212C69.181 16.7123 69.436 15.519 69.6672 14.6324L67.732 14.1276C67.4833 15.081 67.2182 16.3277 66.9362 17.8588L68.9031 18.2212ZM69.0507 15.3163C69.9208 14.9901 71.3458 14.6426 73.3734 14.2848L73.0258 12.3152C70.9734 12.6774 69.3985 13.0499 68.3485 13.4437L69.0507 15.3163ZM73.3734 14.2848C75.3461 13.9367 77.5469 13.76 79.9796 13.76V11.76C77.4523 11.76 75.1331 11.9433 73.0258 12.3152L73.3734 14.2848ZM79.9796 13.76C83.4959 13.76 86.3321 14.2497 88.5295 15.1807L89.3098 13.3392C86.7871 12.2703 83.6633 11.76 79.9796 11.76V13.76ZM88.535 15.1831C90.7252 16.0957 92.3233 17.5555 93.3716 19.5799L95.1476 18.6601C93.8759 16.2045 91.914 14.4243 89.3042 13.3369L88.535 15.1831ZM93.3781 19.5922C94.4712 21.6327 95.0596 24.4696 95.0596 28.18H97.0596C97.0596 24.2904 96.448 21.0873 95.1411 18.6478L93.3781 19.5922ZM95.0596 28.18V43H97.0596V28.18H95.0596ZM96.0596 42H60.5996V44H96.0596V42ZM103.42 43V36.04H101.42V43H103.42ZM102.42 37.04C102.382 37.04 102.338 37.0315 102.298 37.0138C102.261 36.9971 102.247 36.9811 102.253 36.9871L103.667 35.5729C103.346 35.2522 102.921 35.04 102.42 35.04V37.04ZM102.253 36.9871C102.239 36.9732 102.295 37.0228 102.349 37.2425L104.29 36.7575C104.185 36.3372 104.001 35.9068 103.667 35.5729L102.253 36.9871ZM102.349 37.2425C102.414 37.4991 102.467 37.8258 102.504 38.2305L104.496 38.0495C104.452 37.5742 104.386 37.1409 104.29 36.7575L102.349 37.2425ZM102.519 38.3361C102.583 38.6568 102.62 39.0489 102.62 39.52H104.62C104.62 38.9511 104.576 38.4232 104.48 37.9439L102.519 38.3361ZM102.62 39.52C102.62 39.9894 102.583 40.4087 102.516 40.7811L104.483 41.1389C104.576 40.6313 104.62 40.0906 104.62 39.52H102.62ZM102.504 40.8695C102.467 41.2742 102.414 41.6009 102.349 41.8575L104.29 42.3425C104.386 41.9591 104.452 41.5258 104.496 41.0505L102.504 40.8695ZM102.358 41.8253C102.312 41.9876 102.263 42.0427 102.253 42.0529L103.667 43.4671C103.977 43.1573 104.168 42.7724 104.281 42.3747L102.358 41.8253ZM102.253 42.0529C102.247 42.0589 102.261 42.0429 102.298 42.0262C102.338 42.0085 102.382 42 102.42 42V44C102.921 44 103.346 43.7878 103.667 43.4671L102.253 42.0529ZM119.956 43H118.956V44H119.956V43ZM119.956 36.04V35.04H118.956V36.04H119.956ZM127.456 36.04H128.456V35.04H127.456V36.04ZM127.456 43V44H128.456V43H127.456ZM127.456 43H126.456V44H127.456V43ZM127.456 36.04V35.04H126.456V36.04H127.456ZM127.996 36.28L128.703 35.5729V35.5729L127.996 36.28ZM128.356 37L127.385 37.2425L128.356 37ZM128.536 38.14L127.54 38.2305L127.544 38.2837L127.555 38.3361L128.536 38.14ZM128.536 40.96L127.552 40.7811L127.544 40.825L127.54 40.8695L128.536 40.96ZM128.356 42.1L129.317 42.3747L129.322 42.3587L129.326 42.3425L128.356 42.1ZM127.996 42.76L127.288 42.0529L127.238 42.1031L127.196 42.16L127.996 42.76ZM102.436 43V44H103.436V43H102.436ZM101.896 42.76L102.696 42.16L102.653 42.1031L102.603 42.0529L101.896 42.76ZM101.536 42.1L102.497 41.8253L102.486 41.7866L102.472 41.7489L101.536 42.1ZM101.356 37.72L102.342 37.8844L102.344 37.8721L101.356 37.72ZM101.776 36.52L102.589 37.1012L102.635 37.0374L102.67 36.9672L101.776 36.52ZM102.436 36.04H103.436V35.04H102.436V36.04ZM102.436 43H101.436V44H102.436V43ZM102.436 36.04V35.04H101.436V36.04H102.436ZM116.656 36.04L117.296 36.8082L119.418 35.04H116.656V36.04ZM111.976 39.94H110.976V42.075L112.616 40.7082L111.976 39.94ZM111.976 12.88V11.88H110.976V12.88H111.976ZM119.956 12.88H120.956V11.88H119.956V12.88ZM119.956 43V44H120.956V43H119.956ZM104.596 55.78H103.596V56.78H104.596V55.78ZM104.596 48.94V47.94H103.596V48.94H104.596ZM112.336 48.94H113.336V47.94H112.336V48.94ZM112.336 55.78V56.78H113.336V55.78H112.336ZM115.516 55.78H114.516V56.78H115.516V55.78ZM115.516 48.94V47.94H114.516V48.94H115.516ZM123.256 48.94H124.256V47.94H123.256V48.94ZM123.256 55.78V56.78H124.256V55.78H123.256ZM120.956 43V36.04H118.956V43H120.956ZM119.956 37.04H127.456V35.04H119.956V37.04ZM126.456 36.04V43H128.456V36.04H126.456ZM127.456 42H119.956V44H127.456V42ZM128.456 43V36.04H126.456V43H128.456ZM127.456 37.04C127.418 37.04 127.374 37.0315 127.334 37.0138C127.297 36.9971 127.282 36.9811 127.288 36.9871L128.703 35.5729C128.382 35.2522 127.956 35.04 127.456 35.04V37.04ZM127.288 36.9871C127.275 36.9732 127.33 37.0228 127.385 37.2425L129.326 36.7575C129.221 36.3372 129.037 35.9068 128.703 35.5729L127.288 36.9871ZM127.385 37.2425C127.45 37.4991 127.503 37.8258 127.54 38.2305L129.531 38.0495C129.488 37.5742 129.422 37.1409 129.326 36.7575L127.385 37.2425ZM127.555 38.3361C127.619 38.6568 127.656 39.0489 127.656 39.52H129.656C129.656 38.9511 129.612 38.4232 129.516 37.9439L127.555 38.3361ZM127.656 39.52C127.656 39.9894 127.619 40.4087 127.552 40.7811L129.519 41.1389C129.612 40.6313 129.656 40.0906 129.656 39.52H127.656ZM127.54 40.8695C127.503 41.2742 127.45 41.6009 127.385 41.8575L129.326 42.3425C129.422 41.9591 129.488 41.5258 129.531 41.0505L127.54 40.8695ZM127.394 41.8253C127.348 41.9876 127.299 42.0427 127.288 42.0529L128.703 43.4671C129.012 43.1573 129.203 42.7724 129.317 42.3747L127.394 41.8253ZM127.196 42.16C127.236 42.1057 127.296 42.0566 127.364 42.0262C127.427 41.9984 127.465 42 127.456 42V44C127.94 44 128.448 43.8235 128.796 43.36L127.196 42.16ZM102.436 42C102.426 42 102.464 41.9984 102.527 42.0262C102.595 42.0566 102.655 42.1057 102.696 42.16L101.096 43.36C101.443 43.8235 101.952 44 102.436 44V42ZM102.603 42.0529C102.592 42.0427 102.543 41.9876 102.497 41.8253L100.574 42.3747C100.688 42.7724 100.879 43.1573 101.188 43.4671L102.603 42.0529ZM102.472 41.7489C102.391 41.533 102.326 41.2449 102.291 40.8695L100.3 41.0505C100.346 41.5551 100.44 42.027 100.599 42.4511L102.472 41.7489ZM102.291 40.8695C102.255 40.4643 102.236 40.0149 102.236 39.52H100.236C100.236 40.0651 100.256 40.5757 100.3 41.0505L102.291 40.8695ZM102.236 39.52C102.236 38.8316 102.274 38.291 102.342 37.8844L100.369 37.5556C100.277 38.109 100.236 38.7684 100.236 39.52H102.236ZM102.344 37.8721C102.412 37.4324 102.516 37.2041 102.589 37.1012L100.962 35.9388C100.635 36.3959 100.46 36.9676 100.367 37.5679L102.344 37.8721ZM102.67 36.9672C102.7 36.907 102.703 36.9295 102.649 36.9687C102.621 36.9891 102.584 37.0088 102.542 37.0224C102.499 37.036 102.462 37.04 102.436 37.04V35.04C101.666 35.04 101.155 35.5258 100.881 36.0728L102.67 36.9672ZM101.436 36.04V43H103.436V36.04H101.436ZM103.436 43V36.04H101.436V43H103.436ZM102.436 37.04H116.656V35.04H102.436V37.04ZM116.015 35.2718L111.335 39.1718L112.616 40.7082L117.296 36.8082L116.015 35.2718ZM112.976 39.94V12.88H110.976V39.94H112.976ZM111.976 13.88H119.956V11.88H111.976V13.88ZM118.956 12.88V43H120.956V12.88H118.956ZM119.956 42H102.436V44H119.956V42ZM105.596 55.78V48.94H103.596V55.78H105.596ZM104.596 49.94H112.336V47.94H104.596V49.94ZM111.336 48.94V55.78H113.336V48.94H111.336ZM112.336 54.78H104.596V56.78H112.336V54.78ZM116.516 55.78V48.94H114.516V55.78H116.516ZM115.516 49.94H123.256V47.94H115.516V49.94ZM122.256 48.94V55.78H124.256V48.94H122.256ZM123.256 54.78H115.516V56.78H123.256V54.78ZM142.275 43H141.275V44H142.275V43ZM142.275 36.04V35.04H141.275V36.04H142.275ZM148.575 36.04H149.575V35.04H148.575V36.04ZM148.575 43V44H149.575V43H148.575ZM127.455 43V44H128.455V43H127.455ZM126.915 42.76L127.715 42.16L127.672 42.1031L127.622 42.0529L126.915 42.76ZM126.555 42.1L127.517 41.8253L127.506 41.7866L127.491 41.7489L126.555 42.1ZM126.375 37.72L127.362 37.8844L127.363 37.8721L126.375 37.72ZM126.795 36.52L127.609 37.1012L127.654 37.0374L127.689 36.9672L126.795 36.52ZM127.455 36.04H128.455V35.04H127.455V36.04ZM134.235 43H133.235V44H134.235V43ZM134.235 0.579999V-0.420001H133.235V0.579999H134.235ZM142.275 0.579999H143.275V-0.420001H142.275V0.579999ZM142.275 43V44H143.275V43H142.275ZM127.455 43H126.455V44H127.455V43ZM127.455 36.04V35.04H126.455V36.04H127.455ZM134.235 36.04H135.235V35.04H134.235V36.04ZM134.235 43V44H135.235V43H134.235ZM148.575 43H147.575V44H148.575V43ZM148.575 36.04V35.04H147.575V36.04H148.575ZM149.535 37L150.505 36.7575L149.535 37ZM149.715 38.14L148.719 38.2305L148.72 38.2395L149.715 38.14ZM149.715 40.96L150.711 41.0505V41.0505L149.715 40.96ZM149.535 42.1L150.497 42.3747L150.501 42.3587L150.505 42.3425L149.535 42.1ZM149.175 42.76L148.468 42.0529L149.175 42.76ZM143.275 43V36.04H141.275V43H143.275ZM142.275 37.04H148.575V35.04H142.275V37.04ZM147.575 36.04V43H149.575V36.04H147.575ZM148.575 42H142.275V44H148.575V42ZM127.455 42C127.445 42 127.484 41.9984 127.546 42.0262C127.615 42.0566 127.674 42.1057 127.715 42.16L126.115 43.36C126.463 43.8235 126.971 44 127.455 44V42ZM127.622 42.0529C127.612 42.0427 127.563 41.9876 127.517 41.8253L125.594 42.3747C125.707 42.7724 125.898 43.1573 126.208 43.4671L127.622 42.0529ZM127.491 41.7489C127.41 41.533 127.345 41.2449 127.311 40.8695L125.319 41.0505C125.365 41.5551 125.46 42.027 125.619 42.4511L127.491 41.7489ZM127.311 40.8695C127.274 40.4643 127.255 40.0149 127.255 39.52H125.255C125.255 40.0651 125.276 40.5757 125.319 41.0505L127.311 40.8695ZM127.255 39.52C127.255 38.8316 127.294 38.291 127.361 37.8844L125.389 37.5556C125.296 38.109 125.255 38.7684 125.255 39.52H127.255ZM127.363 37.8721C127.431 37.4324 127.535 37.2041 127.609 37.1012L125.981 35.9388C125.655 36.3959 125.479 36.9676 125.387 37.5679L127.363 37.8721ZM127.689 36.9672C127.72 36.907 127.722 36.9295 127.668 36.9687C127.64 36.9891 127.604 37.0088 127.561 37.0224C127.519 37.036 127.482 37.04 127.455 37.04V35.04C126.686 35.04 126.174 35.5258 125.901 36.0728L127.689 36.9672ZM126.455 36.04V43H128.455V36.04H126.455ZM135.235 43V0.579999H133.235V43H135.235ZM134.235 1.58H142.275V-0.420001H134.235V1.58ZM141.275 0.579999V43H143.275V0.579999H141.275ZM142.275 42H134.235V44H142.275V42ZM128.455 43V36.04H126.455V43H128.455ZM127.455 37.04H134.235V35.04H127.455V37.04ZM133.235 36.04V43H135.235V36.04H133.235ZM134.235 42H127.455V44H134.235V42ZM149.575 43V36.04H147.575V43H149.575ZM148.575 37.04C148.582 37.04 148.565 37.0408 148.534 37.0285C148.502 37.0157 148.479 36.9979 148.468 36.9871L149.882 35.5729C149.522 35.2131 149.062 35.04 148.575 35.04V37.04ZM148.468 36.9871C148.454 36.9732 148.51 37.0228 148.565 37.2425L150.505 36.7575C150.4 36.3372 150.216 35.9068 149.882 35.5729L148.468 36.9871ZM148.565 37.2425C148.629 37.4991 148.682 37.8258 148.719 38.2305L150.711 38.0495C150.668 37.5742 150.601 37.1409 150.505 36.7575L148.565 37.2425ZM148.72 38.2395C148.756 38.5985 148.775 39.0242 148.775 39.52H150.775C150.775 38.9758 150.754 38.4815 150.71 38.0405L148.72 38.2395ZM148.775 39.52C148.775 40.0149 148.756 40.4643 148.719 40.8695L150.711 41.0505C150.754 40.5757 150.775 40.0651 150.775 39.52H148.775ZM148.719 40.8695C148.682 41.2742 148.629 41.6009 148.565 41.8575L150.505 42.3425C150.601 41.9591 150.668 41.5258 150.711 41.0505L148.719 40.8695ZM148.574 41.8253C148.527 41.9876 148.478 42.0427 148.468 42.0529L149.882 43.4671C150.192 43.1573 150.383 42.7724 150.497 42.3747L148.574 41.8253ZM148.468 42.0529C148.479 42.0421 148.502 42.0243 148.534 42.0115C148.565 41.9992 148.582 42 148.575 42V44C149.062 44 149.522 43.8269 149.882 43.4671L148.468 42.0529ZM148.549 43H147.549V44H148.549V43ZM148.549 36.04V35.04H147.549V36.04H148.549ZM166.249 35.08L166.62 36.0085L166.63 36.0045L166.64 36.0003L166.249 35.08ZM170.629 32.44L171.262 33.214L171.265 33.2119L170.629 32.44ZM174.169 28.78L173.374 28.1725L173.372 28.1761L174.169 28.78ZM176.569 24.64L175.65 24.2461L175.645 24.2573L175.64 24.2686L176.569 24.64ZM177.469 16.84L178.325 16.3231L176.469 13.249V16.84H177.469ZM181.309 23.2L180.835 24.0805L184.056 25.8149L182.165 22.6831L181.309 23.2ZM174.949 20.68L175.2 19.712L174.949 20.68ZM162.589 20.68L162.342 19.7109L162.338 19.712L162.589 20.68ZM156.289 23.2L155.433 22.6831L153.511 25.8658L156.77 24.0766L156.289 23.2ZM160.129 16.84H161.129V13.249L159.273 16.3231L160.129 16.84ZM160.969 24.64L160.04 25.0114L160.045 25.0227L160.05 25.0339L160.969 24.64ZM163.369 28.78L162.563 29.3724L162.567 29.3782L162.572 29.3839L163.369 28.78ZM166.909 32.44L166.273 33.2119L166.28 33.2176L166.287 33.2231L166.909 32.44ZM171.349 35.08L170.958 36.0003L170.968 36.0045L170.977 36.0085L171.349 35.08ZM188.629 36.04H189.629V35.04H188.629V36.04ZM188.629 43V44H189.629V43H188.629ZM170.029 41.5L169.684 42.4386L170.029 41.5ZM162.649 37.54L162.042 38.3348L162.051 38.3417L162.649 37.54ZM156.949 32.08L156.16 32.695L156.167 32.7038L156.174 32.7124L156.949 32.08ZM153.349 26.14L152.427 26.5272L152.43 26.5339L153.349 26.14ZM152.089 17.26L151.601 16.3868L151.089 16.6729V17.26H152.089ZM157.549 14.86L157.238 13.9094L157.233 13.9113L157.549 14.86ZM163.369 13.42L163.533 14.4064L163.541 14.405L163.549 14.4035L163.369 13.42ZM174.169 13.42L173.985 14.4029L173.994 14.4047L174.004 14.4064L174.169 13.42ZM179.929 14.86L179.613 15.8087L179.618 15.8106L179.929 14.86ZM185.449 17.26H186.449V16.6729L185.936 16.3868L185.449 17.26ZM184.189 26.14L185.108 26.5339L185.111 26.5272L184.189 26.14ZM180.529 32.08L179.748 31.4553L179.746 31.4573L180.529 32.08ZM174.889 37.54L175.487 38.3418L175.496 38.3348L174.889 37.54ZM167.509 41.5L167.854 42.4386L167.509 41.5ZM148.549 43V44H149.549V43H148.549ZM148.009 42.76L148.809 42.16L148.766 42.1031L148.716 42.0529L148.009 42.76ZM147.649 42.1L148.61 41.8253L148.599 41.7866L148.585 41.7489L147.649 42.1ZM147.469 37.72L148.455 37.8844L148.457 37.8721L147.469 37.72ZM147.889 36.52L148.703 37.1012L148.748 37.0374L148.783 36.9672L147.889 36.52ZM148.549 36.04H149.549V35.04H148.549V36.04ZM188.629 43H187.629V44H188.629V43ZM188.629 36.04V35.04H187.629V36.04H188.629ZM189.589 37L188.619 37.2425V37.2425L189.589 37ZM189.769 38.14L188.773 38.2305L188.774 38.2395L189.769 38.14ZM189.589 42.1L190.55 42.3747L190.555 42.3587L190.559 42.3425L189.589 42.1ZM189.229 42.76L188.522 42.0529L189.229 42.76ZM149.549 43V36.04H147.549V43H149.549ZM148.549 37.04H161.269V35.04H148.549V37.04ZM161.269 37.04C163.116 37.04 164.902 36.6956 166.62 36.0085L165.877 34.1515C164.395 34.7444 162.861 35.04 161.269 35.04V37.04ZM166.64 36.0003C168.326 35.284 169.867 34.3551 171.262 33.214L169.996 31.666C168.75 32.6849 167.372 33.516 165.858 34.1597L166.64 36.0003ZM171.265 33.2119C172.681 32.0455 173.916 30.7698 174.966 29.3839L173.372 28.1761C172.422 29.4302 171.297 30.5945 169.993 31.6681L171.265 33.2119ZM174.963 29.3874C176.051 27.9648 176.899 26.5063 177.497 25.0114L175.64 24.2686C175.118 25.5737 174.367 26.8752 173.374 28.1726L174.963 29.3874ZM177.488 25.0339C178.129 23.5371 178.469 22.0826 178.469 20.68H176.469C176.469 21.7574 176.208 22.9429 175.65 24.2461L177.488 25.0339ZM178.469 20.68V16.84H176.469V20.68H178.469ZM176.613 17.3569L180.453 23.7169L182.165 22.6831L178.325 16.3231L176.613 17.3569ZM181.783 22.3195C179.636 21.1637 177.442 20.2933 175.2 19.712L174.698 21.648C176.776 22.1867 178.821 22.9963 180.835 24.0805L181.783 22.3195ZM175.2 19.712C172.969 19.1336 170.824 18.84 168.769 18.84V20.84C170.633 20.84 172.609 21.1064 174.698 21.648L175.2 19.712ZM168.769 18.84C166.752 18.84 164.609 19.134 162.342 19.7109L162.836 21.6491C164.969 21.106 166.945 20.84 168.769 20.84V18.84ZM162.338 19.712C160.094 20.2937 157.917 21.1652 155.808 22.3234L156.77 24.0766C158.741 22.9948 160.763 22.1863 162.84 21.648L162.338 19.712ZM157.145 23.7169L160.985 17.3569L159.273 16.3231L155.433 22.6831L157.145 23.7169ZM159.129 16.84V20.68H161.129V16.84H159.129ZM159.129 20.68C159.129 22.0715 159.443 23.5181 160.04 25.0114L161.897 24.2686C161.375 22.9619 161.129 21.7685 161.129 20.68H159.129ZM160.05 25.0339C160.683 26.5113 161.523 27.9573 162.563 29.3724L164.174 28.1876C163.215 26.8827 162.455 25.5687 161.888 24.2461L160.05 25.0339ZM162.572 29.3839C163.622 30.7698 164.857 32.0455 166.273 33.2119L167.545 31.6681C166.241 30.5945 165.116 29.4302 164.166 28.1761L162.572 29.3839ZM166.287 33.2231C167.717 34.3591 169.275 35.2852 170.958 36.0003L171.74 34.1597C170.223 33.5148 168.82 32.6809 167.531 31.6569L166.287 33.2231ZM170.977 36.0085C172.692 36.6945 174.458 37.04 176.269 37.04V35.04C174.719 35.04 173.205 34.7455 171.72 34.1515L170.977 36.0085ZM176.269 37.04H188.629V35.04H176.269V37.04ZM187.629 36.04V43H189.629V36.04H187.629ZM188.629 42H178.789V44H188.629V42ZM178.789 42C175.778 42 172.975 41.5178 170.374 40.5614L169.684 42.4386C172.522 43.4822 175.56 44 178.789 44V42ZM170.374 40.5614C167.739 39.5928 165.365 38.3176 163.246 36.7383L162.051 38.3417C164.333 40.0424 166.878 41.4072 169.684 42.4386L170.374 40.5614ZM163.256 36.7452C161.112 35.1082 159.27 33.3418 157.723 31.4476L156.174 32.7124C157.828 34.7382 159.786 36.6118 162.042 38.3348L163.256 36.7452ZM157.737 31.465C156.221 29.5204 155.068 27.6138 154.268 25.7461L152.43 26.5339C153.309 28.5862 154.557 30.6396 156.16 32.695L157.737 31.465ZM154.271 25.7528C153.467 23.8378 153.089 22.1516 153.089 20.68H151.089C151.089 22.4884 151.551 24.4422 152.427 26.5272L154.271 25.7528ZM153.089 20.68V17.26H151.089V20.68H153.089ZM152.576 18.1332C154.24 17.2045 156.003 16.4295 157.865 15.8087L157.233 13.9113C155.255 14.5705 153.378 15.3955 151.601 16.3868L152.576 18.1332ZM157.859 15.8106C159.774 15.1853 161.666 14.7177 163.533 14.4064L163.204 12.4336C161.232 12.7623 159.243 13.2547 157.238 13.9094L157.859 15.8106ZM163.549 14.4035C165.462 14.0522 167.201 13.88 168.769 13.88V11.88C167.057 11.88 165.196 12.0677 163.188 12.4365L163.549 14.4035ZM168.769 13.88C170.378 13.88 172.116 14.0525 173.985 14.4029L174.353 12.4371C172.382 12.0675 170.52 11.88 168.769 11.88V13.88ZM174.004 14.4064C175.871 14.7175 177.74 15.1845 179.613 15.8087L180.245 13.9113C178.277 13.2555 176.307 12.7625 174.333 12.4336L174.004 14.4064ZM179.618 15.8106C181.52 16.4315 183.3 17.2061 184.961 18.1332L185.936 16.3868C184.157 15.3939 182.258 14.5685 180.239 13.9094L179.618 15.8106ZM184.449 17.26V20.68H186.449V17.26H184.449ZM184.449 20.68C184.449 22.1516 184.071 23.8378 183.267 25.7528L185.111 26.5272C185.987 24.4422 186.449 22.4884 186.449 20.68H184.449ZM183.27 25.7461C182.471 27.6086 181.303 29.512 179.748 31.4553L181.31 32.7047C182.955 30.648 184.226 28.5914 185.108 26.5339L183.27 25.7461ZM179.746 31.4573C178.243 33.3466 176.423 35.11 174.282 36.7452L175.496 38.3348C177.754 36.61 179.695 34.7334 181.311 32.7027L179.746 31.4573ZM174.291 36.7383C172.173 38.3176 169.798 39.5928 167.164 40.5614L167.854 42.4386C170.659 41.4072 173.205 40.0424 175.486 38.3417L174.291 36.7383ZM167.164 40.5614C164.562 41.5178 161.76 42 158.749 42V44C161.978 44 165.015 43.4822 167.854 42.4386L167.164 40.5614ZM158.749 42H148.549V44H158.749V42ZM148.549 42C148.539 42 148.577 41.9984 148.64 42.0262C148.708 42.0566 148.768 42.1057 148.809 42.16L147.209 43.36C147.556 43.8235 148.065 44 148.549 44V42ZM148.716 42.0529C148.706 42.0427 148.657 41.9876 148.61 41.8253L146.687 42.3747C146.801 42.7724 146.992 43.1573 147.302 43.4671L148.716 42.0529ZM148.585 41.7489C148.504 41.533 148.439 41.2449 148.405 40.8695L146.413 41.0505C146.459 41.5551 146.553 42.027 146.712 42.4511L148.585 41.7489ZM148.405 40.8695C148.368 40.4643 148.349 40.0149 148.349 39.52H146.349C146.349 40.0651 146.37 40.5757 146.413 41.0505L148.405 40.8695ZM148.349 39.52C148.349 38.8316 148.387 38.291 148.455 37.8844L146.482 37.5556C146.39 38.109 146.349 38.7684 146.349 39.52H148.349ZM148.457 37.8721C148.525 37.4324 148.629 37.2041 148.703 37.1012L147.075 35.9388C146.749 36.3959 146.573 36.9676 146.48 37.5679L148.457 37.8721ZM148.783 36.9672C148.813 36.907 148.816 36.9295 148.762 36.9687C148.734 36.9891 148.698 37.0088 148.655 37.0224C148.612 37.036 148.575 37.04 148.549 37.04V35.04C147.779 35.04 147.268 35.5258 146.994 36.0728L148.783 36.9672ZM147.549 36.04V43H149.549V36.04H147.549ZM189.629 43V36.04H187.629V43H189.629ZM188.629 37.04C188.636 37.04 188.618 37.0408 188.587 37.0285C188.555 37.0157 188.533 36.9979 188.522 36.9871L189.936 35.5729C189.576 35.2131 189.116 35.04 188.629 35.04V37.04ZM188.522 36.9871C188.508 36.9732 188.564 37.0228 188.619 37.2425L190.559 36.7575C190.454 36.3372 190.27 35.9068 189.936 35.5729L188.522 36.9871ZM188.619 37.2425C188.683 37.4991 188.736 37.8258 188.773 38.2305L190.765 38.0495C190.722 37.5742 190.655 37.1409 190.559 36.7575L188.619 37.2425ZM188.774 38.2395C188.81 38.5985 188.829 39.0242 188.829 39.52H190.829C190.829 38.9758 190.808 38.4815 190.764 38.0405L188.774 38.2395ZM188.829 39.52C188.829 40.0149 188.81 40.4643 188.773 40.8695L190.765 41.0505C190.808 40.5757 190.829 40.0651 190.829 39.52H188.829ZM188.773 40.8695C188.736 41.2742 188.683 41.6009 188.619 41.8575L190.559 42.3425C190.655 41.9591 190.722 41.5258 190.765 41.0505L188.773 40.8695ZM188.627 41.8253C188.581 41.9876 188.532 42.0427 188.522 42.0529L189.936 43.4671C190.246 43.1573 190.437 42.7724 190.55 42.3747L188.627 41.8253ZM188.522 42.0529C188.533 42.0421 188.555 42.0243 188.587 42.0115C188.618 41.9992 188.636 42 188.629 42V44C189.116 44 189.576 43.8269 189.936 43.4671L188.522 42.0529ZM206.147 43H205.147V44H206.147V43ZM206.147 36.04V35.04H205.147V36.04H206.147ZM213.647 36.04H214.647V35.04H213.647V36.04ZM213.647 43V44H214.647V43H213.647ZM213.647 43H212.647V44H213.647V43ZM213.647 36.04V35.04H212.647V36.04H213.647ZM214.187 36.28L214.894 35.5729V35.5729L214.187 36.28ZM214.547 37L213.577 37.2425L214.547 37ZM214.727 38.14L213.731 38.2305L213.736 38.2837L213.746 38.3361L214.727 38.14ZM214.727 40.96L213.743 40.7811L213.735 40.825L213.731 40.8695L214.727 40.96ZM214.547 42.1L215.508 42.3747L215.513 42.3587L215.517 42.3425L214.547 42.1ZM214.187 42.76L213.48 42.0529L213.43 42.1031L213.387 42.16L214.187 42.76ZM188.627 43V44H189.627V43H188.627ZM188.087 42.76L188.887 42.16L188.844 42.1031L188.794 42.0529L188.087 42.76ZM187.727 42.1L188.688 41.8253L188.677 41.7866L188.663 41.7489L187.727 42.1ZM187.547 37.72L188.533 37.8844L188.535 37.8721L187.547 37.72ZM187.967 36.52L188.781 37.1012L188.826 37.0374L188.861 36.9672L187.967 36.52ZM188.627 36.04H189.627V35.04H188.627V36.04ZM188.627 43H187.627V44H188.627V43ZM188.627 36.04V35.04H187.627V36.04H188.627ZM202.847 36.04L203.487 36.8082L205.609 35.04H202.847V36.04ZM198.167 39.94H197.167V42.075L198.807 40.7082L198.167 39.94ZM198.167 12.88V11.88H197.167V12.88H198.167ZM206.147 12.88H207.147V11.88H206.147V12.88ZM206.147 43V44H207.147V43H206.147ZM192.887 7.36H191.887V8.36H192.887V7.36ZM192.887 0.52V-0.48H191.887V0.52H192.887ZM200.627 0.52H201.627V-0.48H200.627V0.52ZM200.627 7.36V8.36H201.627V7.36H200.627ZM203.807 7.36H202.807V8.36H203.807V7.36ZM203.807 0.52V-0.48H202.807V0.52H203.807ZM211.547 0.52H212.547V-0.48H211.547V0.52ZM211.547 7.36V8.36H212.547V7.36H211.547ZM207.147 43V36.04H205.147V43H207.147ZM206.147 37.04H213.647V35.04H206.147V37.04ZM212.647 36.04V43H214.647V36.04H212.647ZM213.647 42H206.147V44H213.647V42ZM214.647 43V36.04H212.647V43H214.647ZM213.647 37.04C213.609 37.04 213.566 37.0315 213.526 37.0138C213.488 36.9971 213.474 36.9811 213.48 36.9871L214.894 35.5729C214.573 35.2522 214.148 35.04 213.647 35.04V37.04ZM213.48 36.9871C213.466 36.9732 213.522 37.0228 213.577 37.2425L215.517 36.7575C215.412 36.3372 215.228 35.9068 214.894 35.5729L213.48 36.9871ZM213.577 37.2425C213.641 37.4991 213.694 37.8258 213.731 38.2305L215.723 38.0495C215.68 37.5742 215.613 37.1409 215.517 36.7575L213.577 37.2425ZM213.746 38.3361C213.811 38.6568 213.847 39.0489 213.847 39.52H215.847C215.847 38.9511 215.803 38.4232 215.708 37.9439L213.746 38.3361ZM213.847 39.52C213.847 39.9894 213.811 40.4087 213.743 40.7811L215.711 41.1389C215.803 40.6313 215.847 40.0906 215.847 39.52H213.847ZM213.731 40.8695C213.694 41.2742 213.641 41.6009 213.577 41.8575L215.517 42.3425C215.613 41.9591 215.68 41.5258 215.723 41.0505L213.731 40.8695ZM213.585 41.8253C213.539 41.9876 213.49 42.0427 213.48 42.0529L214.894 43.4671C215.204 43.1573 215.395 42.7724 215.508 42.3747L213.585 41.8253ZM213.387 42.16C213.428 42.1057 213.487 42.0566 213.556 42.0262C213.618 41.9984 213.657 42 213.647 42V44C214.131 44 214.639 43.8235 214.987 43.36L213.387 42.16ZM188.627 42C188.617 42 188.656 41.9984 188.718 42.0262C188.786 42.0566 188.846 42.1057 188.887 42.16L187.287 43.36C187.635 43.8235 188.143 44 188.627 44V42ZM188.794 42.0529C188.784 42.0427 188.735 41.9876 188.688 41.8253L186.765 42.3747C186.879 42.7724 187.07 43.1573 187.38 43.4671L188.794 42.0529ZM188.663 41.7489C188.582 41.533 188.517 41.2449 188.483 40.8695L186.491 41.0505C186.537 41.5551 186.632 42.027 186.791 42.4511L188.663 41.7489ZM188.483 40.8695C188.446 40.4643 188.427 40.0149 188.427 39.52H186.427C186.427 40.0651 186.448 40.5757 186.491 41.0505L188.483 40.8695ZM188.427 39.52C188.427 38.8316 188.466 38.291 188.533 37.8844L186.561 37.5556C186.468 38.109 186.427 38.7684 186.427 39.52H188.427ZM188.535 37.8721C188.603 37.4324 188.707 37.2041 188.781 37.1012L187.153 35.9388C186.827 36.3959 186.651 36.9676 186.559 37.5679L188.535 37.8721ZM188.861 36.9672C188.891 36.907 188.894 36.9295 188.84 36.9687C188.812 36.9891 188.776 37.0088 188.733 37.0224C188.691 37.036 188.653 37.04 188.627 37.04V35.04C187.858 35.04 187.346 35.5258 187.073 36.0728L188.861 36.9672ZM187.627 36.04V43H189.627V36.04H187.627ZM189.627 43V36.04H187.627V43H189.627ZM188.627 37.04H202.847V35.04H188.627V37.04ZM202.207 35.2718L197.527 39.1718L198.807 40.7082L203.487 36.8082L202.207 35.2718ZM199.167 39.94V12.88H197.167V39.94H199.167ZM198.167 13.88H206.147V11.88H198.167V13.88ZM205.147 12.88V43H207.147V12.88H205.147ZM206.147 42H188.627V44H206.147V42ZM193.887 7.36V0.52H191.887V7.36H193.887ZM192.887 1.52H200.627V-0.48H192.887V1.52ZM199.627 0.52V7.36H201.627V0.52H199.627ZM200.627 6.36H192.887V8.36H200.627V6.36ZM204.807 7.36V0.52H202.807V7.36H204.807ZM203.807 1.52H211.547V-0.48H203.807V1.52ZM210.547 0.52V7.36H212.547V0.52H210.547ZM211.547 6.36H203.807V8.36H211.547V6.36ZM220.426 43H219.426V44H220.426V43ZM220.426 0.579999V-0.420001H219.426V0.579999H220.426ZM228.466 0.579999H229.466V-0.420001H228.466V0.579999ZM228.466 43V44H229.466V43H228.466ZM213.646 43H212.646V44H213.646V43ZM213.646 36.04V35.04H212.646V36.04H213.646ZM220.426 36.04H221.426V35.04H220.426V36.04ZM220.426 43V44H221.426V43H220.426ZM213.646 43V44H214.646V43H213.646ZM213.106 42.76L213.906 42.16L213.864 42.1031L213.814 42.0529L213.106 42.76ZM212.746 42.1L213.708 41.8253L213.697 41.7866L213.683 41.7489L212.746 42.1ZM212.566 37.72L213.553 37.8844L213.555 37.8721L212.566 37.72ZM212.986 36.52L213.8 37.1012L213.846 37.0374L213.881 36.9672L212.986 36.52ZM213.646 36.04H214.646V35.04H213.646V36.04ZM221.426 43V0.579999H219.426V43H221.426ZM220.426 1.58H228.466V-0.420001H220.426V1.58ZM227.466 0.579999V43H229.466V0.579999H227.466ZM228.466 42H220.426V44H228.466V42ZM214.646 43V36.04H212.646V43H214.646ZM213.646 37.04H220.426V35.04H213.646V37.04ZM219.426 36.04V43H221.426V36.04H219.426ZM220.426 42H213.646V44H220.426V42ZM213.646 42C213.637 42 213.675 41.9984 213.738 42.0262C213.806 42.0566 213.866 42.1057 213.906 42.16L212.306 43.36C212.654 43.8235 213.162 44 213.646 44V42ZM213.814 42.0529C213.803 42.0427 213.754 41.9876 213.708 41.8253L211.785 42.3747C211.899 42.7724 212.09 43.1573 212.399 43.4671L213.814 42.0529ZM213.683 41.7489C213.602 41.533 213.536 41.2449 213.502 40.8695L211.511 41.0505C211.556 41.5551 211.651 42.027 211.81 42.4511L213.683 41.7489ZM213.502 40.8695C213.466 40.4643 213.446 40.0149 213.446 39.52H211.446C211.446 40.0651 211.467 40.5757 211.511 41.0505L213.502 40.8695ZM213.446 39.52C213.446 38.8316 213.485 38.291 213.553 37.8844L211.58 37.5556C211.488 38.109 211.446 38.7684 211.446 39.52H213.446ZM213.555 37.8721C213.622 37.4324 213.727 37.2041 213.8 37.1012L212.173 35.9388C211.846 36.3959 211.67 36.9676 211.578 37.5679L213.555 37.8721ZM213.881 36.9672C213.911 36.907 213.914 36.9295 213.86 36.9687C213.832 36.9891 213.795 37.0088 213.753 37.0224C213.71 37.036 213.673 37.04 213.646 37.04V35.04C212.877 35.04 212.366 35.5258 212.092 36.0728L213.881 36.9672ZM212.646 36.04V43H214.646V36.04H212.646ZM238.089 43H237.089V44H238.089V43ZM238.089 0.579999V-0.420001H237.089V0.579999H238.089ZM246.069 0.579999H247.069V-0.420001H246.069V0.579999ZM246.069 43V44H247.069V43H246.069ZM239.089 43V0.579999H237.089V43H239.089ZM238.089 1.58H246.069V-0.420001H238.089V1.58ZM245.069 0.579999V43H247.069V0.579999H245.069ZM246.069 42H238.089V44H246.069V42ZM278.484 43H277.484V44H278.484V43ZM278.484 36.04V35.04H277.484V36.04H278.484ZM286.224 36.04H287.224V35.04H286.224V36.04ZM286.224 43V44H287.224V43H286.224ZM265.164 57.82L265.231 56.8222L265.164 57.82ZM263.304 57.64L262.305 57.5962L262.265 58.5179L263.18 58.6323L263.304 57.64ZM263.604 50.8L263.667 49.8019L262.65 49.7384L262.605 50.7562L263.604 50.8ZM265.404 50.92L265.333 51.9175L265.338 51.9178L265.404 50.92ZM270.444 49.12L269.654 48.5078L269.647 48.5159L269.641 48.5242L270.444 49.12ZM271.884 12.88V11.88H270.884V12.88H271.884ZM279.924 12.88H280.924V11.88H279.924V12.88ZM278.244 51.16L277.36 50.6929L277.357 50.6995L277.353 50.7061L278.244 51.16ZM273.684 56.08L273.175 55.2194L273.169 55.2232L273.162 55.2271L273.684 56.08ZM286.224 43H285.224V44H286.224V43ZM286.224 36.04V35.04H285.224V36.04H286.224ZM286.764 36.28L285.964 36.88L286.007 36.9369L286.057 36.9871L286.764 36.28ZM287.124 37L286.154 37.2425L286.168 37.2978L286.188 37.3511L287.124 37ZM287.364 38.14L286.369 38.2305L286.369 38.2395L287.364 38.14ZM287.364 40.96L288.36 41.0505V41.0505L287.364 40.96ZM287.124 42.1L286.188 41.7489L286.174 41.7866L286.163 41.8253L287.124 42.1ZM286.764 42.76L286.057 42.0529L286.007 42.1031L285.964 42.16L286.764 42.76ZM279.484 43V36.04H277.484V43H279.484ZM278.484 37.04H286.224V35.04H278.484V37.04ZM285.224 36.04V43H287.224V36.04H285.224ZM286.224 42H278.484V44H286.224V42ZM266.844 56.88C266.35 56.88 265.812 56.861 265.231 56.8222L265.098 58.8178C265.717 58.859 266.299 58.88 266.844 58.88V56.88ZM265.231 56.8222C264.652 56.7836 264.051 56.7255 263.428 56.6477L263.18 58.6323C263.838 58.7145 264.477 58.7764 265.098 58.8178L265.231 56.8222ZM264.303 57.6838L264.603 50.8438L262.605 50.7562L262.305 57.5962L264.303 57.6838ZM263.542 51.798C264.18 51.8379 264.777 51.8777 265.333 51.9175L265.476 49.9225C264.912 49.8823 264.309 49.8421 263.667 49.8019L263.542 51.798ZM265.338 51.9178C265.941 51.958 266.409 51.98 266.724 51.98V49.98C266.48 49.98 266.068 49.962 265.471 49.9222L265.338 51.9178ZM266.724 51.98C268.597 51.98 270.137 51.2132 271.248 49.7159L269.641 48.5242C268.912 49.5068 267.972 49.98 266.724 49.98V51.98ZM271.235 49.7322C272.378 48.2558 272.884 46.2693 272.884 43.9H270.884C270.884 46.0107 270.431 47.5042 269.654 48.5078L271.235 49.7322ZM272.884 43.9V12.88H270.884V43.9H272.884ZM271.884 13.88H279.924V11.88H271.884V13.88ZM278.924 12.88V43.9H280.924V12.88H278.924ZM278.924 43.9C278.924 46.4793 278.395 48.7352 277.36 50.6929L279.129 51.6271C280.334 49.3448 280.924 46.7607 280.924 43.9H278.924ZM277.353 50.7061C276.355 52.665 274.964 54.1605 273.175 55.2194L274.194 56.9406C276.324 55.6795 277.973 53.895 279.135 51.6139L277.353 50.7061ZM273.162 55.2271C271.379 56.3188 269.285 56.88 266.844 56.88V58.88C269.604 58.88 272.07 58.2412 274.207 56.9329L273.162 55.2271ZM287.224 43V36.04H285.224V43H287.224ZM286.224 37.04C286.234 37.04 286.196 37.0416 286.133 37.0138C286.065 36.9834 286.005 36.9343 285.964 36.88L287.564 35.68C287.217 35.2165 286.708 35.04 286.224 35.04V37.04ZM286.057 36.9871C286.043 36.9732 286.099 37.0228 286.154 37.2425L288.095 36.7575C287.99 36.3372 287.805 35.9068 287.472 35.5729L286.057 36.9871ZM286.188 37.3511C286.269 37.567 286.334 37.8551 286.369 38.2305L288.36 38.0495C288.314 37.5449 288.22 37.073 288.061 36.6489L286.188 37.3511ZM286.369 38.2395C286.405 38.5985 286.424 39.0242 286.424 39.52H288.424C288.424 38.9758 288.404 38.4815 288.359 38.0405L286.369 38.2395ZM286.424 39.52C286.424 40.0149 286.405 40.4643 286.369 40.8695L288.36 41.0505C288.404 40.5757 288.424 40.0651 288.424 39.52H286.424ZM286.369 40.8695C286.334 41.2449 286.269 41.533 286.188 41.7489L288.061 42.4511C288.22 42.027 288.314 41.5551 288.36 41.0505L286.369 40.8695ZM286.163 41.8253C286.117 41.9876 286.068 42.0427 286.057 42.0529L287.472 43.4671C287.781 43.1573 287.972 42.7724 288.086 42.3747L286.163 41.8253ZM285.964 42.16C286.005 42.1057 286.065 42.0566 286.133 42.0262C286.196 41.9984 286.234 42 286.224 42V44C286.708 44 287.217 43.8235 287.564 43.36L285.964 42.16ZM286.244 43H285.244V44H286.244V43ZM286.244 36.04V35.04H285.244V36.04H286.244ZM300.464 36.04L301.104 36.8082L303.226 35.04H300.464V36.04ZM295.784 39.94H294.784V42.075L296.424 40.7082L295.784 39.94ZM295.784 12.88V11.88H294.784V12.88H295.784ZM303.764 12.88H304.764V11.88H303.764V12.88ZM303.764 43V44H304.764V43H303.764ZM286.244 43V44H287.244V43H286.244ZM285.704 42.76L286.504 42.16L286.461 42.1031L286.411 42.0529L285.704 42.76ZM285.344 42.1L286.306 41.8253L286.295 41.7866L286.28 41.7489L285.344 42.1ZM285.164 37.72L286.151 37.8844L286.153 37.8721L285.164 37.72ZM285.584 36.52L286.398 37.1012L286.443 37.0374L286.479 36.9672L285.584 36.52ZM286.244 36.04H287.244V35.04H286.244V36.04ZM290.504 7.36H289.504V8.36H290.504V7.36ZM290.504 0.52V-0.48H289.504V0.52H290.504ZM298.244 0.52H299.244V-0.48H298.244V0.52ZM298.244 7.36V8.36H299.244V7.36H298.244ZM301.424 7.36H300.424V8.36H301.424V7.36ZM301.424 0.52V-0.48H300.424V0.52H301.424ZM309.164 0.52H310.164V-0.48H309.164V0.52ZM309.164 7.36V8.36H310.164V7.36H309.164ZM287.244 43V36.04H285.244V43H287.244ZM286.244 37.04H300.464V35.04H286.244V37.04ZM299.824 35.2718L295.144 39.1718L296.424 40.7082L301.104 36.8082L299.824 35.2718ZM296.784 39.94V12.88H294.784V39.94H296.784ZM295.784 13.88H303.764V11.88H295.784V13.88ZM302.764 12.88V43H304.764V12.88H302.764ZM303.764 42H286.244V44H303.764V42ZM286.244 42C286.234 42 286.273 41.9984 286.335 42.0262C286.404 42.0566 286.463 42.1057 286.504 42.16L284.904 43.36C285.252 43.8235 285.76 44 286.244 44V42ZM286.411 42.0529C286.401 42.0427 286.352 41.9876 286.306 41.8253L284.383 42.3747C284.496 42.7724 284.687 43.1573 284.997 43.4671L286.411 42.0529ZM286.28 41.7489C286.2 41.533 286.134 41.2449 286.1 40.8695L284.108 41.0505C284.154 41.5551 284.249 42.027 284.408 42.4511L286.28 41.7489ZM286.1 40.8695C286.063 40.4643 286.044 40.0149 286.044 39.52H284.044C284.044 40.0651 284.065 40.5757 284.108 41.0505L286.1 40.8695ZM286.044 39.52C286.044 38.8316 286.083 38.291 286.151 37.8844L284.178 37.5556C284.086 38.109 284.044 38.7684 284.044 39.52H286.044ZM286.153 37.8721C286.22 37.4324 286.324 37.2041 286.398 37.1012L284.77 35.9388C284.444 36.3959 284.268 36.9676 284.176 37.5679L286.153 37.8721ZM286.479 36.9672C286.509 36.907 286.511 36.9295 286.457 36.9687C286.429 36.9891 286.393 37.0088 286.35 37.0224C286.308 37.036 286.271 37.04 286.244 37.04V35.04C285.475 35.04 284.963 35.5258 284.69 36.0728L286.479 36.9672ZM285.244 36.04V43H287.244V36.04H285.244ZM291.504 7.36V0.52H289.504V7.36H291.504ZM290.504 1.52H298.244V-0.48H290.504V1.52ZM297.244 0.52V7.36H299.244V0.52H297.244ZM298.244 6.36H290.504V8.36H298.244V6.36ZM302.424 7.36V0.52H300.424V7.36H302.424ZM301.424 1.52H309.164V-0.48H301.424V1.52ZM308.164 0.52V7.36H310.164V0.52H308.164ZM309.164 6.36H301.424V8.36H309.164V6.36ZM321.538 43H320.538V44H321.538V43ZM321.538 36.04V35.04H320.538V36.04H321.538ZM328.378 36.04H329.378V35.04H328.378V36.04ZM328.378 43V44H329.378V43H328.378ZM313.558 43H312.558V44H313.558V43ZM313.558 0.579999V-0.420001H312.558V0.579999H313.558ZM321.538 0.579999H322.538V-0.420001H321.538V0.579999ZM321.538 43V44H322.538V43H321.538ZM328.378 43H327.378V44H328.378V43ZM328.378 36.04V35.04H327.378V36.04H328.378ZM328.918 36.28L328.118 36.88L328.161 36.9369L328.211 36.9871L328.918 36.28ZM329.278 37L328.308 37.2425L328.322 37.2978L328.342 37.3511L329.278 37ZM329.518 38.14L328.522 38.2305L328.523 38.2395L329.518 38.14ZM329.518 40.96L328.522 40.8695V40.8695L329.518 40.96ZM329.278 42.1L328.342 41.7489L328.328 41.7866L328.317 41.8253L329.278 42.1ZM328.918 42.76L328.211 42.0529L328.161 42.1031L328.118 42.16L328.918 42.76ZM322.538 43V36.04H320.538V43H322.538ZM321.538 37.04H328.378V35.04H321.538V37.04ZM327.378 36.04V43H329.378V36.04H327.378ZM328.378 42H321.538V44H328.378V42ZM314.558 43V0.579999H312.558V43H314.558ZM313.558 1.58H321.538V-0.420001H313.558V1.58ZM320.538 0.579999V43H322.538V0.579999H320.538ZM321.538 42H313.558V44H321.538V42ZM329.378 43V36.04H327.378V43H329.378ZM328.378 37.04C328.388 37.04 328.35 37.0416 328.287 37.0138C328.219 36.9834 328.159 36.9343 328.118 36.88L329.718 35.68C329.371 35.2165 328.862 35.04 328.378 35.04V37.04ZM328.211 36.9871C328.197 36.9732 328.253 37.0228 328.308 37.2425L330.248 36.7575C330.143 36.3372 329.959 35.9068 329.625 35.5729L328.211 36.9871ZM328.342 37.3511C328.423 37.567 328.488 37.8551 328.522 38.2305L330.514 38.0495C330.468 37.5449 330.374 37.073 330.215 36.6489L328.342 37.3511ZM328.523 38.2395C328.559 38.5985 328.578 39.0242 328.578 39.52H330.578C330.578 38.9758 330.557 38.4815 330.513 38.0405L328.523 38.2395ZM328.578 39.52C328.578 40.0149 328.559 40.4643 328.522 40.8695L330.514 41.0505C330.557 40.5757 330.578 40.0651 330.578 39.52H328.578ZM328.522 40.8695C328.488 41.2449 328.423 41.533 328.342 41.7489L330.215 42.4511C330.374 42.027 330.468 41.5551 330.514 41.0505L328.522 40.8695ZM328.317 41.8253C328.27 41.9876 328.221 42.0427 328.211 42.0529L329.625 43.4671C329.935 43.1573 330.126 42.7724 330.24 42.3747L328.317 41.8253ZM328.118 42.16C328.159 42.1057 328.219 42.0566 328.287 42.0262C328.35 41.9984 328.388 42 328.378 42V44C328.862 44 329.371 43.8235 329.718 43.36L328.118 42.16ZM342.713 43H341.713V44H342.713V43ZM342.713 36.04V35.04H341.713V36.04H342.713ZM349.013 36.04H350.013V35.04H349.013V36.04ZM349.013 43V44H350.013V43H349.013ZM328.373 43V44H329.373V43H328.373ZM327.833 42.76L328.633 42.16L328.59 42.1031L328.54 42.0529L327.833 42.76ZM327.473 42.1L328.435 41.8253L328.424 41.7866L328.409 41.7489L327.473 42.1ZM327.293 37.72L328.28 37.8844L328.281 37.8721L327.293 37.72ZM327.713 36.52L328.527 37.1012L328.572 37.0374L328.607 36.9672L327.713 36.52ZM328.373 36.04H329.373V35.04H328.373V36.04ZM328.373 43H327.373V44H328.373V43ZM328.373 36.04V35.04H327.373V36.04H328.373ZM339.353 36.04L339.993 36.8082L342.115 35.04H339.353V36.04ZM334.673 39.94H333.673V42.075L335.313 40.7082L334.673 39.94ZM334.673 12.88V11.88H333.673V12.88H334.673ZM342.713 12.88H343.713V11.88H342.713V12.88ZM342.713 43V44H343.713V43H342.713ZM349.013 43H348.013V44H349.013V43ZM349.013 36.04V35.04H348.013V36.04H349.013ZM349.613 36.28L348.906 36.9871L349.613 36.28ZM349.973 37L349.003 37.2425L349.973 37ZM350.153 38.14L349.157 38.2305L349.158 38.2395L350.153 38.14ZM350.153 40.96L349.157 40.8695V40.8695L350.153 40.96ZM349.973 42.1L350.935 42.3747L350.939 42.3587L350.943 42.3425L349.973 42.1ZM349.613 42.76L348.906 42.0529V42.0529L349.613 42.76ZM334.673 7.36H333.673V8.36H334.673V7.36ZM334.673 0.52V-0.48H333.673V0.52H334.673ZM342.713 0.52H343.713V-0.48H342.713V0.52ZM342.713 7.36V8.36H343.713V7.36H342.713ZM343.713 43V36.04H341.713V43H343.713ZM342.713 37.04H349.013V35.04H342.713V37.04ZM348.013 36.04V43H350.013V36.04H348.013ZM349.013 42H342.713V44H349.013V42ZM328.373 42C328.363 42 328.402 41.9984 328.464 42.0262C328.533 42.0566 328.592 42.1057 328.633 42.16L327.033 43.36C327.381 43.8235 327.889 44 328.373 44V42ZM328.54 42.0529C328.53 42.0427 328.481 41.9876 328.435 41.8253L326.512 42.3747C326.625 42.7724 326.816 43.1573 327.126 43.4671L328.54 42.0529ZM328.409 41.7489C328.328 41.533 328.263 41.2449 328.229 40.8695L326.237 41.0505C326.283 41.5551 326.378 42.027 326.537 42.4511L328.409 41.7489ZM328.229 40.8695C328.192 40.4643 328.173 40.0149 328.173 39.52H326.173C326.173 40.0651 326.194 40.5757 326.237 41.0505L328.229 40.8695ZM328.173 39.52C328.173 38.8316 328.212 38.291 328.279 37.8844L326.307 37.5556C326.214 38.109 326.173 38.7684 326.173 39.52H328.173ZM328.281 37.8721C328.349 37.4324 328.453 37.2041 328.527 37.1012L326.899 35.9388C326.573 36.3959 326.397 36.9676 326.305 37.5679L328.281 37.8721ZM328.607 36.9672C328.638 36.907 328.64 36.9295 328.586 36.9687C328.558 36.9891 328.522 37.0088 328.479 37.0224C328.437 37.036 328.4 37.04 328.373 37.04V35.04C327.604 35.04 327.092 35.5258 326.819 36.0728L328.607 36.9672ZM327.373 36.04V43H329.373V36.04H327.373ZM329.373 43V36.04H327.373V43H329.373ZM328.373 37.04H339.353V35.04H328.373V37.04ZM338.713 35.2718L334.033 39.1718L335.313 40.7082L339.993 36.8082L338.713 35.2718ZM335.673 39.94V12.88H333.673V39.94H335.673ZM334.673 13.88H342.713V11.88H334.673V13.88ZM341.713 12.88V43H343.713V12.88H341.713ZM342.713 42H328.373V44H342.713V42ZM350.013 43V36.04H348.013V43H350.013ZM349.013 37.04C349.02 37.04 349.003 37.0408 348.972 37.0285C348.94 37.0157 348.917 36.9979 348.906 36.9871L350.32 35.5729C349.96 35.2131 349.5 35.04 349.013 35.04V37.04ZM348.906 36.9871C348.892 36.9732 348.948 37.0228 349.003 37.2425L350.943 36.7575C350.838 36.3372 350.654 35.9068 350.32 35.5729L348.906 36.9871ZM349.003 37.2425C349.067 37.4991 349.12 37.8258 349.157 38.2305L351.149 38.0495C351.106 37.5742 351.039 37.1409 350.943 36.7575L349.003 37.2425ZM349.158 38.2395C349.194 38.5985 349.213 39.0242 349.213 39.52H351.213C351.213 38.9758 351.192 38.4815 351.148 38.0405L349.158 38.2395ZM349.213 39.52C349.213 40.0149 349.194 40.4643 349.157 40.8695L351.149 41.0505C351.192 40.5757 351.213 40.0651 351.213 39.52H349.213ZM349.157 40.8695C349.12 41.2742 349.067 41.6009 349.003 41.8575L350.943 42.3425C351.039 41.9591 351.106 41.5258 351.149 41.0505L349.157 40.8695ZM349.012 41.8253C348.965 41.9876 348.916 42.0427 348.906 42.0529L350.32 43.4671C350.63 43.1573 350.821 42.7724 350.935 42.3747L349.012 41.8253ZM348.906 42.0529C348.917 42.0421 348.94 42.0243 348.972 42.0115C349.003 41.9992 349.02 42 349.013 42V44C349.5 44 349.96 43.8269 350.32 43.4671L348.906 42.0529ZM335.673 7.36V0.52H333.673V7.36H335.673ZM334.673 1.52H342.713V-0.48H334.673V1.52ZM341.713 0.52V7.36H343.713V0.52H341.713ZM342.713 6.36H334.673V8.36H342.713V6.36ZM399.338 43H398.338V44H399.338V43ZM399.338 36.04V35.04H398.338V36.04H399.338ZM405.698 36.04H406.698V35.04H405.698V36.04ZM405.698 43V44H406.698V43H405.698ZM348.998 43V44H349.998V43H348.998ZM348.458 42.76L349.258 42.16L349.215 42.1031L349.165 42.0529L348.458 42.76ZM348.098 42.1L349.06 41.8253L349.049 41.7866L349.034 41.7489L348.098 42.1ZM347.918 37.72L348.905 37.8844L348.906 37.8721L347.918 37.72ZM348.338 36.52L349.152 37.1012L349.197 37.0374L349.232 36.9672L348.338 36.52ZM348.998 36.04H349.998V35.04H348.998V36.04ZM379.358 42.1L378.987 43.0285L379 43.034L379.014 43.0391L379.358 42.1ZM374.918 39.28L374.198 38.5857L373.484 39.326L374.244 40.019L374.918 39.28ZM379.838 34.18L380.463 33.3991L379.751 32.8298L379.118 33.4857L379.838 34.18ZM382.058 35.62L381.632 36.5248L381.663 36.5395L381.696 36.552L382.058 35.62ZM395.498 36.04L396.172 36.7785L398.076 35.04H395.498V36.04ZM391.358 39.82H390.358V42.0872L392.032 40.5585L391.358 39.82ZM391.118 23.62L390.122 23.7105L390.124 23.7273L390.126 23.744L391.118 23.62ZM390.518 19.18L389.528 19.3214L389.53 19.3349L389.532 19.3483L390.518 19.18ZM389.618 14.08L389.468 13.0913L388.423 13.2497L388.639 14.2849L389.618 14.08ZM397.538 12.88L398.52 12.6891L398.337 11.7476L397.388 11.8913L397.538 12.88ZM398.318 17.74L397.327 17.8722L397.328 17.8847L397.33 17.8971L398.318 17.74ZM399.038 22.78L398.046 22.904L398.046 22.9072L399.038 22.78ZM399.338 43V44H400.338V43H399.338ZM348.998 43H347.998V44H348.998V43ZM348.998 36.04V35.04H347.998V36.04H348.998ZM357.758 36.04L358.477 36.7354L360.117 35.04H357.758V36.04ZM355.958 37.9H354.958V40.3713L356.677 38.5954L355.958 37.9ZM355.958 19V18H354.958V19H355.958ZM363.998 19H364.998V18H363.998V19ZM363.998 43V44H364.998V43H363.998ZM363.998 43H362.998V44H363.998V43ZM363.998 36.04V35.04H362.998V36.04H363.998ZM371.798 35.5L372.266 36.3838L372.286 36.3733L372.305 36.3619L371.798 35.5ZM373.178 33.16L372.204 32.9328L372.201 32.945L372.199 32.9574L373.178 33.16ZM373.598 16V15H372.598V16H373.598ZM381.638 16H382.638V15H381.638V16ZM380.258 36.52L379.333 36.1401L379.33 36.1472L379.327 36.1543L380.258 36.52ZM405.698 43H404.698V44H405.698V43ZM405.698 36.04V35.04H404.698V36.04H405.698ZM406.598 37L405.628 37.2425V37.2425L406.598 37ZM406.778 38.14L405.782 38.2305L405.787 38.2837L405.797 38.3361L406.778 38.14ZM406.778 40.96L405.794 40.7811L405.786 40.825L405.782 40.8695L406.778 40.96ZM406.598 42.1L407.56 42.3747L407.564 42.3587L407.568 42.3425L406.598 42.1ZM406.238 42.76L405.531 42.0529L406.238 42.76ZM400.338 43V36.04H398.338V43H400.338ZM399.338 37.04H405.698V35.04H399.338V37.04ZM404.698 36.04V43H406.698V36.04H404.698ZM405.698 42H399.338V44H405.698V42ZM348.998 42C348.988 42 349.027 41.9984 349.089 42.0262C349.158 42.0566 349.217 42.1057 349.258 42.16L347.658 43.36C348.006 43.8235 348.514 44 348.998 44V42ZM349.165 42.0529C349.155 42.0427 349.106 41.9876 349.06 41.8253L347.137 42.3747C347.25 42.7724 347.441 43.1573 347.751 43.4671L349.165 42.0529ZM349.034 41.7489C348.953 41.533 348.888 41.2449 348.854 40.8695L346.862 41.0505C346.908 41.5551 347.003 42.027 347.162 42.4511L349.034 41.7489ZM348.854 40.8695C348.817 40.4643 348.798 40.0149 348.798 39.52H346.798C346.798 40.0651 346.819 40.5757 346.862 41.0505L348.854 40.8695ZM348.798 39.52C348.798 38.8316 348.837 38.291 348.904 37.8844L346.932 37.5556C346.839 38.109 346.798 38.7684 346.798 39.52H348.798ZM348.906 37.8721C348.974 37.4324 349.078 37.2041 349.152 37.1012L347.524 35.9388C347.198 36.3959 347.022 36.9676 346.93 37.5679L348.906 37.8721ZM349.232 36.9672C349.263 36.907 349.265 36.9295 349.211 36.9687C349.183 36.9891 349.147 37.0088 349.104 37.0224C349.062 37.036 349.025 37.04 348.998 37.04V35.04C348.229 35.04 347.717 35.5258 347.444 36.0728L349.232 36.9672ZM347.998 36.04V43H349.998V36.04H347.998ZM384.278 42C382.763 42 381.239 41.7232 379.702 41.1609L379.014 43.0391C380.757 43.6768 382.513 44 384.278 44V42ZM379.729 41.1715C378.248 40.579 376.869 39.7058 375.592 38.541L374.244 40.019C375.687 41.3342 377.268 42.341 378.987 43.0285L379.729 41.1715ZM375.638 39.9743L380.558 34.8743L379.118 33.4857L374.198 38.5857L375.638 39.9743ZM379.213 34.9609C380.054 35.6335 380.861 36.1619 381.632 36.5248L382.484 34.7152C381.895 34.4381 381.222 34.0065 380.463 33.3991L379.213 34.9609ZM381.696 36.552C382.529 36.8762 383.392 37.04 384.278 37.04V35.04C383.644 35.04 383.027 34.9238 382.421 34.688L381.696 36.552ZM384.278 37.04H395.498V35.04H384.278V37.04ZM394.824 35.3015L390.684 39.0815L392.032 40.5585L396.172 36.7785L394.824 35.3015ZM392.358 39.82V26.5H390.358V39.82H392.358ZM392.358 26.5C392.358 25.7952 392.271 24.7846 392.11 23.496L390.126 23.744C390.285 25.0154 390.358 25.9248 390.358 26.5H392.358ZM392.114 23.5295C391.991 22.1779 391.787 20.6713 391.504 19.0117L389.532 19.3483C389.809 20.9687 390.005 22.4221 390.122 23.7105L392.114 23.5295ZM391.508 19.0386C391.265 17.3366 390.961 15.6154 390.597 13.8751L388.639 14.2849C388.995 15.9846 389.291 17.6634 389.528 19.3214L391.508 19.0386ZM389.768 15.0687L397.688 13.8687L397.388 11.8913L389.468 13.0913L389.768 15.0687ZM396.556 13.0709C396.832 14.4875 397.089 16.0874 397.327 17.8722L399.309 17.6078C399.067 15.7926 398.804 14.1525 398.52 12.6891L396.556 13.0709ZM397.33 17.8971C397.609 19.6472 397.847 21.3162 398.046 22.904L400.03 22.656C399.829 21.0438 399.587 19.3528 399.306 17.5829L397.33 17.8971ZM398.046 22.9072C398.244 24.45 398.338 25.6419 398.338 26.5H400.338C400.338 25.5181 400.232 24.23 400.03 22.6528L398.046 22.9072ZM398.338 26.5V43H400.338V26.5H398.338ZM399.338 42H384.278V44H399.338V42ZM349.998 43V36.04H347.998V43H349.998ZM348.998 37.04H357.758V35.04H348.998V37.04ZM357.039 35.3446L355.239 37.2046L356.677 38.5954L358.477 36.7354L357.039 35.3446ZM356.958 37.9V19H354.958V37.9H356.958ZM355.958 20H363.998V18H355.958V20ZM362.998 19V43H364.998V19H362.998ZM363.998 42H348.998V44H363.998V42ZM364.998 43V36.04H362.998V43H364.998ZM363.998 37.04H368.858V35.04H363.998V37.04ZM368.858 37.04C370.206 37.04 371.376 36.8549 372.266 36.3838L371.33 34.6162C370.86 34.8651 370.07 35.04 368.858 35.04V37.04ZM372.305 36.3619C373.329 35.7598 373.889 34.66 374.157 33.3626L372.199 32.9574C371.987 33.98 371.627 34.4402 371.291 34.6381L372.305 36.3619ZM374.152 33.3872C374.459 32.0729 374.598 30.2004 374.598 27.82H372.598C372.598 30.1596 372.458 31.8471 372.204 32.9328L374.152 33.3872ZM374.598 27.82V16H372.598V27.82H374.598ZM373.598 17H381.638V15H373.598V17ZM380.638 16V27.82H382.638V16H380.638ZM380.638 27.82C380.638 31.3055 380.186 34.0633 379.333 36.1401L381.183 36.8999C382.17 34.4967 382.638 31.4544 382.638 27.82H380.638ZM379.327 36.1543C378.522 38.2054 377.286 39.6512 375.634 40.565L376.602 42.315C378.71 41.1488 380.235 39.3146 381.189 36.8857L379.327 36.1543ZM375.634 40.565C373.948 41.4979 371.71 42 368.858 42V44C371.926 44 374.528 43.4621 376.602 42.315L375.634 40.565ZM368.858 42H363.998V44H368.858V42ZM406.698 43V36.04H404.698V43H406.698ZM405.698 37.04C405.66 37.04 405.617 37.0315 405.577 37.0138C405.539 36.9971 405.525 36.9811 405.531 36.9871L406.945 35.5729C406.624 35.2522 406.199 35.04 405.698 35.04V37.04ZM405.531 36.9871C405.517 36.9732 405.573 37.0228 405.628 37.2425L407.568 36.7575C407.463 36.3372 407.279 35.9068 406.945 35.5729L405.531 36.9871ZM405.628 37.2425C405.692 37.4991 405.745 37.8258 405.782 38.2305L407.774 38.0495C407.731 37.5742 407.664 37.1409 407.568 36.7575L405.628 37.2425ZM405.797 38.3361C405.862 38.6568 405.898 39.0489 405.898 39.52H407.898C407.898 38.9511 407.854 38.4232 407.759 37.9439L405.797 38.3361ZM405.898 39.52C405.898 39.9894 405.862 40.4087 405.794 40.7811L407.762 41.1389C407.854 40.6313 407.898 40.0906 407.898 39.52H405.898ZM405.782 40.8695C405.745 41.2742 405.692 41.6009 405.628 41.8575L407.568 42.3425C407.664 41.9591 407.731 41.5258 407.774 41.0505L405.782 40.8695ZM405.637 41.8253C405.59 41.9876 405.541 42.0427 405.531 42.0529L406.945 43.4671C407.255 43.1573 407.446 42.7724 407.56 42.3747L405.637 41.8253ZM405.531 42.0529C405.525 42.0589 405.539 42.0429 405.577 42.0262C405.617 42.0085 405.66 42 405.698 42V44C406.199 44 406.624 43.7878 406.945 43.4671L405.531 42.0529ZM412.497 43H411.497V44H412.497V43ZM412.497 0.579999V-0.420001H411.497V0.579999H412.497ZM420.537 0.579999H421.537V-0.420001H420.537V0.579999ZM420.537 43V44H421.537V43H420.537ZM405.717 43H404.717V44H405.717V43ZM405.717 36.04V35.04H404.717V36.04H405.717ZM412.497 36.04H413.497V35.04H412.497V36.04ZM412.497 43V44H413.497V43H412.497ZM405.717 43V44H406.717V43H405.717ZM405.177 42.76L405.977 42.16L405.934 42.1031L405.884 42.0529L405.177 42.76ZM404.817 42.1L405.778 41.8253L405.767 41.7866L405.753 41.7489L404.817 42.1ZM404.637 37.72L405.623 37.8844L405.625 37.8721L404.637 37.72ZM405.057 36.52L405.871 37.1012L405.916 37.0374L405.951 36.9672L405.057 36.52ZM405.717 36.04H406.717V35.04H405.717V36.04ZM413.497 43V0.579999H411.497V43H413.497ZM412.497 1.58H420.537V-0.420001H412.497V1.58ZM419.537 0.579999V43H421.537V0.579999H419.537ZM420.537 42H412.497V44H420.537V42ZM406.717 43V36.04H404.717V43H406.717ZM405.717 37.04H412.497V35.04H405.717V37.04ZM411.497 36.04V43H413.497V36.04H411.497ZM412.497 42H405.717V44H412.497V42ZM405.717 42C405.707 42 405.745 41.9984 405.808 42.0262C405.876 42.0566 405.936 42.1057 405.977 42.16L404.377 43.36C404.724 43.8235 405.233 44 405.717 44V42ZM405.884 42.0529C405.874 42.0427 405.825 41.9876 405.778 41.8253L403.855 42.3747C403.969 42.7724 404.16 43.1573 404.47 43.4671L405.884 42.0529ZM405.753 41.7489C405.672 41.533 405.607 41.2449 405.573 40.8695L403.581 41.0505C403.627 41.5551 403.721 42.027 403.88 42.4511L405.753 41.7489ZM405.573 40.8695C405.536 40.4643 405.517 40.0149 405.517 39.52H403.517C403.517 40.0651 403.538 40.5757 403.581 41.0505L405.573 40.8695ZM405.517 39.52C405.517 38.8316 405.555 38.291 405.623 37.8844L403.65 37.5556C403.558 38.109 403.517 38.7684 403.517 39.52H405.517ZM405.625 37.8721C405.693 37.4324 405.797 37.2041 405.871 37.1012L404.243 35.9388C403.917 36.3959 403.741 36.9676 403.648 37.5679L405.625 37.8721ZM405.951 36.9672C405.981 36.907 405.984 36.9295 405.93 36.9687C405.902 36.9891 405.866 37.0088 405.823 37.0224C405.78 37.036 405.743 37.04 405.717 37.04V35.04C404.947 35.04 404.436 35.5258 404.162 36.0728L405.951 36.9672ZM404.717 36.04V43H406.717V36.04H404.717ZM430.16 43H429.16V44H430.16V43ZM430.16 0.579999V-0.420001H429.16V0.579999H430.16ZM438.14 0.579999H439.14V-0.420001H438.14V0.579999ZM438.14 43V44H439.14V43H438.14ZM431.16 43V0.579999H429.16V43H431.16ZM430.16 1.58H438.14V-0.420001H430.16V1.58ZM437.14 0.579999V43H439.14V0.579999H437.14ZM438.14 42H430.16V44H438.14V42Z" fill="#188F58" fill-opacity="0.32" mask="url(#path-1-outside-1_83_470)"/>
</svg>
