<svg width="303" height="77" viewBox="0 0 303 77" fill="none" xmlns="http://www.w3.org/2000/svg">
<mask id="path-1-outside-1_30_10" maskUnits="userSpaceOnUse" x="-1" y="-1" width="305" height="79" fill="black">
<rect fill="white" x="-1" y="-1" width="305" height="79"/>
<path d="M26.9653 57C21.2586 57 16.432 56.2533 12.4853 54.76C8.59198 53.2667 5.63198 51.0533 3.60531 48.12C1.63198 45.1867 0.645313 41.5333 0.645313 37.16C0.645313 35.88 0.725313 34.5467 0.885313 33.16C1.04531 31.72 1.23198 30.36 1.44531 29.08C1.71198 27.7467 1.95198 26.5733 2.16531 25.56C2.37865 24.5467 2.53865 23.8 2.64531 23.32L13.0453 25.32C12.8853 26.1733 12.672 27.2667 12.4053 28.6C12.1386 29.9333 11.8986 31.3467 11.6853 32.84C11.472 34.28 11.3653 35.6667 11.3653 37C11.3653 39.08 11.6853 40.8133 12.3253 42.2C13.0186 43.5867 14.032 44.7067 15.3653 45.56C16.6986 46.36 18.3786 46.92 20.4053 47.24C22.432 47.56 24.8053 47.72 27.5253 47.72H48.8853V16.84H59.6053V57H26.9653ZM17.7653 15.16V6.04H28.0853V15.16H17.7653ZM32.3253 15.16V6.04H42.6453V15.16H32.3253ZM71.6766 57V0.439999H82.3166V57H71.6766ZM126.835 57V16.84H137.555V52.92L131.315 47.72H147.555V57H126.835ZM110.035 34.12V24.76H126.835V34.12H110.035ZM92.5947 76.84C91.9014 76.84 91.1547 76.8133 90.3547 76.76C89.5547 76.7067 88.728 76.6267 87.8747 76.52L88.2747 67.4C89.128 67.4533 89.928 67.5067 90.6747 67.56C91.4747 67.6133 92.0614 67.64 92.4347 67.64C94.5147 67.64 96.168 66.8133 97.3947 65.16C98.6747 63.5067 99.3147 61.1867 99.3147 58.2V16.84H110.035V58.2C110.035 61.8267 109.288 65.0533 107.795 67.88C106.355 70.7067 104.328 72.8933 101.715 74.44C99.1014 76.04 96.0614 76.84 92.5947 76.84ZM147.555 57V47.72C147.821 47.72 148.061 47.8267 148.275 48.04C148.488 48.2533 148.648 48.5733 148.755 49C148.861 49.4267 148.941 49.9333 148.995 50.52C149.101 51.0533 149.155 51.6667 149.155 52.36C149.155 53.0533 149.101 53.6933 148.995 54.28C148.941 54.8667 148.861 55.3733 148.755 55.8C148.648 56.1733 148.488 56.4667 148.275 56.68C148.061 56.8933 147.821 57 147.555 57ZM99.3147 9.48V0.36H110.035V9.48H99.3147ZM119.875 74.04V64.92H130.195V74.04H119.875ZM134.435 74.04V64.92H144.755V74.04H134.435ZM194.803 57V47.72H203.283V57H194.803ZM147.523 57C147.203 57 146.963 56.8933 146.803 56.68C146.59 56.4667 146.43 56.1733 146.323 55.8C146.163 55.3733 146.057 54.8667 146.003 54.28C145.95 53.6933 145.923 53.0533 145.923 52.36C145.923 51.4 145.977 50.6 146.083 49.96C146.19 49.2667 146.377 48.7333 146.643 48.36C146.857 47.9333 147.15 47.72 147.523 47.72V57ZM147.523 57V47.72H189.043L184.163 51.88V37.16C184.163 34.28 183.843 32.04 183.203 30.44C182.563 28.7867 181.443 27.64 179.843 27C178.297 26.3067 176.137 25.96 173.363 25.96C171.177 25.96 169.017 26.12 166.883 26.44C164.803 26.7067 163.177 27.08 162.003 27.56L168.643 21.32C168.323 22.5467 168.003 24.0933 167.683 25.96C167.417 27.8267 167.177 29.8267 166.963 31.96C166.75 34.04 166.643 36.0933 166.643 38.12C166.643 39.9867 166.723 41.9333 166.883 43.96C167.097 45.9867 167.31 47.7733 167.523 49.32C167.79 50.8667 168.003 51.9333 168.163 52.52L158.003 55.32C157.79 54.5733 157.523 53.3467 157.203 51.64C156.883 49.9333 156.59 47.9067 156.323 45.56C156.11 43.2133 156.003 40.7333 156.003 38.12C156.003 35.4533 156.137 32.8933 156.403 30.44C156.67 27.9333 156.963 25.6933 157.283 23.72C157.657 21.6933 158.003 20.0667 158.323 18.84C159.603 18.36 161.603 17.88 164.323 17.4C167.043 16.92 170.057 16.68 173.363 16.68C178.163 16.68 182.137 17.3467 185.283 18.68C188.483 20.0133 190.857 22.1733 192.403 25.16C194.003 28.1467 194.803 32.1733 194.803 37.24V57H147.523ZM203.283 57V47.72C203.55 47.72 203.79 47.8267 204.003 48.04C204.217 48.2533 204.377 48.5733 204.483 49C204.59 49.4267 204.67 49.9333 204.723 50.52C204.83 51.0533 204.883 51.6667 204.883 52.36C204.883 53.0533 204.83 53.6933 204.723 54.28C204.67 54.8667 204.59 55.3733 204.483 55.8C204.377 56.1733 204.217 56.4667 204.003 56.68C203.79 56.8933 203.55 57 203.283 57ZM250.585 57V47.72H259.065V57H250.585ZM203.305 57C202.985 57 202.745 56.8933 202.585 56.68C202.371 56.4667 202.211 56.1733 202.105 55.8C201.945 55.3733 201.838 54.8667 201.785 54.28C201.731 53.6933 201.705 53.0533 201.705 52.36C201.705 51.4 201.758 50.6 201.865 49.96C201.971 49.2667 202.158 48.7333 202.425 48.36C202.638 47.9333 202.931 47.72 203.305 47.72V57ZM203.305 57V47.72H244.825L239.945 51.88V37.16C239.945 34.28 239.625 32.04 238.985 30.44C238.345 28.7867 237.225 27.64 235.625 27C234.078 26.3067 231.918 25.96 229.145 25.96C226.958 25.96 224.798 26.12 222.665 26.44C220.585 26.7067 218.958 27.08 217.785 27.56L224.425 21.32C224.105 22.5467 223.785 24.0933 223.465 25.96C223.198 27.8267 222.958 29.8267 222.745 31.96C222.531 34.04 222.425 36.0933 222.425 38.12C222.425 39.9867 222.505 41.9333 222.665 43.96C222.878 45.9867 223.091 47.7733 223.305 49.32C223.571 50.8667 223.785 51.9333 223.945 52.52L213.785 55.32C213.571 54.5733 213.305 53.3467 212.985 51.64C212.665 49.9333 212.371 47.9067 212.105 45.56C211.891 43.2133 211.785 40.7333 211.785 38.12C211.785 35.4533 211.918 32.8933 212.185 30.44C212.451 27.9333 212.745 25.6933 213.065 23.72C213.438 21.6933 213.785 20.0667 214.105 18.84C215.385 18.36 217.385 17.88 220.105 17.4C222.825 16.92 225.838 16.68 229.145 16.68C233.945 16.68 237.918 17.3467 241.065 18.68C244.265 20.0133 246.638 22.1733 248.185 25.16C249.785 28.1467 250.585 32.1733 250.585 37.24V57H203.305ZM259.065 57V47.72C259.331 47.72 259.571 47.8267 259.785 48.04C259.998 48.2533 260.158 48.5733 260.265 49C260.371 49.4267 260.451 49.9333 260.505 50.52C260.611 51.0533 260.665 51.6667 260.665 52.36C260.665 53.0533 260.611 53.6933 260.505 54.28C260.451 54.8667 260.371 55.3733 260.265 55.8C260.158 56.1733 259.998 56.4667 259.785 56.68C259.571 56.8933 259.331 57 259.065 57ZM268.126 57V0.439999H278.846V57H268.126ZM259.086 57V47.72H268.126V57H259.086ZM259.086 57C258.766 57 258.526 56.8933 258.366 56.68C258.153 56.4667 257.993 56.1733 257.886 55.8C257.726 55.3733 257.619 54.8667 257.566 54.28C257.513 53.6933 257.486 53.0533 257.486 52.36C257.486 51.4 257.539 50.6 257.646 49.96C257.753 49.2667 257.939 48.7333 258.206 48.36C258.419 47.9333 258.713 47.72 259.086 47.72V57ZM291.677 57V0.439999H302.317V57H291.677Z"/>
</mask>
<path d="M12.4853 54.76L12.1272 55.6937L12.1314 55.6953L12.4853 54.76ZM3.60531 48.12L2.77553 48.6782L2.78258 48.6884L3.60531 48.12ZM0.885313 33.16L1.87873 33.2746L1.8792 33.2704L0.885313 33.16ZM1.44531 29.08L0.464732 28.8839L0.46157 28.8997L0.458919 28.9156L1.44531 29.08ZM2.16531 25.56L3.14386 25.766L2.16531 25.56ZM2.64531 23.32L2.83416 22.338L1.87992 22.1545L1.66913 23.1031L2.64531 23.32ZM13.0453 25.32L14.0282 25.5043L14.2116 24.526L13.2342 24.338L13.0453 25.32ZM11.6853 32.84L12.6745 32.9865L12.6753 32.9814L11.6853 32.84ZM12.3253 42.2L11.4174 42.6191L11.4239 42.6332L11.4309 42.6472L12.3253 42.2ZM15.3653 45.56L14.8263 46.4023L14.8384 46.4101L14.8508 46.4175L15.3653 45.56ZM20.4053 47.24L20.5613 46.2522L20.4053 47.24ZM48.8853 47.72V48.72H49.8853V47.72H48.8853ZM48.8853 16.84V15.84H47.8853V16.84H48.8853ZM59.6053 16.84H60.6053V15.84H59.6053V16.84ZM59.6053 57V58H60.6053V57H59.6053ZM17.7653 15.16H16.7653V16.16H17.7653V15.16ZM17.7653 6.04V5.04H16.7653V6.04H17.7653ZM28.0853 6.04H29.0853V5.04H28.0853V6.04ZM28.0853 15.16V16.16H29.0853V15.16H28.0853ZM32.3253 15.16H31.3253V16.16H32.3253V15.16ZM32.3253 6.04V5.04H31.3253V6.04H32.3253ZM42.6453 6.04H43.6453V5.04H42.6453V6.04ZM42.6453 15.16V16.16H43.6453V15.16H42.6453ZM26.9653 56C21.3397 56 16.6407 55.2631 12.8392 53.8247L12.1314 55.6953C16.2233 57.2436 21.1776 58 26.9653 58V56ZM12.8434 53.8263C9.10551 52.3926 6.32175 50.2925 4.42804 47.5516L2.78258 48.6884C4.94221 51.8142 8.07845 54.1407 12.1272 55.6937L12.8434 53.8263ZM4.43504 47.5618C2.5965 44.8289 1.64531 41.3819 1.64531 37.16H-0.354687C-0.354687 41.6848 0.667457 45.5445 2.77559 48.6782L4.43504 47.5618ZM1.64531 37.16C1.64531 35.9216 1.72272 34.6266 1.87872 33.2746L-0.108096 33.0454C-0.272097 34.4667 -0.354687 35.8384 -0.354687 37.16H1.64531ZM1.8792 33.2704C2.03742 31.8464 2.22168 30.5046 2.43171 29.2444L0.458919 28.9156C0.242279 30.2154 0.0532079 31.5936 -0.108571 33.0496L1.8792 33.2704ZM2.42589 29.2761C2.69209 27.9451 2.9314 26.7752 3.14386 25.766L1.18676 25.354C0.972561 26.3714 0.731868 27.5482 0.464732 28.8839L2.42589 29.2761ZM3.14386 25.766C3.35707 24.7533 3.51611 24.0112 3.6215 23.5369L1.66913 23.1031C1.56118 23.5888 1.40022 24.3401 1.18676 25.354L3.14386 25.766ZM2.45647 24.302L12.8565 26.302L13.2342 24.338L2.83416 22.338L2.45647 24.302ZM12.0624 25.1357C11.9035 25.9835 11.691 27.0726 11.4247 28.4039L13.3859 28.7961C13.653 27.4608 13.8672 26.3631 14.0282 25.5043L12.0624 25.1357ZM11.4247 28.4039C11.1541 29.7572 10.911 31.1889 10.6954 32.6986L12.6753 32.9814C12.8863 31.5045 13.1232 30.1095 13.3859 28.7961L11.4247 28.4039ZM10.6961 32.6935C10.4762 34.1776 10.3653 35.6134 10.3653 37H12.3653C12.3653 35.7199 12.4677 34.3824 12.6745 32.9865L10.6961 32.6935ZM10.3653 37C10.3653 39.1753 10.6989 41.0625 11.4174 42.6191L13.2333 41.7809C12.6717 40.5642 12.3653 38.9847 12.3653 37H10.3653ZM11.4309 42.6472C12.2067 44.1987 13.3444 45.4539 14.8263 46.4023L15.9044 44.7177C14.7196 43.9595 13.8306 42.9746 13.2197 41.7528L11.4309 42.6472ZM14.8508 46.4175C16.3232 47.3009 18.1343 47.8938 20.2493 48.2278L20.5613 46.2522C18.623 45.9462 17.0741 45.4191 15.8798 44.7025L14.8508 46.4175ZM20.2493 48.2278C22.3411 48.558 24.7688 48.72 27.5253 48.72V46.72C24.8418 46.72 22.5229 46.562 20.5613 46.2522L20.2493 48.2278ZM27.5253 48.72H48.8853V46.72H27.5253V48.72ZM49.8853 47.72V16.84H47.8853V47.72H49.8853ZM48.8853 17.84H59.6053V15.84H48.8853V17.84ZM58.6053 16.84V57H60.6053V16.84H58.6053ZM59.6053 56H26.9653V58H59.6053V56ZM18.7653 15.16V6.04H16.7653V15.16H18.7653ZM17.7653 7.04H28.0853V5.04H17.7653V7.04ZM27.0853 6.04V15.16H29.0853V6.04H27.0853ZM28.0853 14.16H17.7653V16.16H28.0853V14.16ZM33.3253 15.16V6.04H31.3253V15.16H33.3253ZM32.3253 7.04H42.6453V5.04H32.3253V7.04ZM41.6453 6.04V15.16H43.6453V6.04H41.6453ZM42.6453 14.16H32.3253V16.16H42.6453V14.16ZM71.6766 57H70.6766V58H71.6766V57ZM71.6766 0.439999V-0.560001H70.6766V0.439999H71.6766ZM82.3166 0.439999H83.3166V-0.560001H82.3166V0.439999ZM82.3166 57V58H83.3166V57H82.3166ZM72.6766 57V0.439999H70.6766V57H72.6766ZM71.6766 1.44H82.3166V-0.560001H71.6766V1.44ZM81.3166 0.439999V57H83.3166V0.439999H81.3166ZM82.3166 56H71.6766V58H82.3166V56ZM126.835 57H125.835V58H126.835V57ZM126.835 16.84V15.84H125.835V16.84H126.835ZM137.555 16.84H138.555V15.84H137.555V16.84ZM137.555 52.92L136.915 53.6882L138.555 55.055V52.92H137.555ZM131.315 47.72V46.72H128.553L130.674 48.4882L131.315 47.72ZM147.555 47.72H148.555V46.72H147.555V47.72ZM147.555 57V58H148.555V57H147.555ZM110.035 34.12H109.035V35.12H110.035V34.12ZM110.035 24.76V23.76H109.035V24.76H110.035ZM126.835 24.76H127.835V23.76H126.835V24.76ZM126.835 34.12V35.12H127.835V34.12H126.835ZM90.3547 76.76L90.4212 75.7622L90.3547 76.76ZM87.8747 76.52L86.8756 76.4762L86.8352 77.3979L87.7507 77.5123L87.8747 76.52ZM88.2747 67.4L88.3371 66.4019L87.3203 66.3384L87.2757 67.3562L88.2747 67.4ZM90.6747 67.56L90.6034 68.5575L90.6082 68.5578L90.6747 67.56ZM97.3947 65.16L96.604 64.5478L96.5977 64.5559L96.5916 64.5642L97.3947 65.16ZM99.3147 16.84V15.84H98.3147V16.84H99.3147ZM110.035 16.84H111.035V15.84H110.035V16.84ZM107.795 67.88L106.91 67.4129L106.907 67.4194L106.904 67.4261L107.795 67.88ZM101.715 74.44L101.205 73.5794L101.199 73.5832L101.193 73.5872L101.715 74.44ZM147.555 57H146.555V58H147.555V57ZM147.555 47.72V46.72H146.555V47.72H147.555ZM148.755 49L147.785 49.2425V49.2425L148.755 49ZM148.995 50.52L147.999 50.6105L148.004 50.6637L148.014 50.7161L148.995 50.52ZM148.995 54.28L148.011 54.1011L148.003 54.145L147.999 54.1895L148.995 54.28ZM148.755 55.8L149.716 56.0747L149.721 56.0587L149.725 56.0425L148.755 55.8ZM99.3147 9.48H98.3147V10.48H99.3147V9.48ZM99.3147 0.360001V-0.639999H98.3147V0.360001H99.3147ZM110.035 0.360001H111.035V-0.639999H110.035V0.360001ZM110.035 9.48V10.48H111.035V9.48H110.035ZM119.875 74.04H118.875V75.04H119.875V74.04ZM119.875 64.92V63.92H118.875V64.92H119.875ZM130.195 64.92H131.195V63.92H130.195V64.92ZM130.195 74.04V75.04H131.195V74.04H130.195ZM134.435 74.04H133.435V75.04H134.435V74.04ZM134.435 64.92V63.92H133.435V64.92H134.435ZM144.755 64.92H145.755V63.92H144.755V64.92ZM144.755 74.04V75.04H145.755V74.04H144.755ZM127.835 57V16.84H125.835V57H127.835ZM126.835 17.84H137.555V15.84H126.835V17.84ZM136.555 16.84V52.92H138.555V16.84H136.555ZM138.195 52.1518L131.955 46.9518L130.674 48.4882L136.915 53.6882L138.195 52.1518ZM131.315 48.72H147.555V46.72H131.315V48.72ZM146.555 47.72V57H148.555V47.72H146.555ZM147.555 56H126.835V58H147.555V56ZM111.035 34.12V24.76H109.035V34.12H111.035ZM110.035 25.76H126.835V23.76H110.035V25.76ZM125.835 24.76V34.12H127.835V24.76H125.835ZM126.835 33.12H110.035V35.12H126.835V33.12ZM92.5947 75.84C91.9267 75.84 91.2024 75.8143 90.4212 75.7622L90.2882 77.7578C91.107 77.8124 91.8761 77.84 92.5947 77.84V75.84ZM90.4212 75.7622C89.6418 75.7103 88.8343 75.6322 87.9987 75.5277L87.7507 77.5123C88.6217 77.6212 89.4676 77.7031 90.2882 77.7578L90.4212 75.7622ZM88.8737 76.5638L89.2737 67.4438L87.2757 67.3562L86.8756 76.4762L88.8737 76.5638ZM88.2123 68.3981C89.0631 68.4512 89.8601 68.5044 90.6034 68.5575L90.7459 66.5625C89.9959 66.509 89.1929 66.4554 88.3371 66.4019L88.2123 68.3981ZM90.6082 68.5578C91.4112 68.6113 92.0259 68.64 92.4347 68.64V66.64C92.0968 66.64 91.5382 66.6153 90.7412 66.5622L90.6082 68.5578ZM92.4347 68.64C94.8274 68.64 96.7802 67.6665 98.1978 65.7558L96.5916 64.5642C95.5559 65.9601 94.202 66.64 92.4347 66.64V68.64ZM98.1854 65.7722C99.6484 63.8824 100.315 61.316 100.315 58.2H98.3147C98.3147 61.0574 97.701 63.1309 96.604 64.5478L98.1854 65.7722ZM100.315 58.2V16.84H98.3147V58.2H100.315ZM99.3147 17.84H110.035V15.84H99.3147V17.84ZM109.035 16.84V58.2H111.035V16.84H109.035ZM109.035 58.2C109.035 61.686 108.318 64.7485 106.91 67.4129L108.679 68.3471C110.258 65.3581 111.035 61.9674 111.035 58.2H109.035ZM106.904 67.4261C105.546 70.0917 103.648 72.1338 101.205 73.5794L102.224 75.3006C105.008 73.6529 107.164 71.3217 108.686 68.3339L106.904 67.4261ZM101.193 73.5872C98.7562 75.0788 95.9019 75.84 92.5947 75.84V77.84C96.2208 77.84 99.4465 77.0013 102.237 75.2929L101.193 73.5872ZM148.555 57V47.72H146.555V57H148.555ZM147.555 48.72C147.554 48.72 147.55 48.7199 147.544 48.7186C147.537 48.7172 147.532 48.7153 147.529 48.7138C147.525 48.7124 147.527 48.7126 147.533 48.717C147.539 48.7214 147.551 48.7306 147.568 48.7471L148.982 47.3329C148.608 46.9589 148.122 46.72 147.555 46.72V48.72ZM147.568 48.7471C147.607 48.7866 147.703 48.9161 147.785 49.2425L149.725 48.7575C149.593 48.2306 149.369 47.7201 148.982 47.3329L147.568 48.7471ZM147.785 49.2425C147.875 49.6058 147.949 50.0591 147.999 50.6105L149.991 50.4295C149.934 49.8076 149.847 49.2476 149.725 48.7575L147.785 49.2425ZM148.014 50.7161C148.105 51.1701 148.155 51.7155 148.155 52.36H150.155C150.155 51.6178 150.098 50.9366 149.975 50.3239L148.014 50.7161ZM148.155 52.36C148.155 53.0028 148.105 53.5821 148.011 54.1011L149.979 54.4589C150.098 53.8046 150.155 53.1039 150.155 52.36H148.155ZM147.999 54.1895C147.949 54.7409 147.875 55.1942 147.785 55.5575L149.725 56.0425C149.847 55.5524 149.934 54.9924 149.991 54.3705L147.999 54.1895ZM147.793 55.5253C147.72 55.7809 147.631 55.9094 147.568 55.9729L148.982 57.3871C149.345 57.0239 149.576 56.5657 149.716 56.0747L147.793 55.5253ZM147.568 55.9729C147.551 55.9894 147.539 55.9986 147.533 56.003C147.527 56.0074 147.525 56.0076 147.529 56.0062C147.532 56.0047 147.537 56.0028 147.544 56.0014C147.55 56.0001 147.554 56 147.555 56V58C148.122 58 148.608 57.7611 148.982 57.3871L147.568 55.9729ZM100.315 9.48V0.360001H98.3147V9.48H100.315ZM99.3147 1.36H110.035V-0.639999H99.3147V1.36ZM109.035 0.360001V9.48H111.035V0.360001H109.035ZM110.035 8.48H99.3147V10.48H110.035V8.48ZM120.875 74.04V64.92H118.875V74.04H120.875ZM119.875 65.92H130.195V63.92H119.875V65.92ZM129.195 64.92V74.04H131.195V64.92H129.195ZM130.195 73.04H119.875V75.04H130.195V73.04ZM135.435 74.04V64.92H133.435V74.04H135.435ZM134.435 65.92H144.755V63.92H134.435V65.92ZM143.755 64.92V74.04H145.755V64.92H143.755ZM144.755 73.04H134.435V75.04H144.755V73.04ZM194.803 57H193.803V58H194.803V57ZM194.803 47.72V46.72H193.803V47.72H194.803ZM203.283 47.72H204.283V46.72H203.283V47.72ZM203.283 57V58H204.283V57H203.283ZM147.523 57V58H148.523V57H147.523ZM146.803 56.68L147.603 56.08L147.561 56.0231L147.511 55.9729L146.803 56.68ZM146.323 55.8L147.285 55.5253L147.274 55.4866L147.26 55.4489L146.323 55.8ZM146.083 49.96L147.07 50.1244L147.072 50.1121L146.083 49.96ZM146.643 48.36L147.457 48.9412L147.503 48.8774L147.538 48.8072L146.643 48.36ZM147.523 47.72H148.523V46.72H147.523V47.72ZM147.523 57H146.523V58H147.523V57ZM147.523 47.72V46.72H146.523V47.72H147.523ZM189.043 47.72L189.692 48.481L191.758 46.72H189.043V47.72ZM184.163 51.88H183.163V54.0465L184.812 52.641L184.163 51.88ZM183.203 30.44L182.271 30.801L182.275 30.8114L183.203 30.44ZM179.843 27L179.434 27.9125L179.453 27.9209L179.472 27.9285L179.843 27ZM166.883 26.44L167.011 27.4319L167.021 27.4305L167.032 27.4289L166.883 26.44ZM162.003 27.56L161.319 26.8313L162.382 28.4855L162.003 27.56ZM168.643 21.32L169.611 21.5724L170.487 18.2154L167.959 20.5913L168.643 21.32ZM167.683 25.96L166.698 25.791L166.695 25.8048L166.693 25.8186L167.683 25.96ZM166.963 31.96L167.958 32.062L167.958 32.0595L166.963 31.96ZM166.883 43.96L165.887 44.0387L165.888 44.0517L165.889 44.0647L166.883 43.96ZM167.523 49.32L166.533 49.4566L166.535 49.4733L166.538 49.4899L167.523 49.32ZM168.163 52.52L168.429 53.4841L169.391 53.2191L169.128 52.2569L168.163 52.52ZM158.003 55.32L157.042 55.5947L157.314 56.5473L158.269 56.2841L158.003 55.32ZM157.203 51.64L158.186 51.4557L157.203 51.64ZM156.323 45.56L155.328 45.6505L155.329 45.6617L155.33 45.6729L156.323 45.56ZM156.403 30.44L157.398 30.5481L157.398 30.5458L156.403 30.44ZM157.283 23.72L156.3 23.5388L156.298 23.5494L156.296 23.5599L157.283 23.72ZM158.323 18.84L157.972 17.9037L157.487 18.0858L157.356 18.5876L158.323 18.84ZM164.323 17.4L164.15 16.4152L164.323 17.4ZM185.283 18.68L184.893 19.6008L184.899 19.6031L185.283 18.68ZM192.403 25.16L191.515 25.6199L191.522 25.6322L192.403 25.16ZM194.803 57V58H195.803V57H194.803ZM203.283 57H202.283V58H203.283V57ZM203.283 47.72V46.72H202.283V47.72H203.283ZM204.483 49L203.513 49.2425V49.2425L204.483 49ZM204.723 50.52L203.728 50.6105L203.732 50.6637L203.743 50.7161L204.723 50.52ZM204.723 54.28L203.74 54.1011L203.732 54.145L203.728 54.1895L204.723 54.28ZM204.483 55.8L205.445 56.0747L205.45 56.0587L205.454 56.0425L204.483 55.8ZM195.803 57V47.72H193.803V57H195.803ZM194.803 48.72H203.283V46.72H194.803V48.72ZM202.283 47.72V57H204.283V47.72H202.283ZM203.283 56H194.803V58H203.283V56ZM147.523 56C147.473 56 147.477 55.9917 147.51 56.0062C147.526 56.0134 147.545 56.0243 147.563 56.0391C147.582 56.0539 147.595 56.0687 147.603 56.08L146.003 57.28C146.391 57.7968 146.959 58 147.523 58V56ZM147.511 55.9729C147.447 55.9094 147.358 55.7809 147.285 55.5253L145.362 56.0747C145.502 56.5657 145.733 57.0239 146.096 57.3871L147.511 55.9729ZM147.26 55.4489C147.139 55.1263 147.047 54.7115 146.999 54.1895L145.008 54.3705C145.067 55.0218 145.188 55.6203 145.387 56.1511L147.26 55.4489ZM146.999 54.1895C146.949 53.6376 146.923 53.0282 146.923 52.36H144.923C144.923 53.0784 144.951 53.7491 145.008 54.3705L146.999 54.1895ZM146.923 52.36C146.923 51.4316 146.975 50.691 147.07 50.1244L145.097 49.7956C144.978 50.509 144.923 51.3684 144.923 52.36H146.923ZM147.072 50.1121C147.166 49.499 147.317 49.1375 147.457 48.9412L145.83 47.7788C145.437 48.3292 145.214 49.0343 145.095 49.8079L147.072 50.1121ZM147.538 48.8072C147.595 48.6937 147.629 48.6762 147.612 48.6887C147.602 48.6958 147.585 48.7054 147.563 48.7124C147.542 48.7193 147.527 48.72 147.523 48.72V46.72C146.661 46.72 146.076 47.2591 145.749 47.9128L147.538 48.8072ZM146.523 47.72V57H148.523V47.72H146.523ZM148.523 57V47.72H146.523V57H148.523ZM147.523 48.72H189.043V46.72H147.523V48.72ZM188.395 46.959L183.515 51.119L184.812 52.641L189.692 48.481L188.395 46.959ZM185.163 51.88V37.16H183.163V51.88H185.163ZM185.163 37.16C185.163 34.2267 184.84 31.84 184.132 30.0686L182.275 30.8114C182.846 32.24 183.163 34.3333 183.163 37.16H185.163ZM184.136 30.079C183.399 28.1753 182.081 26.8179 180.215 26.0715L179.472 27.9285C180.806 28.4621 181.728 29.3981 182.271 30.801L184.136 30.079ZM180.252 26.0875C178.521 25.3112 176.199 24.96 173.363 24.96V26.96C176.075 26.96 178.073 27.3021 179.434 27.9125L180.252 26.0875ZM173.363 24.96C171.128 24.96 168.918 25.1236 166.735 25.4511L167.032 27.4289C169.115 27.1164 171.226 26.96 173.363 26.96V24.96ZM166.756 25.4481C164.638 25.7197 162.914 26.1071 161.625 26.6344L162.382 28.4855C163.44 28.0529 164.969 27.6937 167.011 27.4319L166.756 25.4481ZM162.688 28.2887L169.328 22.0487L167.959 20.5913L161.319 26.8313L162.688 28.2887ZM167.676 21.0676C167.346 22.3316 167.021 23.9085 166.698 25.791L168.669 26.129C168.986 24.2781 169.301 22.7617 169.611 21.5724L167.676 21.0676ZM166.693 25.8186C166.425 27.7009 166.183 29.715 165.968 31.8605L167.958 32.0595C168.171 29.9383 168.409 27.9524 168.673 26.1014L166.693 25.8186ZM165.969 31.858C165.752 33.9708 165.643 36.0582 165.643 38.12H167.643C167.643 36.1285 167.748 34.1092 167.958 32.062L165.969 31.858ZM165.643 38.12C165.643 40.0151 165.725 41.9881 165.887 44.0387L167.88 43.8813C167.722 41.8785 167.643 39.9582 167.643 38.12H165.643ZM165.889 44.0647C166.103 46.099 166.318 47.8967 166.533 49.4566L168.514 49.1834C168.303 47.65 168.09 45.8743 167.878 43.8553L165.889 44.0647ZM166.538 49.4899C166.804 51.0341 167.025 52.1446 167.199 52.7831L169.128 52.2569C168.982 51.7221 168.776 50.6993 168.509 49.1501L166.538 49.4899ZM167.898 51.5559L157.738 54.3559L158.269 56.2841L168.429 53.4841L167.898 51.5559ZM158.965 55.0453C158.765 54.3469 158.506 53.1597 158.186 51.4557L156.221 51.8243C156.541 53.5337 156.815 54.7998 157.042 55.5947L158.965 55.0453ZM158.186 51.4557C157.872 49.7794 157.582 47.7777 157.317 45.4471L155.33 45.6729C155.598 48.0356 155.895 50.0873 156.221 51.8243L158.186 51.4557ZM157.319 45.4695C157.109 43.1559 157.003 40.7063 157.003 38.12H155.003C155.003 40.7603 155.111 43.2707 155.328 45.6505L157.319 45.4695ZM157.003 38.12C157.003 35.4866 157.135 32.9628 157.398 30.5481L155.409 30.3319C155.138 32.8239 155.003 35.4201 155.003 38.12H157.003ZM157.398 30.5458C157.663 28.0528 157.954 25.8315 158.271 23.8801L156.296 23.5599C155.973 25.5552 155.677 27.8138 155.409 30.3342L157.398 30.5458ZM158.267 23.9012C158.638 21.8857 158.98 20.2856 159.291 19.0924L157.356 18.5876C157.027 19.8477 156.675 21.501 156.3 23.5388L158.267 23.9012ZM158.675 19.7763C159.865 19.3301 161.79 18.8626 164.497 18.3848L164.15 16.4152C161.417 16.8974 159.342 17.3899 157.972 17.9037L158.675 19.7763ZM164.497 18.3848C167.15 17.9167 170.104 17.68 173.363 17.68V15.68C170.01 15.68 166.937 15.9233 164.15 16.4152L164.497 18.3848ZM173.363 17.68C178.08 17.68 181.909 18.3363 184.893 19.6007L185.674 17.7592C182.364 16.357 178.247 15.68 173.363 15.68V17.68ZM184.899 19.6031C187.889 20.849 190.08 22.8489 191.515 25.6199L193.291 24.7001C191.633 21.4978 189.078 19.1777 185.668 17.7569L184.899 19.6031ZM191.522 25.6322C193.015 28.4193 193.803 32.2629 193.803 37.24H195.803C195.803 32.0838 194.992 27.874 193.285 24.6878L191.522 25.6322ZM193.803 37.24V57H195.803V37.24H193.803ZM194.803 56H147.523V58H194.803V56ZM204.283 57V47.72H202.283V57H204.283ZM203.283 48.72C203.283 48.72 203.279 48.7199 203.272 48.7186C203.266 48.7172 203.261 48.7153 203.257 48.7138C203.254 48.7124 203.256 48.7126 203.262 48.717C203.268 48.7214 203.28 48.7306 203.296 48.7471L204.711 47.3329C204.337 46.9589 203.851 46.72 203.283 46.72V48.72ZM203.296 48.7471C203.336 48.7866 203.432 48.9161 203.513 49.2425L205.454 48.7575C205.322 48.2306 205.098 47.7201 204.711 47.3329L203.296 48.7471ZM203.513 49.2425C203.604 49.6058 203.677 50.0591 203.728 50.6105L205.719 50.4295C205.663 49.8076 205.576 49.2476 205.454 48.7575L203.513 49.2425ZM203.743 50.7161C203.834 51.1701 203.883 51.7155 203.883 52.36H205.883C205.883 51.6178 205.827 50.9366 205.704 50.3239L203.743 50.7161ZM203.883 52.36C203.883 53.0028 203.834 53.5821 203.74 54.1011L205.707 54.4589C205.826 53.8046 205.883 53.1039 205.883 52.36H203.883ZM203.728 54.1895C203.677 54.7409 203.604 55.1942 203.513 55.5575L205.454 56.0425C205.576 55.5524 205.663 54.9924 205.719 54.3705L203.728 54.1895ZM203.522 55.5253C203.449 55.7809 203.36 55.9094 203.296 55.9729L204.711 57.3871C205.074 57.0239 205.305 56.5657 205.445 56.0747L203.522 55.5253ZM203.296 55.9729C203.28 55.9894 203.268 55.9986 203.262 56.003C203.256 56.0074 203.254 56.0076 203.257 56.0062C203.261 56.0047 203.266 56.0028 203.272 56.0014C203.279 56.0001 203.283 56 203.283 56V58C203.851 58 204.337 57.7611 204.711 57.3871L203.296 55.9729ZM250.585 57H249.585V58H250.585V57ZM250.585 47.72V46.72H249.585V47.72H250.585ZM259.065 47.72H260.065V46.72H259.065V47.72ZM259.065 57V58H260.065V57H259.065ZM203.305 57V58H204.305V57H203.305ZM202.585 56.68L203.385 56.08L203.342 56.0231L203.292 55.9729L202.585 56.68ZM202.105 55.8L203.066 55.5253L203.055 55.4866L203.041 55.4489L202.105 55.8ZM201.865 49.96L202.851 50.1244L202.853 50.1121L201.865 49.96ZM202.425 48.36L203.238 48.9412L203.284 48.8774L203.319 48.8072L202.425 48.36ZM203.305 47.72H204.305V46.72H203.305V47.72ZM203.305 57H202.305V58H203.305V57ZM203.305 47.72V46.72H202.305V47.72H203.305ZM244.825 47.72L245.473 48.481L247.539 46.72H244.825V47.72ZM239.945 51.88H238.945V54.0465L240.593 52.641L239.945 51.88ZM238.985 30.44L238.052 30.801L238.056 30.8114L238.985 30.44ZM235.625 27L235.216 27.9125L235.234 27.9209L235.253 27.9285L235.625 27ZM222.665 26.44L222.792 27.4319L222.802 27.4305L222.813 27.4289L222.665 26.44ZM217.785 27.56L217.1 26.8313L218.163 28.4855L217.785 27.56ZM224.425 21.32L225.392 21.5724L226.268 18.2154L223.74 20.5913L224.425 21.32ZM223.465 25.96L222.479 25.791L222.477 25.8048L222.475 25.8186L223.465 25.96ZM222.745 31.96L223.739 32.062L223.74 32.0595L222.745 31.96ZM222.665 43.96L221.668 44.0387L221.669 44.0517L221.67 44.0647L222.665 43.96ZM223.305 49.32L222.314 49.4566L222.316 49.4733L222.319 49.4899L223.305 49.32ZM223.945 52.52L224.21 53.4841L225.172 53.2191L224.909 52.2569L223.945 52.52ZM213.785 55.32L212.823 55.5947L213.095 56.5473L214.05 56.2841L213.785 55.32ZM212.985 51.64L213.968 51.4557L212.985 51.64ZM212.105 45.56L211.109 45.6505L211.11 45.6617L211.111 45.6729L212.105 45.56ZM212.185 30.44L213.179 30.5481L213.179 30.5458L212.185 30.44ZM213.065 23.72L212.081 23.5388L212.079 23.5494L212.078 23.5599L213.065 23.72ZM214.105 18.84L213.754 17.9037L213.268 18.0858L213.137 18.5876L214.105 18.84ZM220.105 17.4L219.931 16.4152L220.105 17.4ZM241.065 18.68L240.675 19.6008L240.68 19.6031L241.065 18.68ZM248.185 25.16L247.297 25.6199L247.303 25.6322L248.185 25.16ZM250.585 57V58H251.585V57H250.585ZM259.065 57H258.065V58H259.065V57ZM259.065 47.72V46.72H258.065V47.72H259.065ZM260.265 49L259.295 49.2425V49.2425L260.265 49ZM260.505 50.52L259.509 50.6105L259.514 50.6637L259.524 50.7161L260.505 50.52ZM260.505 54.28L259.521 54.1011L259.513 54.145L259.509 54.1895L260.505 54.28ZM260.265 55.8L261.226 56.0747L261.231 56.0587L261.235 56.0425L260.265 55.8ZM251.585 57V47.72H249.585V57H251.585ZM250.585 48.72H259.065V46.72H250.585V48.72ZM258.065 47.72V57H260.065V47.72H258.065ZM259.065 56H250.585V58H259.065V56ZM203.305 56C203.255 56 203.258 55.9917 203.291 56.0062C203.307 56.0134 203.326 56.0243 203.344 56.0391C203.363 56.0539 203.376 56.0687 203.385 56.08L201.785 57.28C202.172 57.7968 202.741 58 203.305 58V56ZM203.292 55.9729C203.228 55.9094 203.139 55.7809 203.066 55.5253L201.143 56.0747C201.283 56.5657 201.514 57.0239 201.878 57.3871L203.292 55.9729ZM203.041 55.4489C202.92 55.1263 202.828 54.7115 202.781 54.1895L200.789 54.3705C200.848 55.0218 200.969 55.6203 201.168 56.1511L203.041 55.4489ZM202.781 54.1895C202.73 53.6376 202.705 53.0282 202.705 52.36H200.705C200.705 53.0784 200.732 53.7491 200.789 54.3705L202.781 54.1895ZM202.705 52.36C202.705 51.4316 202.757 50.691 202.851 50.1244L200.878 49.7956C200.759 50.509 200.705 51.3684 200.705 52.36H202.705ZM202.853 50.1121C202.947 49.499 203.098 49.1375 203.238 48.9412L201.611 47.7788C201.218 48.3292 200.995 49.0343 200.876 49.8079L202.853 50.1121ZM203.319 48.8072C203.376 48.6937 203.41 48.6762 203.393 48.6887C203.383 48.6958 203.366 48.7054 203.344 48.7124C203.323 48.7193 203.308 48.72 203.305 48.72V46.72C202.442 46.72 201.857 47.2591 201.53 47.9128L203.319 48.8072ZM202.305 47.72V57H204.305V47.72H202.305ZM204.305 57V47.72H202.305V57H204.305ZM203.305 48.72H244.825V46.72H203.305V48.72ZM244.176 46.959L239.296 51.119L240.593 52.641L245.473 48.481L244.176 46.959ZM240.945 51.88V37.16H238.945V51.88H240.945ZM240.945 37.16C240.945 34.2267 240.622 31.84 239.913 30.0686L238.056 30.8114C238.628 32.24 238.945 34.3333 238.945 37.16H240.945ZM239.917 30.079C239.18 28.1753 237.862 26.8179 235.996 26.0715L235.253 27.9285C236.587 28.4621 237.509 29.3981 238.052 30.801L239.917 30.079ZM236.034 26.0875C234.302 25.3112 231.98 24.96 229.145 24.96V26.96C231.856 26.96 233.854 27.3021 235.216 27.9125L236.034 26.0875ZM229.145 24.96C226.909 24.96 224.699 25.1236 222.516 25.4511L222.813 27.4289C224.897 27.1164 227.007 26.96 229.145 26.96V24.96ZM222.538 25.4481C220.42 25.7197 218.695 26.1071 217.406 26.6344L218.163 28.4855C219.221 28.0529 220.75 27.6937 222.792 27.4319L222.538 25.4481ZM218.469 28.2887L225.109 22.0487L223.74 20.5913L217.1 26.8313L218.469 28.2887ZM223.457 21.0676C223.127 22.3316 222.802 23.9085 222.479 25.791L224.45 26.129C224.768 24.2781 225.082 22.7617 225.392 21.5724L223.457 21.0676ZM222.475 25.8186C222.206 27.7009 221.964 29.715 221.75 31.8605L223.74 32.0595C223.952 29.9383 224.19 27.9524 224.455 26.1014L222.475 25.8186ZM221.75 31.858C221.533 33.9708 221.425 36.0582 221.425 38.12H223.425C223.425 36.1285 223.53 34.1092 223.739 32.062L221.75 31.858ZM221.425 38.12C221.425 40.0151 221.506 41.9881 221.668 44.0387L223.662 43.8813C223.503 41.8785 223.425 39.9582 223.425 38.12H221.425ZM221.67 44.0647C221.884 46.099 222.099 47.8967 222.314 49.4566L224.295 49.1834C224.084 47.65 223.872 45.8743 223.659 43.8553L221.67 44.0647ZM222.319 49.4899C222.585 51.0341 222.806 52.1446 222.98 52.7831L224.909 52.2569C224.764 51.7221 224.557 50.6993 224.29 49.1501L222.319 49.4899ZM223.679 51.5559L213.519 54.3559L214.05 56.2841L224.21 53.4841L223.679 51.5559ZM214.746 55.0453C214.547 54.3469 214.287 53.1597 213.968 51.4557L212.002 51.8243C212.322 53.5337 212.596 54.7998 212.823 55.5947L214.746 55.0453ZM213.968 51.4557C213.653 49.7794 213.363 47.7777 213.098 45.4471L211.111 45.6729C211.38 48.0356 211.676 50.0873 212.002 51.8243L213.968 51.4557ZM213.101 45.4695C212.89 43.1559 212.785 40.7063 212.785 38.12H210.785C210.785 40.7603 210.892 43.2707 211.109 45.6505L213.101 45.4695ZM212.785 38.12C212.785 35.4866 212.916 32.9628 213.179 30.5481L211.191 30.3319C210.92 32.8239 210.785 35.4201 210.785 38.12H212.785ZM213.179 30.5458C213.444 28.0528 213.735 25.8315 214.052 23.8801L212.078 23.5599C211.754 25.5552 211.458 27.8138 211.19 30.3342L213.179 30.5458ZM214.048 23.9012C214.419 21.8857 214.761 20.2856 215.072 19.0924L213.137 18.5876C212.808 19.8477 212.457 21.501 212.081 23.5388L214.048 23.9012ZM214.456 19.7763C215.646 19.3301 217.571 18.8626 220.278 18.3848L219.931 16.4152C217.198 16.8974 215.124 17.3899 213.754 17.9037L214.456 19.7763ZM220.278 18.3848C222.931 17.9167 225.885 17.68 229.145 17.68V15.68C225.791 15.68 222.718 15.9233 219.931 16.4152L220.278 18.3848ZM229.145 17.68C233.861 17.68 237.69 18.3363 240.675 19.6007L241.455 17.7592C238.146 16.357 234.028 15.68 229.145 15.68V17.68ZM240.68 19.6031C243.67 20.849 245.862 22.8489 247.297 25.6199L249.073 24.7001C247.414 21.4978 244.859 19.1777 241.449 17.7569L240.68 19.6031ZM247.303 25.6322C248.796 28.4193 249.585 32.2629 249.585 37.24H251.585C251.585 32.0838 250.773 27.874 249.066 24.6878L247.303 25.6322ZM249.585 37.24V57H251.585V37.24H249.585ZM250.585 56H203.305V58H250.585V56ZM260.065 57V47.72H258.065V57H260.065ZM259.065 48.72C259.064 48.72 259.06 48.7199 259.054 48.7186C259.047 48.7172 259.042 48.7153 259.039 48.7138C259.035 48.7124 259.037 48.7126 259.043 48.717C259.049 48.7214 259.061 48.7306 259.078 48.7471L260.492 47.3329C260.118 46.9589 259.632 46.72 259.065 46.72V48.72ZM259.078 48.7471C259.117 48.7866 259.213 48.9161 259.295 49.2425L261.235 48.7575C261.103 48.2306 260.879 47.7201 260.492 47.3329L259.078 48.7471ZM259.295 49.2425C259.385 49.6058 259.459 50.0591 259.509 50.6105L261.501 50.4295C261.444 49.8076 261.357 49.2476 261.235 48.7575L259.295 49.2425ZM259.524 50.7161C259.615 51.1701 259.665 51.7155 259.665 52.36H261.665C261.665 51.6178 261.608 50.9366 261.485 50.3239L259.524 50.7161ZM259.665 52.36C259.665 53.0028 259.615 53.5821 259.521 54.1011L261.489 54.4589C261.608 53.8046 261.665 53.1039 261.665 52.36H259.665ZM259.509 54.1895C259.459 54.7409 259.385 55.1942 259.295 55.5575L261.235 56.0425C261.357 55.5524 261.444 54.9924 261.501 54.3705L259.509 54.1895ZM259.303 55.5253C259.23 55.7809 259.141 55.9094 259.078 55.9729L260.492 57.3871C260.855 57.0239 261.086 56.5657 261.226 56.0747L259.303 55.5253ZM259.078 55.9729C259.061 55.9894 259.049 55.9986 259.043 56.003C259.037 56.0074 259.035 56.0076 259.039 56.0062C259.042 56.0047 259.047 56.0028 259.054 56.0014C259.06 56.0001 259.064 56 259.065 56V58C259.632 58 260.118 57.7611 260.492 57.3871L259.078 55.9729ZM268.126 57H267.126V58H268.126V57ZM268.126 0.439999V-0.560001H267.126V0.439999H268.126ZM278.846 0.439999H279.846V-0.560001H278.846V0.439999ZM278.846 57V58H279.846V57H278.846ZM259.086 57H258.086V58H259.086V57ZM259.086 47.72V46.72H258.086V47.72H259.086ZM268.126 47.72H269.126V46.72H268.126V47.72ZM268.126 57V58H269.126V57H268.126ZM259.086 57V58H260.086V57H259.086ZM258.366 56.68L259.166 56.08L259.123 56.0231L259.073 55.9729L258.366 56.68ZM257.886 55.8L258.847 55.5253L258.836 55.4866L258.822 55.4489L257.886 55.8ZM257.646 49.96L258.632 50.1244L258.634 50.1121L257.646 49.96ZM258.206 48.36L259.02 48.9412L259.065 48.8774L259.1 48.8072L258.206 48.36ZM259.086 47.72H260.086V46.72H259.086V47.72ZM269.126 57V0.439999H267.126V57H269.126ZM268.126 1.44H278.846V-0.560001H268.126V1.44ZM277.846 0.439999V57H279.846V0.439999H277.846ZM278.846 56H268.126V58H278.846V56ZM260.086 57V47.72H258.086V57H260.086ZM259.086 48.72H268.126V46.72H259.086V48.72ZM267.126 47.72V57H269.126V47.72H267.126ZM268.126 56H259.086V58H268.126V56ZM259.086 56C259.036 56 259.039 55.9917 259.072 56.0062C259.088 56.0134 259.107 56.0243 259.126 56.0391C259.144 56.0539 259.157 56.0687 259.166 56.08L257.566 57.28C257.954 57.7968 258.522 58 259.086 58V56ZM259.073 55.9729C259.01 55.9094 258.921 55.7809 258.847 55.5253L256.924 56.0747C257.065 56.5657 257.296 57.0239 257.659 57.3871L259.073 55.9729ZM258.822 55.4489C258.701 55.1263 258.609 54.7115 258.562 54.1895L256.57 54.3705C256.629 55.0218 256.751 55.6203 256.95 56.1511L258.822 55.4489ZM258.562 54.1895C258.512 53.6376 258.486 53.0282 258.486 52.36H256.486C256.486 53.0784 256.514 53.7491 256.57 54.3705L258.562 54.1895ZM258.486 52.36C258.486 51.4316 258.538 50.691 258.632 50.1244L256.66 49.7956C256.541 50.509 256.486 51.3684 256.486 52.36H258.486ZM258.634 50.1121C258.729 49.499 258.88 49.1375 259.02 48.9412L257.392 47.7788C256.999 48.3292 256.777 49.0343 256.658 49.8079L258.634 50.1121ZM259.1 48.8072C259.157 48.6937 259.191 48.6762 259.174 48.6887C259.164 48.6958 259.148 48.7054 259.126 48.7124C259.104 48.7193 259.089 48.72 259.086 48.72V46.72C258.223 46.72 257.638 47.2591 257.312 47.9128L259.1 48.8072ZM258.086 47.72V57H260.086V47.72H258.086ZM291.677 57H290.677V58H291.677V57ZM291.677 0.439999V-0.560001H290.677V0.439999H291.677ZM302.317 0.439999H303.317V-0.560001H302.317V0.439999ZM302.317 57V58H303.317V57H302.317ZM292.677 57V0.439999H290.677V57H292.677ZM291.677 1.44H302.317V-0.560001H291.677V1.44ZM301.317 0.439999V57H303.317V0.439999H301.317ZM302.317 56H291.677V58H302.317V56Z" fill="#188F58" fill-opacity="0.32" mask="url(#path-1-outside-1_30_10)"/>
</svg>
