<svg width="423" height="85" viewBox="0 0 423 85" fill="none" xmlns="http://www.w3.org/2000/svg">
<mask id="path-1-outside-1_30_12" maskUnits="userSpaceOnUse" x="-1" y="-1" width="425" height="87" fill="black">
<rect fill="white" x="-1" y="-1" width="425" height="87"/>
<path d="M11.2619 65V55.72H20.3819V65H11.2619ZM0.621875 65V8.44H11.2619V65H0.621875ZM20.3819 65V55.72C20.7019 55.72 20.9419 55.8267 21.1019 56.04C21.3152 56.2533 21.4752 56.5733 21.5819 57C21.7419 57.4267 21.8485 57.9333 21.9019 58.52C21.9552 59.0533 21.9819 59.6667 21.9819 60.36C21.9819 61.0533 21.9552 61.6933 21.9019 62.28C21.8485 62.8667 21.7419 63.3733 21.5819 63.8C21.4752 64.1733 21.3152 64.4667 21.1019 64.68C20.9419 64.8933 20.7019 65 20.3819 65ZM39.495 65V55.72H47.895V65H39.495ZM20.375 65C20.055 65 19.815 64.8933 19.655 64.68C19.4417 64.4667 19.2817 64.1733 19.175 63.8C19.015 63.3733 18.9083 62.8667 18.855 62.28C18.8017 61.6933 18.775 61.0533 18.775 60.36C18.775 59.4 18.8283 58.6 18.935 57.96C19.0417 57.2667 19.2283 56.7333 19.495 56.36C19.7083 55.9333 20.0017 55.72 20.375 55.72V65ZM20.375 65V55.72H35.015L28.775 60.92V24.84H39.495V65H20.375ZM47.895 65V55.72C48.215 55.72 48.4817 55.8267 48.695 56.04C48.9083 56.2533 49.0683 56.5733 49.175 57C49.2817 57.4267 49.3617 57.9333 49.415 58.52C49.4683 59.0533 49.495 59.6667 49.495 60.36C49.495 61.0533 49.4683 61.6933 49.415 62.28C49.3617 62.8667 49.2817 63.3733 49.175 63.8C49.0683 64.1733 48.9083 64.4667 48.695 64.68C48.4817 64.8933 48.215 65 47.895 65ZM28.775 17.48V8.36H39.495V17.48H28.775ZM47.875 65V55.72H62.515L56.275 60.92V24.84H66.995V65H47.875ZM47.875 65C47.555 65 47.315 64.8933 47.155 64.68C46.9417 64.4667 46.7817 64.1733 46.675 63.8C46.515 63.3733 46.4083 62.8667 46.355 62.28C46.3017 61.6933 46.275 61.0533 46.275 60.36C46.275 59.4 46.3283 58.6 46.435 57.96C46.5417 57.2667 46.7283 56.7333 46.995 56.36C47.2083 55.9333 47.5017 55.72 47.875 55.72V65ZM56.835 16.92C55.8217 15.6933 55.0483 14.52 54.515 13.4C53.9817 12.28 53.715 11.08 53.715 9.8C53.715 7.98666 54.195 6.36 55.155 4.92C56.115 3.42666 57.3683 2.28 58.915 1.48C60.4617 0.626663 62.1683 0.199995 64.035 0.199995C65.0483 0.199995 66.0883 0.333328 67.155 0.599995C68.2217 0.866664 69.1283 1.26667 69.875 1.8L67.155 6.68C66.675 6.41333 66.195 6.25333 65.715 6.2C65.2883 6.09333 64.835 6.04 64.355 6.04C63.075 6.04 62.0883 6.38666 61.395 7.08C60.7017 7.72 60.355 8.6 60.355 9.72C60.355 10.36 60.4883 10.9733 60.755 11.56C61.0217 12.1467 61.4217 12.7867 61.955 13.48L56.835 16.92ZM51.955 17.56V11.72H71.315V17.56H51.955ZM122.237 65V55.72H130.637V65H122.237ZM75.9969 65V55.72H116.637L111.517 61V8.44H122.237V65H75.9969ZM87.1169 55.72V19.64H97.7569V55.72H87.1169ZM130.637 65V55.72C130.957 55.72 131.197 55.8267 131.357 56.04C131.57 56.2533 131.73 56.5733 131.837 57C131.997 57.4267 132.104 57.9333 132.157 58.52C132.21 59.0533 132.237 59.6667 132.237 60.36C132.237 61.0533 132.21 61.6933 132.157 62.28C132.104 62.8667 131.997 63.3733 131.837 63.8C131.73 64.1733 131.57 64.4667 131.357 64.68C131.197 64.8933 130.957 65 130.637 65ZM177.889 65V55.72H186.369V65H177.889ZM130.609 65C130.289 65 130.049 64.8933 129.889 64.68C129.676 64.4667 129.516 64.1733 129.409 63.8C129.249 63.3733 129.143 62.8667 129.089 62.28C129.036 61.6933 129.009 61.0533 129.009 60.36C129.009 59.4 129.063 58.6 129.169 57.96C129.276 57.2667 129.463 56.7333 129.729 56.36C129.943 55.9333 130.236 55.72 130.609 55.72V65ZM130.609 65V55.72H172.129L167.249 59.88V45.16C167.249 42.28 166.929 40.04 166.289 38.44C165.649 36.7867 164.529 35.64 162.929 35C161.383 34.3067 159.223 33.96 156.449 33.96C154.263 33.96 152.103 34.12 149.969 34.44C147.889 34.7067 146.263 35.08 145.089 35.56L151.729 29.32C151.409 30.5467 151.089 32.0933 150.769 33.96C150.503 35.8267 150.263 37.8267 150.049 39.96C149.836 42.04 149.729 44.0933 149.729 46.12C149.729 47.9867 149.809 49.9333 149.969 51.96C150.183 53.9867 150.396 55.7733 150.609 57.32C150.876 58.8667 151.089 59.9333 151.249 60.52L141.089 63.32C140.876 62.5733 140.609 61.3467 140.289 59.64C139.969 57.9333 139.676 55.9067 139.409 53.56C139.196 51.2133 139.089 48.7333 139.089 46.12C139.089 43.4533 139.223 40.8933 139.489 38.44C139.756 35.9333 140.049 33.6933 140.369 31.72C140.743 29.6933 141.089 28.0667 141.409 26.84C142.689 26.36 144.689 25.88 147.409 25.4C150.129 24.92 153.143 24.68 156.449 24.68C161.249 24.68 165.223 25.3467 168.369 26.68C171.569 28.0133 173.943 30.1733 175.489 33.16C177.089 36.1467 177.889 40.1733 177.889 45.24V65H130.609ZM186.369 65V55.72C186.636 55.72 186.876 55.8267 187.089 56.04C187.303 56.2533 187.463 56.5733 187.569 57C187.676 57.4267 187.756 57.9333 187.809 58.52C187.916 59.0533 187.969 59.6667 187.969 60.36C187.969 61.0533 187.916 61.6933 187.809 62.28C187.756 62.8667 187.676 63.3733 187.569 63.8C187.463 64.1733 187.303 64.4667 187.089 64.68C186.876 64.8933 186.636 65 186.369 65ZM201.431 63.72C198.711 61.16 196.657 58.44 195.271 55.56C193.937 52.68 193.271 49.6133 193.271 46.36C193.271 43.2133 193.857 40.3333 195.031 37.72C196.204 35.0533 197.804 32.76 199.831 30.84C201.857 28.92 204.204 27.4533 206.871 26.44C209.591 25.3733 212.444 24.84 215.431 24.84C217.031 24.84 218.711 25 220.471 25.32C222.231 25.64 223.911 26.0667 225.511 26.6L222.311 35.32C221.191 34.9467 220.071 34.6533 218.951 34.44C217.884 34.2267 216.844 34.12 215.831 34.12C213.484 34.12 211.404 34.6533 209.591 35.72C207.777 36.7333 206.364 38.1467 205.351 39.96C204.391 41.7733 203.911 43.8533 203.911 46.2C203.911 48.3333 204.337 50.3333 205.191 52.2C206.097 54.0667 207.377 55.7467 209.031 57.24L201.431 63.72ZM186.391 65V55.72H226.231V65H186.391ZM186.391 65C186.071 65 185.831 64.8933 185.671 64.68C185.457 64.4667 185.297 64.1733 185.191 63.8C185.031 63.3733 184.924 62.8667 184.871 62.28C184.817 61.6933 184.791 61.0533 184.791 60.36C184.791 59.4 184.844 58.6 184.951 57.96C185.057 57.2667 185.244 56.7333 185.511 56.36C185.724 55.9333 186.017 55.72 186.391 55.72V65ZM341.743 65V55.72H350.223V65H341.743ZM277.423 84.84C272.783 84.84 268.623 83.9867 264.943 82.28C261.316 80.6267 258.463 78.3067 256.383 75.32C254.303 72.3333 253.263 68.9467 253.263 65.16C253.263 64.0933 253.343 62.68 253.503 60.92C253.663 59.16 253.876 57.1867 254.143 55C254.463 52.8133 254.783 50.6 255.103 48.36C255.476 46.0667 255.823 43.8533 256.143 41.72L266.703 43.16C266.116 46.7333 265.609 50.0133 265.183 53C264.809 55.9333 264.516 58.44 264.303 60.52C264.089 62.6 263.983 64.12 263.983 65.08C263.983 67.2133 264.516 69.0533 265.583 70.6C266.649 72.1467 268.169 73.3467 270.143 74.2C272.169 75.1067 274.596 75.56 277.423 75.56C280.356 75.56 282.729 75.1333 284.543 74.28C286.356 73.4267 287.663 72.2533 288.463 70.76C289.316 69.2667 289.743 67.5867 289.743 65.72V24.84H300.463V65.72C300.463 69.56 299.449 72.92 297.423 75.8C295.449 78.68 292.729 80.8933 289.263 82.44C285.796 84.04 281.849 84.84 277.423 84.84ZM300.303 65L300.463 55.72H340.143L331.103 63.56V46.76C331.103 43.72 330.676 41.2933 329.823 39.48C329.023 37.6133 327.876 36.2533 326.383 35.4C324.889 34.5467 323.076 34.12 320.943 34.12C318.649 34.12 316.463 34.5733 314.383 35.48C312.356 36.3867 310.463 37.56 308.703 39C306.943 40.44 305.316 41.9867 303.823 43.64C302.329 45.2933 300.996 46.8933 299.823 48.44C298.649 49.9333 297.636 51.2133 296.783 52.28L294.303 44.52C296.383 42.0133 298.249 39.72 299.903 37.64C301.609 35.56 303.209 33.72 304.703 32.12C306.249 30.52 307.849 29.1867 309.503 28.12C311.156 27.0533 312.996 26.2533 315.023 25.72C317.049 25.1333 319.396 24.84 322.063 24.84C325.583 24.84 328.596 25.4533 331.103 26.68C333.609 27.8533 335.636 29.48 337.183 31.56C338.783 33.64 339.929 35.9867 340.623 38.6C341.369 41.2133 341.743 43.9333 341.743 46.76V65H300.303ZM350.223 65V55.72C350.489 55.72 350.729 55.8267 350.943 56.04C351.156 56.2533 351.316 56.5733 351.423 57C351.529 57.4267 351.609 57.9333 351.663 58.52C351.769 59.0533 351.823 59.6667 351.823 60.36C351.823 61.0533 351.769 61.6933 351.663 62.28C351.609 62.8667 351.529 63.3733 351.423 63.8C351.316 64.1733 351.156 64.4667 350.943 64.68C350.729 64.8933 350.489 65 350.223 65ZM311.343 17.56V8.44H322.063V17.56H311.343ZM350.219 65V55.72H367.179C369.472 55.72 371.685 55.2933 373.819 54.44C375.952 53.5333 377.899 52.36 379.659 50.92C381.472 49.4267 383.045 47.8 384.379 46.04C385.765 44.2267 386.832 42.3867 387.579 40.52C388.379 38.6533 388.779 36.8933 388.779 35.24V30.12L393.899 38.6C391.125 37.1067 388.299 35.9867 385.419 35.24C382.539 34.4933 379.792 34.12 377.179 34.12C374.619 34.12 371.872 34.4933 368.939 35.24C366.059 35.9867 363.259 37.1067 360.539 38.6L365.659 30.12V35.24C365.659 36.8933 366.032 38.6533 366.779 40.52C367.579 42.3867 368.645 44.2267 369.979 46.04C371.312 47.8 372.885 49.4267 374.699 50.92C376.512 52.36 378.485 53.5333 380.619 54.44C382.752 55.2933 384.939 55.72 387.179 55.72H403.659V65H390.539C386.379 65 382.485 64.3333 378.859 63C375.232 61.6667 371.952 59.9067 369.019 57.72C366.085 55.48 363.552 53.0533 361.419 50.44C359.339 47.7733 357.739 45.1333 356.619 42.52C355.499 39.8533 354.939 37.4267 354.939 35.24V30.68C357.232 29.4 359.659 28.3333 362.219 27.48C364.832 26.6267 367.419 25.9867 369.979 25.56C372.592 25.08 374.992 24.84 377.179 24.84C379.419 24.84 381.819 25.08 384.379 25.56C386.939 25.9867 389.499 26.6267 392.059 27.48C394.672 28.3333 397.125 29.4 399.419 30.68V35.24C399.419 37.4267 398.859 39.8533 397.739 42.52C396.619 45.1333 394.992 47.7733 392.859 50.44C390.779 53.0533 388.272 55.48 385.339 57.72C382.405 59.9067 379.125 61.6667 375.499 63C371.872 64.3333 367.979 65 363.819 65H350.219ZM350.219 65C349.899 65 349.659 64.8933 349.499 64.68C349.285 64.4667 349.125 64.1733 349.019 63.8C348.859 63.3733 348.752 62.8667 348.699 62.28C348.645 61.6933 348.619 61.0533 348.619 60.36C348.619 59.4 348.672 58.6 348.779 57.96C348.885 57.2667 349.072 56.7333 349.339 56.36C349.552 55.9333 349.845 55.72 350.219 55.72V65ZM403.659 65V55.72C403.979 55.72 404.245 55.8267 404.459 56.04C404.672 56.2533 404.832 56.5733 404.939 57C405.045 57.4267 405.125 57.9333 405.179 58.52C405.232 59.0533 405.259 59.6667 405.259 60.36C405.259 61.0533 405.232 61.6933 405.179 62.28C405.125 62.8667 405.045 63.3733 404.939 63.8C404.832 64.1733 404.672 64.4667 404.459 64.68C404.245 64.8933 403.979 65 403.659 65ZM403.656 65V55.72H418.296L412.056 60.92V24.84H422.776V65H403.656ZM403.656 65C403.336 65 403.096 64.8933 402.936 64.68C402.723 64.4667 402.563 64.1733 402.456 63.8C402.296 63.3733 402.19 62.8667 402.136 62.28C402.083 61.6933 402.056 61.0533 402.056 60.36C402.056 59.4 402.11 58.6 402.216 57.96C402.323 57.2667 402.51 56.7333 402.776 56.36C402.99 55.9333 403.283 55.72 403.656 55.72V65ZM412.056 82.04V72.92H422.776V82.04H412.056Z"/>
</mask>
<path d="M11.2619 65H10.2619V66H11.2619V65ZM11.2619 55.72V54.72H10.2619V55.72H11.2619ZM20.3819 55.72H21.3819V54.72H20.3819V55.72ZM20.3819 65V66H21.3819V65H20.3819ZM0.621875 65H-0.378125V66H0.621875V65ZM0.621875 8.44V7.44H-0.378125V8.44H0.621875ZM11.2619 8.44H12.2619V7.44H11.2619V8.44ZM11.2619 65V66H12.2619V65H11.2619ZM20.3819 65H19.3819V66H20.3819V65ZM20.3819 55.72V54.72H19.3819V55.72H20.3819ZM21.1019 56.04L20.3019 56.64L20.3445 56.6969L20.3948 56.7471L21.1019 56.04ZM21.5819 57L20.6117 57.2425L20.6255 57.2978L20.6455 57.3511L21.5819 57ZM21.9019 58.52L20.9059 58.6105L20.9068 58.6195L21.9019 58.52ZM21.9019 62.28L20.906 62.1895V62.1895L21.9019 62.28ZM21.5819 63.8L20.6455 63.4489L20.6314 63.4866L20.6204 63.5253L21.5819 63.8ZM21.1019 64.68L20.3948 63.9729L20.3445 64.0231L20.3019 64.08L21.1019 64.68ZM12.2619 65V55.72H10.2619V65H12.2619ZM11.2619 56.72H20.3819V54.72H11.2619V56.72ZM19.3819 55.72V65H21.3819V55.72H19.3819ZM20.3819 64H11.2619V66H20.3819V64ZM1.62188 65V8.44H-0.378125V65H1.62188ZM0.621875 9.44H11.2619V7.44H0.621875V9.44ZM10.2619 8.44V65H12.2619V8.44H10.2619ZM11.2619 64H0.621875V66H11.2619V64ZM21.3819 65V55.72H19.3819V65H21.3819ZM20.3819 56.72C20.4318 56.72 20.4283 56.7283 20.3957 56.7138C20.3795 56.7066 20.3607 56.6957 20.3422 56.6809C20.3237 56.6661 20.3104 56.6513 20.3019 56.64L21.9019 55.44C21.5143 54.9232 20.9459 54.72 20.3819 54.72V56.72ZM20.3948 56.7471C20.4342 56.7866 20.5301 56.9161 20.6117 57.2425L22.552 56.7575C22.4203 56.2305 22.1962 55.7201 21.809 55.3329L20.3948 56.7471ZM20.6455 57.3511C20.7665 57.6737 20.8585 58.0885 20.906 58.6105L22.8978 58.4295C22.8386 57.7782 22.7172 57.1797 22.5182 56.6489L20.6455 57.3511ZM20.9068 58.6195C20.9561 59.1118 20.9819 59.6908 20.9819 60.36H22.9819C22.9819 59.6425 22.9543 58.9948 22.8969 58.4205L20.9068 58.6195ZM20.9819 60.36C20.9819 61.0282 20.9562 61.6376 20.906 62.1895L22.8978 62.3705C22.9543 61.7491 22.9819 61.0784 22.9819 60.36H20.9819ZM20.906 62.1895C20.8585 62.7115 20.7665 63.1263 20.6455 63.4489L22.5182 64.1511C22.7172 63.6203 22.8386 63.0218 22.8978 62.3705L20.906 62.1895ZM20.6204 63.5253C20.5473 63.7809 20.4583 63.9094 20.3948 63.9729L21.809 65.3871C22.1721 65.0239 22.4031 64.5657 22.5434 64.0747L20.6204 63.5253ZM20.3019 64.08C20.3104 64.0687 20.3237 64.0539 20.3422 64.0391C20.3607 64.0243 20.3795 64.0134 20.3957 64.0062C20.4283 63.9917 20.4318 64 20.3819 64V66C20.9459 66 21.5143 65.7968 21.9019 65.28L20.3019 64.08ZM39.495 65H38.495V66H39.495V65ZM39.495 55.72V54.72H38.495V55.72H39.495ZM47.895 55.72H48.895V54.72H47.895V55.72ZM47.895 65V66H48.895V65H47.895ZM20.375 65V66H21.375V65H20.375ZM19.655 64.68L20.455 64.08L20.4124 64.0231L20.3621 63.9729L19.655 64.68ZM19.175 63.8L20.1365 63.5253L20.1255 63.4866L20.1113 63.4489L19.175 63.8ZM18.935 57.96L19.9215 58.1244L19.9234 58.1121L18.935 57.96ZM19.495 56.36L20.3087 56.9412L20.3543 56.8774L20.3894 56.8072L19.495 56.36ZM20.375 55.72H21.375V54.72H20.375V55.72ZM20.375 65H19.375V66H20.375V65ZM20.375 55.72V54.72H19.375V55.72H20.375ZM35.015 55.72L35.6552 56.4882L37.7771 54.72H35.015V55.72ZM28.775 60.92H27.775V63.055L29.4152 61.6882L28.775 60.92ZM28.775 24.84V23.84H27.775V24.84H28.775ZM39.495 24.84H40.495V23.84H39.495V24.84ZM39.495 65V66H40.495V65H39.495ZM47.895 65H46.895V66H47.895V65ZM47.895 55.72V54.72H46.895V55.72H47.895ZM48.695 56.04L47.9879 56.7471V56.7471L48.695 56.04ZM49.175 57L48.2049 57.2425H48.2049L49.175 57ZM49.415 58.52L48.4191 58.6105L48.42 58.6195L49.415 58.52ZM49.415 62.28L48.4191 62.1895V62.1895L49.415 62.28ZM49.175 63.8L50.1365 64.0747L50.1411 64.0587L50.1451 64.0425L49.175 63.8ZM48.695 64.68L47.9879 63.9729H47.9879L48.695 64.68ZM28.775 17.48H27.775V18.48H28.775V17.48ZM28.775 8.36V7.36H27.775V8.36H28.775ZM39.495 8.36H40.495V7.36H39.495V8.36ZM39.495 17.48V18.48H40.495V17.48H39.495ZM40.495 65V55.72H38.495V65H40.495ZM39.495 56.72H47.895V54.72H39.495V56.72ZM46.895 55.72V65H48.895V55.72H46.895ZM47.895 64H39.495V66H47.895V64ZM20.375 64C20.325 64 20.3285 63.9917 20.3611 64.0062C20.3774 64.0134 20.3961 64.0243 20.4147 64.0391C20.4332 64.0539 20.4465 64.0687 20.455 64.08L18.855 65.28C19.2426 65.7968 19.811 66 20.375 66V64ZM20.3621 63.9729C20.2986 63.9094 20.2096 63.7809 20.1365 63.5253L18.2135 64.0747C18.3538 64.5657 18.5847 65.0239 18.9479 65.3871L20.3621 63.9729ZM20.1113 63.4489C19.9904 63.1263 19.8984 62.7115 19.8509 62.1895L17.8591 62.3705C17.9183 63.0218 18.0396 63.6203 18.2387 64.1511L20.1113 63.4489ZM19.8509 62.1895C19.8007 61.6376 19.775 61.0282 19.775 60.36H17.775C17.775 61.0784 17.8026 61.7491 17.8591 62.3705L19.8509 62.1895ZM19.775 60.36C19.775 59.4316 19.827 58.691 19.9214 58.1244L17.9486 57.7956C17.8297 58.509 17.775 59.3684 17.775 60.36H19.775ZM19.9234 58.1121C20.0177 57.499 20.1686 57.1375 20.3087 56.9412L18.6813 55.7788C18.2881 56.3292 18.0657 57.0343 17.9466 57.8079L19.9234 58.1121ZM20.3894 56.8072C20.4462 56.6937 20.4804 56.6762 20.4632 56.6887C20.4535 56.6958 20.4366 56.7054 20.4148 56.7124C20.3932 56.7193 20.3782 56.72 20.375 56.72V54.72C19.5123 54.72 18.9274 55.2591 18.6006 55.9128L20.3894 56.8072ZM19.375 55.72V65H21.375V55.72H19.375ZM21.375 65V55.72H19.375V65H21.375ZM20.375 56.72H35.015V54.72H20.375V56.72ZM34.3748 54.9518L28.1348 60.1518L29.4152 61.6882L35.6552 56.4882L34.3748 54.9518ZM29.775 60.92V24.84H27.775V60.92H29.775ZM28.775 25.84H39.495V23.84H28.775V25.84ZM38.495 24.84V65H40.495V24.84H38.495ZM39.495 64H20.375V66H39.495V64ZM48.895 65V55.72H46.895V65H48.895ZM47.895 56.72C47.9423 56.72 47.9612 56.7275 47.9636 56.7285C47.9657 56.7293 47.9677 56.7303 47.9703 56.732C47.9731 56.7339 47.979 56.7382 47.9879 56.7471L49.4021 55.3329C48.989 54.9198 48.4624 54.72 47.895 54.72V56.72ZM47.9879 56.7471C48.0274 56.7866 48.1233 56.9161 48.2049 57.2425L50.1451 56.7575C50.0134 56.2305 49.7893 55.7201 49.4021 55.3329L47.9879 56.7471ZM48.2049 57.2425C48.2957 57.6058 48.369 58.0591 48.4191 58.6105L50.4109 58.4295C50.3544 57.8076 50.2677 57.2476 50.1451 56.7575L48.2049 57.2425ZM48.42 58.6195C48.4692 59.1118 48.495 59.6908 48.495 60.36H50.495C50.495 59.6425 50.4675 58.9948 50.41 58.4205L48.42 58.6195ZM48.495 60.36C48.495 61.0282 48.4693 61.6376 48.4191 62.1895L50.4109 62.3705C50.4674 61.7491 50.495 61.0784 50.495 60.36H48.495ZM48.4191 62.1895C48.369 62.7409 48.2957 63.1942 48.2049 63.5575L50.1451 64.0425C50.2677 63.5524 50.3544 62.9924 50.4109 62.3705L48.4191 62.1895ZM48.2135 63.5253C48.1404 63.7809 48.0514 63.9094 47.9879 63.9729L49.4021 65.3871C49.7653 65.0239 49.9962 64.5657 50.1365 64.0747L48.2135 63.5253ZM47.9879 63.9729C47.979 63.9818 47.9731 63.9861 47.9703 63.988C47.9677 63.9897 47.9657 63.9907 47.9636 63.9915C47.9612 63.9925 47.9423 64 47.895 64V66C48.4624 66 48.989 65.8002 49.4021 65.3871L47.9879 63.9729ZM29.775 17.48V8.36H27.775V17.48H29.775ZM28.775 9.36H39.495V7.36H28.775V9.36ZM38.495 8.36V17.48H40.495V8.36H38.495ZM39.495 16.48H28.775V18.48H39.495V16.48ZM47.875 65H46.875V66H47.875V65ZM47.875 55.72V54.72H46.875V55.72H47.875ZM62.515 55.72L63.1552 56.4882L65.2771 54.72H62.515V55.72ZM56.275 60.92H55.275V63.055L56.9152 61.6882L56.275 60.92ZM56.275 24.84V23.84H55.275V24.84H56.275ZM66.995 24.84H67.995V23.84H66.995V24.84ZM66.995 65V66H67.995V65H66.995ZM47.875 65V66H48.875V65H47.875ZM47.155 64.68L47.955 64.08L47.9124 64.0231L47.8621 63.9729L47.155 64.68ZM46.675 63.8L47.6365 63.5253L47.6255 63.4866L47.6113 63.4489L46.675 63.8ZM46.435 57.96L47.4215 58.1244L47.4234 58.1121L46.435 57.96ZM46.995 56.36L47.8087 56.9412L47.8543 56.8774L47.8894 56.8072L46.995 56.36ZM47.875 55.72H48.875V54.72H47.875V55.72ZM56.835 16.92L56.064 17.5569L56.6409 18.2552L57.3927 17.75L56.835 16.92ZM54.515 13.4L55.4179 12.9701V12.9701L54.515 13.4ZM55.155 4.92L55.987 5.4747L55.9917 5.46776L55.9962 5.46075L55.155 4.92ZM58.915 1.48L59.3744 2.36822L59.3863 2.36205L59.3981 2.35557L58.915 1.48ZM67.155 0.599995L67.3975 -0.370147V-0.370148L67.155 0.599995ZM69.875 1.8L70.7485 2.28686L71.1838 1.50592L70.4562 0.986264L69.875 1.8ZM67.155 6.68L66.6694 7.55416L67.5423 8.03912L68.0285 7.16685L67.155 6.68ZM65.715 6.2L65.4725 7.17014L65.5377 7.18645L65.6046 7.19388L65.715 6.2ZM61.395 7.08L62.0733 7.8148L62.088 7.80124L62.1021 7.7871L61.395 7.08ZM60.755 11.56L61.6654 11.1462V11.1462L60.755 11.56ZM61.955 13.48L62.5127 14.31L63.3977 13.7154L62.7476 12.8703L61.955 13.48ZM51.955 17.56H50.955V18.56H51.955V17.56ZM51.955 11.72V10.72H50.955V11.72H51.955ZM71.315 11.72H72.315V10.72H71.315V11.72ZM71.315 17.56V18.56H72.315V17.56H71.315ZM48.875 65V55.72H46.875V65H48.875ZM47.875 56.72H62.515V54.72H47.875V56.72ZM61.8748 54.9518L55.6348 60.1518L56.9152 61.6882L63.1552 56.4882L61.8748 54.9518ZM57.275 60.92V24.84H55.275V60.92H57.275ZM56.275 25.84H66.995V23.84H56.275V25.84ZM65.995 24.84V65H67.995V24.84H65.995ZM66.995 64H47.875V66H66.995V64ZM47.875 64C47.825 64 47.8285 63.9917 47.8611 64.0062C47.8774 64.0134 47.8961 64.0243 47.9147 64.0391C47.9332 64.0539 47.9465 64.0687 47.955 64.08L46.355 65.28C46.7426 65.7968 47.311 66 47.875 66V64ZM47.8621 63.9729C47.7986 63.9094 47.7096 63.7809 47.6365 63.5253L45.7135 64.0747C45.8538 64.5657 46.0847 65.0239 46.4479 65.3871L47.8621 63.9729ZM47.6113 63.4489C47.4904 63.1263 47.3984 62.7115 47.3509 62.1895L45.3591 62.3705C45.4183 63.0218 45.5396 63.6203 45.7387 64.1511L47.6113 63.4489ZM47.3509 62.1895C47.3007 61.6376 47.275 61.0282 47.275 60.36H45.275C45.275 61.0784 45.3026 61.7491 45.3591 62.3705L47.3509 62.1895ZM47.275 60.36C47.275 59.4316 47.327 58.691 47.4214 58.1244L45.4486 57.7956C45.3297 58.509 45.275 59.3684 45.275 60.36H47.275ZM47.4234 58.1121C47.5177 57.499 47.6686 57.1375 47.8087 56.9412L46.1813 55.7788C45.7881 56.3292 45.5657 57.0343 45.4466 57.8079L47.4234 58.1121ZM47.8894 56.8072C47.9462 56.6937 47.9804 56.6762 47.9632 56.6887C47.9535 56.6958 47.9366 56.7054 47.9148 56.7124C47.8932 56.7193 47.8782 56.72 47.875 56.72V54.72C47.0123 54.72 46.4274 55.2591 46.1006 55.9128L47.8894 56.8072ZM46.875 55.72V65H48.875V55.72H46.875ZM57.606 16.2831C56.631 15.1029 55.9076 13.9985 55.4179 12.9701L53.6121 13.8299C54.1891 15.0415 55.0123 16.2837 56.064 17.5569L57.606 16.2831ZM55.4179 12.9701C54.9505 11.9887 54.715 10.9361 54.715 9.8H52.715C52.715 11.2239 53.0128 12.5713 53.6121 13.8299L55.4179 12.9701ZM54.715 9.8C54.715 8.17414 55.142 6.74234 55.987 5.4747L54.3229 4.3653C53.248 5.97766 52.715 7.79919 52.715 9.8H54.715ZM55.9962 5.46075C56.8635 4.11164 57.9864 3.08617 59.3744 2.36822L58.4556 0.59178C56.7503 1.47382 55.3665 2.74168 54.3138 4.37924L55.9962 5.46075ZM59.3981 2.35557C60.7884 1.58852 62.3274 1.2 64.035 1.2V-0.800005C62.0093 -0.800005 60.135 -0.335192 58.4319 0.604421L59.3981 2.35557ZM64.035 1.2C64.96 1.2 65.9184 1.32163 66.9125 1.57014L67.3975 -0.370148C66.2582 -0.654975 65.1367 -0.800005 64.035 -0.800005V1.2ZM66.9125 1.57014C67.881 1.81227 68.6672 2.16622 69.2938 2.61373L70.4562 0.986264C69.5894 0.367114 68.5624 -0.0789394 67.3975 -0.370147L66.9125 1.57014ZM69.0015 1.31314L66.2815 6.19314L68.0285 7.16685L70.7485 2.28686L69.0015 1.31314ZM67.6406 5.80584C67.0605 5.48356 66.454 5.27596 65.8254 5.20612L65.6046 7.19388C65.936 7.2307 66.2895 7.3431 66.6694 7.55416L67.6406 5.80584ZM65.9575 5.22986C65.4447 5.10164 64.9094 5.04 64.355 5.04V7.04C64.7606 7.04 65.132 7.08502 65.4725 7.17014L65.9575 5.22986ZM64.355 5.04C62.8941 5.04 61.621 5.43981 60.6879 6.37289L62.1021 7.7871C62.5557 7.33352 63.2559 7.04 64.355 7.04V5.04ZM60.7167 6.34519C59.78 7.20986 59.355 8.37768 59.355 9.72H61.355C61.355 8.82232 61.6233 8.23014 62.0733 7.8148L60.7167 6.34519ZM59.355 9.72C59.355 10.5038 59.5193 11.2581 59.8446 11.9738L61.6654 11.1462C61.4574 10.6886 61.355 10.2162 61.355 9.72H59.355ZM59.8446 11.9738C60.1519 12.6497 60.5978 13.3557 61.1624 14.0897L62.7476 12.8703C62.2455 12.2176 61.8915 11.6436 61.6654 11.1462L59.8446 11.9738ZM61.3973 12.6499L56.2773 16.09L57.3927 17.75L62.5127 14.31L61.3973 12.6499ZM52.955 17.56V11.72H50.955V17.56H52.955ZM51.955 12.72H71.315V10.72H51.955V12.72ZM70.315 11.72V17.56H72.315V11.72H70.315ZM71.315 16.56H51.955V18.56H71.315V16.56ZM122.237 65H121.237V66H122.237V65ZM122.237 55.72V54.72H121.237V55.72H122.237ZM130.637 55.72H131.637V54.72H130.637V55.72ZM130.637 65V66H131.637V65H130.637ZM75.9969 65H74.9969V66H75.9969V65ZM75.9969 55.72V54.72H74.9969V55.72H75.9969ZM116.637 55.72L117.355 56.4161L119 54.72H116.637V55.72ZM111.517 61H110.517V63.4677L112.235 61.6961L111.517 61ZM111.517 8.44V7.44H110.517V8.44H111.517ZM122.237 8.44H123.237V7.44H122.237V8.44ZM122.237 65V66H123.237V65H122.237ZM87.1169 55.72H86.1169V56.72H87.1169V55.72ZM87.1169 19.64V18.64H86.1169V19.64H87.1169ZM97.7569 19.64H98.7569V18.64H97.7569V19.64ZM97.7569 55.72V56.72H98.7569V55.72H97.7569ZM130.637 65H129.637V66H130.637V65ZM130.637 55.72V54.72H129.637V55.72H130.637ZM131.357 56.04L130.557 56.64L130.6 56.6969L130.65 56.7471L131.357 56.04ZM131.837 57L130.867 57.2425L130.881 57.2978L130.901 57.3511L131.837 57ZM132.157 58.52L131.161 58.6105L131.162 58.6195L132.157 58.52ZM132.157 62.28L131.161 62.1895L132.157 62.28ZM131.837 63.8L130.901 63.4489L130.886 63.4866L130.875 63.5253L131.837 63.8ZM131.357 64.68L130.65 63.9729L130.6 64.0231L130.557 64.08L131.357 64.68ZM123.237 65V55.72H121.237V65H123.237ZM122.237 56.72H130.637V54.72H122.237V56.72ZM129.637 55.72V65H131.637V55.72H129.637ZM130.637 64H122.237V66H130.637V64ZM76.9969 65V55.72H74.9969V65H76.9969ZM75.9969 56.72H116.637V54.72H75.9969V56.72ZM115.919 55.0239L110.799 60.3039L112.235 61.6961L117.355 56.4161L115.919 55.0239ZM112.517 61V8.44H110.517V61H112.517ZM111.517 9.44H122.237V7.44H111.517V9.44ZM121.237 8.44V65H123.237V8.44H121.237ZM122.237 64H75.9969V66H122.237V64ZM88.1169 55.72V19.64H86.1169V55.72H88.1169ZM87.1169 20.64H97.7569V18.64H87.1169V20.64ZM96.7569 19.64V55.72H98.7569V19.64H96.7569ZM97.7569 54.72H87.1169V56.72H97.7569V54.72ZM131.637 65V55.72H129.637V65H131.637ZM130.637 56.72C130.687 56.72 130.683 56.7283 130.651 56.7138C130.634 56.7066 130.616 56.6957 130.597 56.6809C130.579 56.6661 130.565 56.6513 130.557 56.64L132.157 55.44C131.769 54.9232 131.201 54.72 130.637 54.72V56.72ZM130.65 56.7471C130.689 56.7866 130.785 56.9161 130.867 57.2425L132.807 56.7575C132.675 56.2306 132.451 55.7201 132.064 55.3329L130.65 56.7471ZM130.901 57.3511C131.022 57.6737 131.114 58.0885 131.161 58.6105L133.153 58.4295C133.094 57.7782 132.972 57.1796 132.773 56.6489L130.901 57.3511ZM131.162 58.6195C131.211 59.1118 131.237 59.6908 131.237 60.36H133.237C133.237 59.6425 133.209 58.9948 133.152 58.4205L131.162 58.6195ZM131.237 60.36C131.237 61.0282 131.211 61.6376 131.161 62.1895L133.153 62.3705C133.209 61.7491 133.237 61.0784 133.237 60.36H131.237ZM131.161 62.1895C131.114 62.7115 131.022 63.1263 130.901 63.4489L132.773 64.1511C132.972 63.6203 133.094 63.0218 133.153 62.3705L131.161 62.1895ZM130.875 63.5253C130.802 63.7809 130.713 63.9094 130.65 63.9729L132.064 65.3871C132.427 65.0239 132.658 64.5657 132.798 64.0747L130.875 63.5253ZM130.557 64.08C130.565 64.0687 130.579 64.0539 130.597 64.0391C130.616 64.0243 130.634 64.0134 130.651 64.0062C130.683 63.9917 130.687 64 130.637 64V66C131.201 66 131.769 65.7968 132.157 65.28L130.557 64.08ZM177.889 65H176.889V66H177.889V65ZM177.889 55.72V54.72H176.889V55.72H177.889ZM186.369 55.72H187.369V54.72H186.369V55.72ZM186.369 65V66H187.369V65H186.369ZM130.609 65V66H131.609V65H130.609ZM129.889 64.68L130.689 64.08L130.647 64.0231L130.596 63.9729L129.889 64.68ZM129.409 63.8L130.371 63.5253L130.36 63.4866L130.346 63.4489L129.409 63.8ZM129.169 57.96L130.156 58.1244L130.158 58.1121L129.169 57.96ZM129.729 56.36L130.543 56.9412L130.589 56.8774L130.624 56.8072L129.729 56.36ZM130.609 55.72H131.609V54.72H130.609V55.72ZM130.609 65H129.609V66H130.609V65ZM130.609 55.72V54.72H129.609V55.72H130.609ZM172.129 55.72L172.778 56.481L174.844 54.72H172.129V55.72ZM167.249 59.88H166.249V62.0465L167.898 60.641L167.249 59.88ZM166.289 38.44L165.357 38.801L165.361 38.8114L166.289 38.44ZM162.929 35L162.52 35.9125L162.539 35.9209L162.558 35.9285L162.929 35ZM149.969 34.44L150.097 35.4319L150.107 35.4305L150.118 35.4289L149.969 34.44ZM145.089 35.56L144.405 34.8313L145.468 36.4855L145.089 35.56ZM151.729 29.32L152.697 29.5724L153.573 26.2154L151.045 28.5913L151.729 29.32ZM150.769 33.96L149.784 33.791L149.781 33.8048L149.779 33.8186L150.769 33.96ZM150.049 39.96L151.044 40.062L151.044 40.0595L150.049 39.96ZM149.969 51.96L148.972 52.0387L148.974 52.0517L148.975 52.0647L149.969 51.96ZM150.609 57.32L149.619 57.4566L149.621 57.4733L149.624 57.4899L150.609 57.32ZM151.249 60.52L151.515 61.4841L152.477 61.2191L152.214 60.2569L151.249 60.52ZM141.089 63.32L140.128 63.5947L140.4 64.5473L141.355 64.2841L141.089 63.32ZM140.289 59.64L141.272 59.4557L140.289 59.64ZM139.409 53.56L138.413 53.6505L138.415 53.6617L138.416 53.6729L139.409 53.56ZM139.489 38.44L140.484 38.5481L140.484 38.5458L139.489 38.44ZM140.369 31.72L139.386 31.5388L139.384 31.5494L139.382 31.5599L140.369 31.72ZM141.409 26.84L141.058 25.9037L140.573 26.0858L140.442 26.5876L141.409 26.84ZM147.409 25.4L147.236 24.4152L147.409 25.4ZM168.369 26.68L167.979 27.6008L167.985 27.6031L168.369 26.68ZM175.489 33.16L174.601 33.6199L174.608 33.6322L175.489 33.16ZM177.889 65V66H178.889V65H177.889ZM186.369 65H185.369V66H186.369V65ZM186.369 55.72V54.72H185.369V55.72H186.369ZM187.569 57L186.599 57.2425V57.2425L187.569 57ZM187.809 58.52L186.813 58.6105L186.818 58.6637L186.829 58.7161L187.809 58.52ZM187.809 62.28L186.826 62.1011L186.818 62.145L186.813 62.1895L187.809 62.28ZM187.569 63.8L188.531 64.0747L188.535 64.0587L188.54 64.0425L187.569 63.8ZM178.889 65V55.72H176.889V65H178.889ZM177.889 56.72H186.369V54.72H177.889V56.72ZM185.369 55.72V65H187.369V55.72H185.369ZM186.369 64H177.889V66H186.369V64ZM130.609 64C130.559 64 130.563 63.9917 130.596 64.0062C130.612 64.0134 130.631 64.0243 130.649 64.0391C130.668 64.0539 130.681 64.0687 130.689 64.08L129.089 65.28C129.477 65.7968 130.045 66 130.609 66V64ZM130.596 63.9729C130.533 63.9094 130.444 63.7809 130.371 63.5253L128.448 64.0747C128.588 64.5657 128.819 65.0239 129.182 65.3871L130.596 63.9729ZM130.346 63.4489C130.225 63.1263 130.133 62.7115 130.085 62.1895L128.093 62.3705C128.153 63.0218 128.274 63.6203 128.473 64.1511L130.346 63.4489ZM130.085 62.1895C130.035 61.6376 130.009 61.0282 130.009 60.36H128.009C128.009 61.0784 128.037 61.7491 128.093 62.3705L130.085 62.1895ZM130.009 60.36C130.009 59.4316 130.061 58.691 130.156 58.1244L128.183 57.7956C128.064 58.509 128.009 59.3684 128.009 60.36H130.009ZM130.158 58.1121C130.252 57.499 130.403 57.1375 130.543 56.9412L128.916 55.7788C128.522 56.3292 128.3 57.0343 128.181 57.8079L130.158 58.1121ZM130.624 56.8072C130.681 56.6937 130.715 56.6762 130.698 56.6887C130.688 56.6958 130.671 56.7054 130.649 56.7124C130.628 56.7193 130.613 56.72 130.609 56.72V54.72C129.747 54.72 129.162 55.2591 128.835 55.9128L130.624 56.8072ZM129.609 55.72V65H131.609V55.72H129.609ZM131.609 65V55.72H129.609V65H131.609ZM130.609 56.72H172.129V54.72H130.609V56.72ZM171.481 54.959L166.601 59.119L167.898 60.641L172.778 56.481L171.481 54.959ZM168.249 59.88V45.16H166.249V59.88H168.249ZM168.249 45.16C168.249 42.2267 167.926 39.84 167.218 38.0686L165.361 38.8114C165.932 40.24 166.249 42.3333 166.249 45.16H168.249ZM167.222 38.079C166.485 36.1753 165.167 34.8179 163.301 34.0715L162.558 35.9285C163.892 36.4621 164.814 37.3981 165.357 38.801L167.222 38.079ZM163.338 34.0875C161.607 33.3112 159.285 32.96 156.449 32.96V34.96C159.16 34.96 161.159 35.3021 162.52 35.9125L163.338 34.0875ZM156.449 32.96C154.214 32.96 152.004 33.1236 149.821 33.4511L150.118 35.4289C152.201 35.1164 154.312 34.96 156.449 34.96V32.96ZM149.842 33.4481C147.724 33.7197 146 34.1071 144.711 34.6344L145.468 36.4855C146.526 36.0529 148.054 35.6937 150.097 35.4319L149.842 33.4481ZM145.774 36.2887L152.414 30.0487L151.045 28.5913L144.405 34.8313L145.774 36.2887ZM150.762 29.0676C150.432 30.3316 150.106 31.9085 149.784 33.791L151.755 34.129C152.072 32.2781 152.387 30.7617 152.697 29.5724L150.762 29.0676ZM149.779 33.8186C149.511 35.7009 149.269 37.715 149.054 39.8605L151.044 40.0595C151.257 37.9383 151.495 35.9524 151.759 34.1014L149.779 33.8186ZM149.055 39.858C148.838 41.9708 148.729 44.0582 148.729 46.12H150.729C150.729 44.1285 150.834 42.1092 151.044 40.062L149.055 39.858ZM148.729 46.12C148.729 48.0151 148.811 49.9881 148.972 52.0387L150.966 51.8813C150.808 49.8785 150.729 47.9582 150.729 46.12H148.729ZM148.975 52.0647C149.189 54.099 149.404 55.8967 149.619 57.4566L151.6 57.1834C151.388 55.65 151.176 53.8743 150.964 51.8553L148.975 52.0647ZM149.624 57.4899C149.89 59.0341 150.11 60.1446 150.285 60.7831L152.214 60.2569C152.068 59.7221 151.862 58.6993 151.595 57.1501L149.624 57.4899ZM150.984 59.5559L140.824 62.3559L141.355 64.2841L151.515 61.4841L150.984 59.5559ZM142.051 63.0453C141.851 62.3469 141.592 61.1597 141.272 59.4557L139.307 59.8243C139.627 61.5337 139.901 62.7998 140.128 63.5947L142.051 63.0453ZM141.272 59.4557C140.958 57.7794 140.668 55.7777 140.403 53.4471L138.416 53.6729C138.684 56.0356 138.981 58.0873 139.307 59.8243L141.272 59.4557ZM140.405 53.4695C140.195 51.1559 140.089 48.7063 140.089 46.12H138.089C138.089 48.7603 138.197 51.2707 138.413 53.6505L140.405 53.4695ZM140.089 46.12C140.089 43.4866 140.221 40.9628 140.484 38.5481L138.495 38.3319C138.224 40.8239 138.089 43.4201 138.089 46.12H140.089ZM140.484 38.5458C140.749 36.0528 141.04 33.8315 141.356 31.8801L139.382 31.5599C139.059 33.5552 138.763 35.8138 138.495 38.3342L140.484 38.5458ZM141.353 31.9012C141.724 29.8857 142.066 28.2856 142.377 27.0924L140.442 26.5876C140.113 27.8477 139.761 29.501 139.386 31.5388L141.353 31.9012ZM141.76 27.7763C142.951 27.3301 144.876 26.8626 147.583 26.3848L147.236 24.4152C144.503 24.8974 142.428 25.3899 141.058 25.9037L141.76 27.7763ZM147.583 26.3848C150.236 25.9167 153.19 25.68 156.449 25.68V23.68C153.095 23.68 150.023 23.9233 147.236 24.4152L147.583 26.3848ZM156.449 25.68C161.166 25.68 164.995 26.3363 167.979 27.6007L168.76 25.7592C165.45 24.357 161.333 23.68 156.449 23.68V25.68ZM167.985 27.6031C170.975 28.849 173.166 30.8489 174.601 33.6199L176.377 32.7001C174.719 29.4978 172.164 27.1777 168.754 25.7569L167.985 27.6031ZM174.608 33.6322C176.101 36.4193 176.889 40.2629 176.889 45.24H178.889C178.889 40.0838 178.078 35.874 176.371 32.6878L174.608 33.6322ZM176.889 45.24V65H178.889V45.24H176.889ZM177.889 64H130.609V66H177.889V64ZM187.369 65V55.72H185.369V65H187.369ZM186.369 56.72C186.369 56.72 186.365 56.7199 186.358 56.7186C186.352 56.7172 186.347 56.7153 186.343 56.7138C186.34 56.7124 186.342 56.7126 186.348 56.717C186.354 56.7214 186.366 56.7306 186.382 56.7471L187.796 55.3329C187.422 54.9589 186.937 54.72 186.369 54.72V56.72ZM186.382 56.7471C186.422 56.7866 186.518 56.9161 186.599 57.2425L188.54 56.7575C188.408 56.2306 188.184 55.7201 187.796 55.3329L186.382 56.7471ZM186.599 57.2425C186.69 57.6058 186.763 58.0591 186.813 58.6105L188.805 58.4295C188.749 57.8076 188.662 57.2476 188.54 56.7575L186.599 57.2425ZM186.829 58.7161C186.92 59.1701 186.969 59.7155 186.969 60.36H188.969C188.969 59.6178 188.912 58.9366 188.79 58.3239L186.829 58.7161ZM186.969 60.36C186.969 61.0028 186.92 61.5821 186.826 62.1011L188.793 62.4589C188.912 61.8046 188.969 61.1039 188.969 60.36H186.969ZM186.813 62.1895C186.763 62.7409 186.69 63.1942 186.599 63.5575L188.54 64.0425C188.662 63.5524 188.749 62.9924 188.805 62.3705L186.813 62.1895ZM186.608 63.5253C186.535 63.7809 186.446 63.9094 186.382 63.9729L187.796 65.3871C188.16 65.0239 188.391 64.5657 188.531 64.0747L186.608 63.5253ZM186.382 63.9729C186.366 63.9894 186.354 63.9986 186.348 64.003C186.342 64.0074 186.34 64.0076 186.343 64.0062C186.347 64.0047 186.352 64.0028 186.358 64.0014C186.365 64.0001 186.369 64 186.369 64V66C186.937 66 187.422 65.7611 187.796 65.3871L186.382 63.9729ZM201.431 63.72L200.745 64.4482L201.398 65.0622L202.079 64.4809L201.431 63.72ZM195.271 55.56L194.363 55.9801L194.366 55.987L194.37 55.9938L195.271 55.56ZM195.031 37.72L195.943 38.1296L195.946 38.1227L195.031 37.72ZM199.831 30.84L200.518 31.566L199.831 30.84ZM206.871 26.44L207.226 27.3748L207.236 27.371L206.871 26.44ZM220.471 25.32L220.65 24.3361L220.471 25.32ZM225.511 26.6L226.449 26.9445L226.804 25.9772L225.827 25.6513L225.511 26.6ZM222.311 35.32L221.994 36.2687L222.915 36.5756L223.249 35.6645L222.311 35.32ZM218.951 34.44L218.755 35.4206L218.764 35.4223L218.951 34.44ZM209.591 35.72L210.078 36.5929L210.088 36.5875L210.098 36.5819L209.591 35.72ZM205.351 39.96L204.478 39.4722L204.472 39.4821L204.467 39.4921L205.351 39.96ZM205.191 52.2L204.281 52.6158L204.286 52.6264L204.291 52.6369L205.191 52.2ZM209.031 57.24L209.679 58.001L210.547 57.2617L209.701 56.4979L209.031 57.24ZM186.391 65H185.391V66H186.391V65ZM186.391 55.72V54.72H185.391V55.72H186.391ZM226.231 55.72H227.231V54.72H226.231V55.72ZM226.231 65V66H227.231V65H226.231ZM186.391 65V66H187.391V65H186.391ZM185.671 64.68L186.471 64.08L186.428 64.0231L186.378 63.9729L185.671 64.68ZM185.191 63.8L186.152 63.5253L186.141 63.4866L186.127 63.4489L185.191 63.8ZM184.951 57.96L185.937 58.1244L185.939 58.1121L184.951 57.96ZM185.511 56.36L186.324 56.9412L186.37 56.8774L186.405 56.8072L185.511 56.36ZM186.391 55.72H187.391V54.72H186.391V55.72ZM202.116 62.9918C199.471 60.5019 197.497 57.8787 196.172 55.1262L194.37 55.9938C195.818 59.0013 197.951 61.8181 200.745 64.4482L202.116 62.9918ZM196.178 55.1399C194.907 52.3949 194.271 49.472 194.271 46.36H192.271C192.271 49.7547 192.967 52.9651 194.363 55.9801L196.178 55.1399ZM194.271 46.36C194.271 43.3405 194.833 40.6019 195.943 38.1296L194.118 37.3104C192.882 40.0648 192.271 43.0862 192.271 46.36H194.271ZM195.946 38.1227C197.068 35.5725 198.593 33.3904 200.518 31.566L199.143 30.114C197.015 32.1295 195.34 34.5342 194.115 37.3173L195.946 38.1227ZM200.518 31.566C202.447 29.7389 204.68 28.3422 207.226 27.3748L206.515 25.5052C203.728 26.5644 201.268 28.1011 199.143 30.114L200.518 31.566ZM207.236 27.371C209.837 26.3509 212.566 25.84 215.431 25.84V23.84C212.322 23.84 209.344 24.3957 206.506 25.509L207.236 27.371ZM215.431 25.84C216.964 25.84 218.584 25.9934 220.292 26.3039L220.65 24.3361C218.837 24.0066 217.097 23.84 215.431 23.84V25.84ZM220.292 26.3039C222.008 26.6159 223.642 27.0312 225.194 27.5487L225.827 25.6513C224.179 25.1021 222.453 24.6641 220.65 24.3361L220.292 26.3039ZM224.572 26.2555L221.372 34.9755L223.249 35.6645L226.449 26.9445L224.572 26.2555ZM222.627 34.3713C221.466 33.9844 220.303 33.6796 219.138 33.4577L218.764 35.4223C219.838 35.627 220.915 35.9089 221.994 36.2687L222.627 34.3713ZM219.147 33.4594C218.02 33.2341 216.914 33.12 215.831 33.12V35.12C216.773 35.12 217.748 35.2192 218.755 35.4206L219.147 33.4594ZM215.831 33.12C213.327 33.12 211.068 33.6909 209.084 34.8581L210.098 36.5819C211.74 35.6158 213.641 35.12 215.831 35.12V33.12ZM209.103 34.8471C207.128 35.9507 205.581 37.4973 204.478 39.4722L206.224 40.4478C207.147 38.796 208.427 37.516 210.078 36.5929L209.103 34.8471ZM204.467 39.4921C203.42 41.4691 202.911 43.7139 202.911 46.2H204.911C204.911 43.9928 205.361 42.0775 206.234 40.4279L204.467 39.4921ZM202.911 46.2C202.911 48.471 203.366 50.6134 204.281 52.6158L206.1 51.7842C205.309 50.0532 204.911 48.1957 204.911 46.2H202.911ZM204.291 52.6369C205.258 54.6274 206.619 56.4091 208.36 57.9821L209.701 56.4979C208.136 55.0842 206.937 53.506 206.09 51.7631L204.291 52.6369ZM208.382 56.479L200.782 62.9591L202.079 64.4809L209.679 58.001L208.382 56.479ZM187.391 65V55.72H185.391V65H187.391ZM186.391 56.72H226.231V54.72H186.391V56.72ZM225.231 55.72V65H227.231V55.72H225.231ZM226.231 64H186.391V66H226.231V64ZM186.391 64C186.341 64 186.344 63.9917 186.377 64.0062C186.393 64.0134 186.412 64.0243 186.43 64.0391C186.449 64.0539 186.462 64.0687 186.471 64.08L184.871 65.28C185.258 65.7968 185.827 66 186.391 66V64ZM186.378 63.9729C186.314 63.9094 186.225 63.7809 186.152 63.5253L184.229 64.0747C184.369 64.5657 184.6 65.0239 184.964 65.3871L186.378 63.9729ZM186.127 63.4489C186.006 63.1263 185.914 62.7115 185.867 62.1895L183.875 62.3705C183.934 63.0218 184.055 63.6203 184.254 64.1511L186.127 63.4489ZM185.867 62.1895C185.816 61.6376 185.791 61.0282 185.791 60.36H183.791C183.791 61.0784 183.818 61.7491 183.875 62.3705L185.867 62.1895ZM185.791 60.36C185.791 59.4316 185.843 58.691 185.937 58.1244L183.964 57.7956C183.845 58.509 183.791 59.3684 183.791 60.36H185.791ZM185.939 58.1121C186.033 57.499 186.184 57.1375 186.324 56.9412L184.697 55.7788C184.304 56.3292 184.081 57.0343 183.962 57.8079L185.939 58.1121ZM186.405 56.8072C186.462 56.6937 186.496 56.6762 186.479 56.6887C186.469 56.6958 186.452 56.7054 186.43 56.7124C186.409 56.7193 186.394 56.72 186.391 56.72V54.72C185.528 54.72 184.943 55.2591 184.616 55.9128L186.405 56.8072ZM185.391 55.72V65H187.391V55.72H185.391ZM341.742 65H340.742V66H341.742V65ZM341.742 55.72V54.72H340.742V55.72H341.742ZM350.223 55.72H351.223V54.72H350.223V55.72ZM350.223 65V66H351.223V65H350.223ZM264.943 82.28L265.363 81.3728L265.357 81.3701L264.943 82.28ZM256.383 75.32L255.562 75.8915L256.383 75.32ZM253.503 60.92L252.507 60.8295L253.503 60.92ZM254.142 55L253.153 54.8552L253.151 54.8671L253.15 54.8789L254.142 55ZM255.103 48.36L254.115 48.1993L254.114 48.2089L254.113 48.2186L255.103 48.36ZM256.142 41.72L256.278 40.7292L255.3 40.5958L255.154 41.5717L256.142 41.72ZM266.703 43.16L267.689 43.322L267.856 42.308L266.838 42.1692L266.703 43.16ZM265.182 53L264.193 52.8586L264.191 52.8662L264.19 52.8737L265.182 53ZM264.302 60.52L263.308 60.418L264.302 60.52ZM265.582 70.6L264.759 71.1677L265.582 70.6ZM270.142 74.2L270.551 73.2871L270.539 73.2821L270.142 74.2ZM284.543 74.28L284.968 75.1848L284.543 74.28ZM288.462 70.76L287.594 70.2639L287.587 70.2757L287.581 70.2878L288.462 70.76ZM289.742 24.84V23.84H288.742V24.84H289.742ZM300.462 24.84H301.462V23.84H300.462V24.84ZM297.422 75.8L296.605 75.2245L296.598 75.2348L297.422 75.8ZM289.263 82.44L288.855 81.5267L288.843 81.532L289.263 82.44ZM300.302 65L299.303 64.9828L299.285 66H300.302V65ZM300.462 55.72V54.72H299.48L299.463 55.7028L300.462 55.72ZM340.143 55.72L340.798 56.4755L342.822 54.72H340.143V55.72ZM331.103 63.56H330.103V65.7509L331.758 64.3155L331.103 63.56ZM329.823 39.48L328.903 39.8739L328.91 39.89L328.918 39.9058L329.823 39.48ZM314.383 35.48L313.983 34.5633L313.974 34.5672L314.383 35.48ZM303.823 43.64L303.08 42.9697L303.823 43.64ZM299.823 48.44L300.609 49.0578L300.614 49.0511L300.619 49.0444L299.823 48.44ZM296.783 52.28L295.83 52.5844L296.398 54.3615L297.563 52.9047L296.783 52.28ZM294.302 44.52L293.533 43.8814L293.183 44.3028L293.35 44.8244L294.302 44.52ZM299.902 37.64L299.129 37.0057L299.125 37.0117L299.12 37.0178L299.902 37.64ZM304.703 32.12L303.984 31.425L303.977 31.4313L303.971 31.4377L304.703 32.12ZM315.022 25.72L315.277 26.6871L315.289 26.684L315.301 26.6806L315.022 25.72ZM331.103 26.68L330.663 27.5782L330.671 27.582L330.679 27.5857L331.103 26.68ZM337.182 31.56L336.38 32.1567L336.385 32.1632L336.39 32.1697L337.182 31.56ZM340.622 38.6L339.656 38.8564L339.658 38.8656L339.661 38.8747L340.622 38.6ZM341.742 65V66H342.742V65H341.742ZM350.223 65H349.223V66H350.223V65ZM350.223 55.72V54.72H349.223V55.72H350.223ZM350.943 56.04L350.235 56.7471L350.235 56.7471L350.943 56.04ZM351.423 57L350.452 57.2425L351.423 57ZM351.663 58.52L350.667 58.6105L350.671 58.6637L350.682 58.7161L351.663 58.52ZM351.663 62.28L350.679 62.1011L350.671 62.145L350.667 62.1895L351.663 62.28ZM351.423 63.8L352.384 64.0747L352.389 64.0587L352.393 64.0425L351.423 63.8ZM350.943 64.68L350.235 63.9729L350.235 63.9729L350.943 64.68ZM311.342 17.56H310.342V18.56H311.342V17.56ZM311.342 8.44V7.44H310.342V8.44H311.342ZM322.062 8.44H323.062V7.44H322.062V8.44ZM322.062 17.56V18.56H323.062V17.56H322.062ZM342.742 65V55.72H340.742V65H342.742ZM341.742 56.72H350.223V54.72H341.742V56.72ZM349.223 55.72V65H351.223V55.72H349.223ZM350.223 64H341.742V66H350.223V64ZM277.422 83.84C272.907 83.84 268.894 83.0101 265.363 81.3728L264.522 83.1872C268.351 84.9632 272.658 85.84 277.422 85.84V83.84ZM265.357 81.3701C261.878 79.7839 259.171 77.5742 257.203 74.7485L255.562 75.8915C257.754 79.0391 260.754 81.4695 264.528 83.1899L265.357 81.3701ZM257.203 74.7485C255.245 71.9366 254.263 68.7511 254.263 65.16H252.263C252.263 69.1422 253.36 72.7301 255.562 75.8915L257.203 74.7485ZM254.263 65.16C254.263 64.1367 254.34 62.7572 254.498 61.0105L252.507 60.8295C252.345 62.6028 252.263 64.05 252.263 65.16H254.263ZM254.498 61.0105C254.657 59.2628 254.869 57.2999 255.135 55.1211L253.15 54.8789C252.882 57.0734 252.668 59.0572 252.507 60.8295L254.498 61.0105ZM255.132 55.1448C255.452 52.957 255.772 50.7425 256.092 48.5014L254.113 48.2186C253.793 50.4575 253.473 52.6697 253.153 54.8552L255.132 55.1448ZM256.09 48.5207C256.463 46.2235 256.811 44.0061 257.131 41.8683L255.154 41.5717C254.834 43.7006 254.488 45.9098 254.115 48.1993L256.09 48.5207ZM256.007 42.7108L266.567 44.1508L266.838 42.1692L256.278 40.7292L256.007 42.7108ZM265.716 42.998C265.128 46.5769 264.62 49.8638 264.193 52.8586L266.172 53.1414C266.598 50.1628 267.104 46.8898 267.689 43.322L265.716 42.998ZM264.19 52.8737C263.817 55.8121 263.522 58.3273 263.308 60.418L265.297 60.622C265.51 58.5527 265.802 56.0545 266.174 53.1263L264.19 52.8737ZM263.308 60.418C263.094 62.502 262.983 64.0653 262.983 65.08H264.983C264.983 64.1747 265.084 62.698 265.297 60.622L263.308 60.418ZM262.983 65.08C262.983 67.3877 263.562 69.4321 264.759 71.1677L266.406 70.0323C265.469 68.6745 264.983 67.039 264.983 65.08H262.983ZM264.759 71.1677C265.947 72.8901 267.626 74.2011 269.746 75.1179L270.539 73.2821C268.713 72.4922 267.351 71.4033 266.406 70.0323L264.759 71.1677ZM269.734 75.1128C271.919 76.0904 274.492 76.56 277.422 76.56V74.56C274.7 74.56 272.419 74.123 270.551 73.2872L269.734 75.1128ZM277.422 76.56C280.44 76.56 282.975 76.123 284.968 75.1848L284.117 73.3752C282.484 74.1437 280.271 74.56 277.422 74.56V76.56ZM284.968 75.1848C286.939 74.2573 288.425 72.9479 289.344 71.2322L287.581 70.2878C286.9 71.5588 285.772 72.5961 284.117 73.3752L284.968 75.1848ZM289.331 71.2561C290.278 69.599 290.742 67.7454 290.742 65.72H288.742C288.742 67.4279 288.354 68.9344 287.594 70.2639L289.331 71.2561ZM290.742 65.72V24.84H288.742V65.72H290.742ZM289.742 25.84H300.462V23.84H289.742V25.84ZM299.462 24.84V65.72H301.462V24.84H299.462ZM299.462 65.72C299.462 69.3735 298.502 72.5283 296.605 75.2245L298.24 76.3755C300.396 73.3117 301.462 69.7465 301.462 65.72H299.462ZM296.598 75.2348C294.738 77.9492 292.168 80.0485 288.855 81.5268L289.67 83.3532C293.29 81.7381 296.161 79.4108 298.247 76.3652L296.598 75.2348ZM288.843 81.532C285.527 83.0625 281.727 83.84 277.422 83.84V85.84C281.971 85.84 286.064 85.0175 289.682 83.348L288.843 81.532ZM301.302 65.0172L301.462 55.7372L299.463 55.7028L299.303 64.9828L301.302 65.0172ZM300.462 56.72H340.143V54.72H300.462V56.72ZM339.487 54.9645L330.447 62.8045L331.758 64.3155L340.798 56.4755L339.487 54.9645ZM332.103 63.56V46.76H330.103V63.56H332.103ZM332.103 46.76C332.103 43.6419 331.667 41.0516 330.727 39.0542L328.918 39.9058C329.684 41.5351 330.103 43.7981 330.103 46.76H332.103ZM330.742 39.0861C329.872 37.0569 328.593 35.5116 326.879 34.5318L325.886 36.2682C327.158 36.9951 328.173 38.1698 328.903 39.8739L330.742 39.0861ZM326.879 34.5318C325.202 33.5736 323.208 33.12 320.943 33.12V35.12C322.943 35.12 324.576 35.5197 325.886 36.2682L326.879 34.5318ZM320.943 33.12C318.513 33.12 316.19 33.6011 313.983 34.5633L314.782 36.3967C316.735 35.5456 318.785 35.12 320.943 35.12V33.12ZM313.974 34.5672C311.865 35.5109 309.896 36.7314 308.069 38.226L309.336 39.774C311.029 38.3886 312.847 37.2625 314.791 36.3928L313.974 34.5672ZM308.069 38.226C306.271 39.6972 304.608 41.2784 303.08 42.9697L304.565 44.3103C306.024 42.695 307.614 41.1828 309.336 39.774L308.069 38.226ZM303.08 42.9697C301.571 44.6412 300.219 46.2632 299.026 47.8356L300.619 49.0444C301.773 47.5235 303.088 45.9455 304.565 44.3103L303.08 42.9697ZM299.036 47.8222C297.864 49.314 296.853 50.5916 296.002 51.6553L297.563 52.9047C298.419 51.8351 299.434 50.5526 300.609 49.0578L299.036 47.8222ZM297.735 51.9756L295.255 44.2156L293.35 44.8244L295.83 52.5844L297.735 51.9756ZM295.072 45.1586C297.156 42.6477 299.027 40.3488 300.685 38.2622L299.12 37.0178C297.472 39.0912 295.609 41.379 293.533 43.8814L295.072 45.1586ZM300.676 38.2743C302.372 36.2072 303.958 34.3837 305.434 32.8023L303.971 31.4377C302.461 33.0563 300.847 34.9128 299.129 37.0057L300.676 38.2743ZM305.421 32.815C306.922 31.263 308.463 29.9805 310.045 28.9603L308.96 27.2797C307.235 28.3929 305.577 29.777 303.984 31.425L305.421 32.815ZM310.045 28.9603C311.604 27.9544 313.346 27.1953 315.277 26.6871L314.768 24.7529C312.646 25.3113 310.708 26.1523 308.96 27.2797L310.045 28.9603ZM315.301 26.6806C317.217 26.1259 319.466 25.84 322.062 25.84V23.84C319.325 23.84 316.882 24.1408 314.744 24.7594L315.301 26.6806ZM322.062 25.84C325.469 25.84 328.324 26.4337 330.663 27.5782L331.542 25.7818C328.868 24.473 325.696 23.84 322.062 23.84V25.84ZM330.679 27.5857C333.046 28.6938 334.939 30.2184 336.38 32.1567L337.985 30.9633C336.333 28.7416 334.172 27.0129 331.526 25.7743L330.679 27.5857ZM336.39 32.1697C337.907 34.1414 338.996 36.3673 339.656 38.8564L341.589 38.3436C340.863 35.6061 339.658 33.1386 337.975 30.9503L336.39 32.1697ZM339.661 38.8747C340.381 41.3952 340.742 44.0225 340.742 46.76H342.742C342.742 43.8442 342.357 41.0315 341.584 38.3253L339.661 38.8747ZM340.742 46.76V65H342.742V46.76H340.742ZM341.742 64H300.302V66H341.742V64ZM351.223 65V55.72H349.223V65H351.223ZM350.223 56.72C350.222 56.72 350.218 56.7199 350.211 56.7186C350.205 56.7172 350.2 56.7153 350.196 56.7138C350.193 56.7124 350.195 56.7126 350.201 56.717C350.207 56.7214 350.219 56.7306 350.235 56.7471L351.65 55.3329C351.276 54.9589 350.79 54.72 350.223 54.72V56.72ZM350.235 56.7471C350.275 56.7866 350.371 56.9161 350.452 57.2425L352.393 56.7575C352.261 56.2305 352.037 55.7201 351.65 55.3329L350.235 56.7471ZM350.452 57.2425C350.543 57.6058 350.616 58.0591 350.667 58.6105L352.658 58.4295C352.602 57.8076 352.515 57.2476 352.393 56.7575L350.452 57.2425ZM350.682 58.7161C350.773 59.1701 350.823 59.7155 350.823 60.36H352.823C352.823 59.6178 352.766 58.9366 352.643 58.3239L350.682 58.7161ZM350.823 60.36C350.823 61.0028 350.773 61.5821 350.679 62.1011L352.646 62.4589C352.765 61.8046 352.823 61.1039 352.823 60.36H350.823ZM350.667 62.1895C350.616 62.7409 350.543 63.1942 350.452 63.5575L352.393 64.0425C352.515 63.5524 352.602 62.9924 352.658 62.3705L350.667 62.1895ZM350.461 63.5253C350.388 63.7809 350.299 63.9094 350.235 63.9729L351.65 65.3871C352.013 65.0239 352.244 64.5657 352.384 64.0747L350.461 63.5253ZM350.235 63.9729C350.219 63.9894 350.207 63.9986 350.201 64.003C350.195 64.0074 350.193 64.0076 350.196 64.0062C350.2 64.0047 350.205 64.0028 350.211 64.0014C350.218 64.0001 350.222 64 350.223 64V66C350.79 66 351.276 65.7611 351.65 65.3871L350.235 63.9729ZM312.342 17.56V8.44H310.342V17.56H312.342ZM311.342 9.44H322.062V7.44H311.342V9.44ZM321.062 8.44V17.56H323.062V8.44H321.062ZM322.062 16.56H311.342V18.56H322.062V16.56ZM350.219 65H349.219V66H350.219V65ZM350.219 55.72V54.72H349.219V55.72H350.219ZM373.819 54.44L374.19 55.3685L374.2 55.3645L374.21 55.3603L373.819 54.44ZM379.659 50.92L380.292 51.694L380.294 51.6919L379.659 50.92ZM384.379 46.04L383.584 45.4325L383.582 45.4361L384.379 46.04ZM387.579 40.52L386.66 40.1261L386.655 40.1373L386.65 40.1486L387.579 40.52ZM388.779 30.12L389.635 29.6031L387.779 26.529V30.12H388.779ZM393.899 38.6L393.425 39.4805L396.646 41.2149L394.755 38.0831L393.899 38.6ZM385.419 35.24L385.67 34.272L385.419 35.24ZM368.939 35.24L368.692 34.2709L368.688 34.272L368.939 35.24ZM360.539 38.6L359.683 38.0831L357.761 41.2658L361.02 39.4766L360.539 38.6ZM365.659 30.12H366.659V26.529L364.803 29.6031L365.659 30.12ZM366.779 40.52L365.85 40.8914L365.855 40.9027L365.86 40.9139L366.779 40.52ZM369.979 46.04L369.173 46.6324L369.177 46.6382L369.182 46.6439L369.979 46.04ZM374.699 50.92L374.063 51.6919L374.07 51.6976L374.077 51.7031L374.699 50.92ZM380.619 54.44L380.228 55.3603L380.237 55.3645L380.247 55.3685L380.619 54.44ZM403.659 55.72H404.659V54.72H403.659V55.72ZM403.659 65V66H404.659V65H403.659ZM378.859 63L378.514 63.9386L378.859 63ZM369.019 57.72L368.412 58.5148L368.421 58.5217L369.019 57.72ZM361.419 50.44L360.63 51.055L360.637 51.0638L360.644 51.0724L361.419 50.44ZM356.619 42.52L355.697 42.9072L355.7 42.9139L356.619 42.52ZM354.939 30.68L354.451 29.8068L353.939 30.0929V30.68H354.939ZM362.219 27.48L361.908 26.5294L361.903 26.5313L362.219 27.48ZM369.979 25.56L370.143 26.5464L370.151 26.545L370.159 26.5435L369.979 25.56ZM384.379 25.56L384.194 26.5429L384.204 26.5447L384.214 26.5464L384.379 25.56ZM392.059 27.48L391.743 28.4287L391.748 28.4306L392.059 27.48ZM399.419 30.68H400.419V30.0929L399.906 29.8068L399.419 30.68ZM397.739 42.52L398.658 42.9139L398.661 42.9072L397.739 42.52ZM392.859 50.44L392.078 49.8153L392.076 49.8173L392.859 50.44ZM385.339 57.72L385.936 58.5218L385.946 58.5148L385.339 57.72ZM375.499 63L375.844 63.9386L375.499 63ZM350.219 65V66H351.219V65H350.219ZM349.499 64.68L350.299 64.08L350.256 64.0231L350.206 63.9729L349.499 64.68ZM349.019 63.8L349.98 63.5253L349.969 63.4866L349.955 63.4489L349.019 63.8ZM348.779 57.96L349.765 58.1244L349.767 58.1121L348.779 57.96ZM349.339 56.36L350.152 56.9412L350.198 56.8774L350.233 56.8072L349.339 56.36ZM350.219 55.72H351.219V54.72H350.219V55.72ZM403.659 65H402.659V66H403.659V65ZM403.659 55.72V54.72H402.659V55.72H403.659ZM404.939 57L403.969 57.2425V57.2425L404.939 57ZM405.179 58.52L404.183 58.6105L404.184 58.6195L405.179 58.52ZM405.179 62.28L404.183 62.1895L405.179 62.28ZM404.939 63.8L405.9 64.0747L405.905 64.0587L405.909 64.0425L404.939 63.8ZM351.219 65V55.72H349.219V65H351.219ZM350.219 56.72H367.179V54.72H350.219V56.72ZM367.179 56.72C369.6 56.72 371.939 56.269 374.19 55.3685L373.447 53.5115C371.432 54.3177 369.345 54.72 367.179 54.72V56.72ZM374.21 55.3603C376.429 54.4173 378.457 53.1951 380.292 51.694L379.026 50.146C377.34 51.5249 375.475 52.6494 373.428 53.5197L374.21 55.3603ZM380.294 51.6919C382.164 50.1522 383.793 48.4698 385.176 46.6439L383.582 45.4361C382.298 47.1302 380.78 48.7011 379.023 50.1481L380.294 51.6919ZM385.173 46.6474C386.608 44.7715 387.723 42.853 388.507 40.8914L386.65 40.1486C385.942 41.9203 384.923 43.6819 383.584 45.4325L385.173 46.6474ZM388.498 40.9139C389.339 38.9504 389.779 37.0559 389.779 35.24H387.779C387.779 36.7307 387.418 38.3562 386.66 40.1261L388.498 40.9139ZM389.779 35.24V30.12H387.779V35.24H389.779ZM387.923 30.6369L393.043 39.1169L394.755 38.0831L389.635 29.6031L387.923 30.6369ZM394.373 37.7195C391.533 36.1904 388.632 35.0399 385.67 34.272L385.168 36.208C387.966 36.9334 390.718 38.0229 393.425 39.4805L394.373 37.7195ZM385.67 34.272C382.719 33.507 379.887 33.12 377.179 33.12V35.12C379.697 35.12 382.359 35.4797 385.168 36.208L385.67 34.272ZM377.179 33.12C374.522 33.12 371.692 33.5073 368.692 34.2709L369.185 36.2091C372.052 35.4793 374.715 35.12 377.179 35.12V33.12ZM368.688 34.272C365.724 35.0404 362.847 36.1919 360.057 37.7234L361.02 39.4766C363.67 38.0214 366.393 36.933 369.19 36.208L368.688 34.272ZM361.395 39.1169L366.515 30.6369L364.803 29.6031L359.683 38.0831L361.395 39.1169ZM364.659 30.12V35.24H366.659V30.12H364.659ZM364.659 35.24C364.659 37.0448 365.066 38.9314 365.85 40.8914L367.707 40.1486C366.998 38.3752 366.659 36.7419 366.659 35.24H364.659ZM365.86 40.9139C366.693 42.858 367.799 44.764 369.173 46.6324L370.784 45.4476C369.492 43.6893 368.465 41.9154 367.698 40.1261L365.86 40.9139ZM369.182 46.6439C370.565 48.4698 372.193 50.1522 374.063 51.6919L375.334 50.1481C373.577 48.7011 372.059 47.1302 370.776 45.4361L369.182 46.6439ZM374.077 51.7031C375.961 53.1991 378.012 54.4185 380.228 55.3603L381.01 53.5197C378.959 52.6481 377.064 51.5209 375.321 50.1369L374.077 51.7031ZM380.247 55.3685C382.496 56.2678 384.808 56.72 387.179 56.72V54.72C385.069 54.72 383.008 54.3188 380.99 53.5115L380.247 55.3685ZM387.179 56.72H403.659V54.72H387.179V56.72ZM402.659 55.72V65H404.659V55.72H402.659ZM403.659 64H390.539V66H403.659V64ZM390.539 64C386.487 64 382.712 63.3511 379.204 62.0614L378.514 63.9386C382.259 65.3156 386.27 66 390.539 66V64ZM379.204 62.0614C375.662 60.7594 372.468 59.0442 369.616 56.9183L368.421 58.5217C371.436 60.7691 374.802 62.5739 378.514 63.9386L379.204 62.0614ZM369.626 56.9252C366.749 54.7282 364.273 52.3551 362.193 49.8076L360.644 51.0724C362.831 53.7516 365.422 56.2318 368.412 58.5148L369.626 56.9252ZM362.207 49.825C360.17 47.2137 358.618 44.6472 357.538 42.1261L355.7 42.9139C356.859 45.6195 358.507 48.333 360.63 51.055L362.207 49.825ZM357.541 42.1328C356.456 39.5512 355.939 37.2583 355.939 35.24H353.939C353.939 37.5951 354.541 40.1555 355.697 42.9072L357.541 42.1328ZM355.939 35.24V30.68H353.939V35.24H355.939ZM355.426 31.5532C357.663 30.3045 360.033 29.2628 362.535 28.4287L361.903 26.5313C359.285 27.4039 356.801 28.4955 354.451 29.8068L355.426 31.5532ZM362.529 28.4306C365.098 27.5919 367.635 26.9643 370.143 26.5464L369.814 24.5736C367.202 25.009 364.567 25.6614 361.908 26.5294L362.529 28.4306ZM370.159 26.5435C372.725 26.0722 375.064 25.84 377.179 25.84V23.84C374.92 23.84 372.459 24.0877 369.798 24.5765L370.159 26.5435ZM377.179 25.84C379.348 25.84 381.686 26.0725 384.194 26.5429L384.563 24.5771C381.952 24.0875 379.49 23.84 377.179 23.84V25.84ZM384.214 26.5464C386.721 26.9641 389.23 27.5912 391.743 28.4287L392.375 26.5313C389.767 25.6621 387.157 25.0092 384.543 24.5736L384.214 26.5464ZM391.748 28.4306C394.303 29.2648 396.697 30.3061 398.931 31.5532L399.906 29.8068C397.554 28.4939 395.041 27.4018 392.369 26.5294L391.748 28.4306ZM398.419 30.68V35.24H400.419V30.68H398.419ZM398.419 35.24C398.419 37.2583 397.901 39.5512 396.817 42.1328L398.661 42.9072C399.816 40.1555 400.419 37.5951 400.419 35.24H398.419ZM396.82 42.1261C395.741 44.642 394.166 47.2054 392.078 49.8153L393.64 51.0647C395.818 48.3413 397.496 45.6247 398.658 42.9139L396.82 42.1261ZM392.076 49.8173C390.053 52.3599 387.607 54.73 384.732 56.9252L385.946 58.5148C388.938 56.23 391.505 53.7467 393.641 51.0627L392.076 49.8173ZM384.741 56.9183C381.889 59.0442 378.695 60.7594 375.154 62.0614L375.844 63.9386C379.556 62.5739 382.922 60.7691 385.936 58.5217L384.741 56.9183ZM375.154 62.0614C371.646 63.3511 367.87 64 363.819 64V66C368.087 66 372.098 65.3156 375.844 63.9386L375.154 62.0614ZM363.819 64H350.219V66H363.819V64ZM350.219 64C350.169 64 350.172 63.9917 350.205 64.0062C350.221 64.0134 350.24 64.0243 350.258 64.0391C350.277 64.0539 350.29 64.0687 350.299 64.08L348.699 65.28C349.086 65.7968 349.655 66 350.219 66V64ZM350.206 63.9729C350.142 63.9094 350.053 63.7809 349.98 63.5253L348.057 64.0747C348.198 64.5657 348.428 65.0239 348.792 65.3871L350.206 63.9729ZM349.955 63.4489C349.834 63.1263 349.742 62.7115 349.695 62.1895L347.703 62.3705C347.762 63.0218 347.883 63.6203 348.082 64.1511L349.955 63.4489ZM349.695 62.1895C349.644 61.6376 349.619 61.0282 349.619 60.36H347.619C347.619 61.0784 347.646 61.7491 347.703 62.3705L349.695 62.1895ZM349.619 60.36C349.619 59.4316 349.671 58.691 349.765 58.1244L347.792 57.7956C347.673 58.509 347.619 59.3684 347.619 60.36H349.619ZM349.767 58.1121C349.861 57.499 350.012 57.1375 350.152 56.9412L348.525 55.7788C348.132 56.3292 347.909 57.0343 347.79 57.8079L349.767 58.1121ZM350.233 56.8072C350.29 56.6937 350.324 56.6762 350.307 56.6887C350.297 56.6958 350.28 56.7054 350.259 56.7124C350.237 56.7193 350.222 56.72 350.219 56.72V54.72C349.356 54.72 348.771 55.2591 348.444 55.9128L350.233 56.8072ZM349.219 55.72V65H351.219V55.72H349.219ZM404.659 65V55.72H402.659V65H404.659ZM403.659 56.72C403.706 56.72 403.725 56.7275 403.727 56.7285C403.729 56.7293 403.731 56.7303 403.734 56.732C403.737 56.7339 403.743 56.7382 403.752 56.7471L405.166 55.3329C404.753 54.9198 404.226 54.72 403.659 54.72V56.72ZM403.752 56.7471C403.791 56.7866 403.887 56.9161 403.969 57.2425L405.909 56.7575C405.777 56.2306 405.553 55.7201 405.166 55.3329L403.752 56.7471ZM403.969 57.2425C404.059 57.6058 404.133 58.0591 404.183 58.6105L406.175 58.4295C406.118 57.8076 406.031 57.2476 405.909 56.7575L403.969 57.2425ZM404.184 58.6195C404.233 59.1118 404.259 59.6908 404.259 60.36H406.259C406.259 59.6425 406.231 58.9948 406.174 58.4205L404.184 58.6195ZM404.259 60.36C404.259 61.0282 404.233 61.6376 404.183 62.1895L406.175 62.3705C406.231 61.7491 406.259 61.0784 406.259 60.36H404.259ZM404.183 62.1895C404.133 62.7409 404.059 63.1942 403.969 63.5575L405.909 64.0425C406.031 63.5524 406.118 62.9924 406.175 62.3705L404.183 62.1895ZM403.977 63.5253C403.904 63.7809 403.815 63.9094 403.752 63.9729L405.166 65.3871C405.529 65.0239 405.76 64.5657 405.9 64.0747L403.977 63.5253ZM403.752 63.9729C403.743 63.9818 403.737 63.9861 403.734 63.988C403.731 63.9897 403.729 63.9907 403.727 63.9915C403.725 63.9925 403.706 64 403.659 64V66C404.226 66 404.753 65.8002 405.166 65.3871L403.752 63.9729ZM403.656 65H402.656V66H403.656V65ZM403.656 55.72V54.72H402.656V55.72H403.656ZM418.296 55.72L418.936 56.4882L421.058 54.72H418.296V55.72ZM412.056 60.92H411.056V63.055L412.696 61.6882L412.056 60.92ZM412.056 24.84V23.84H411.056V24.84H412.056ZM422.776 24.84H423.776V23.84H422.776V24.84ZM422.776 65V66H423.776V65H422.776ZM403.656 65V66H404.656V65H403.656ZM402.936 64.68L403.736 64.08L403.694 64.0231L403.643 63.9729L402.936 64.68ZM402.456 63.8L403.418 63.5253L403.407 63.4866L403.393 63.4489L402.456 63.8ZM402.216 57.96L403.203 58.1244L403.205 58.1121L402.216 57.96ZM402.776 56.36L403.59 56.9412L403.636 56.8774L403.671 56.8072L402.776 56.36ZM403.656 55.72H404.656V54.72H403.656V55.72ZM412.056 82.04H411.056V83.04H412.056V82.04ZM412.056 72.92V71.92H411.056V72.92H412.056ZM422.776 72.92H423.776V71.92H422.776V72.92ZM422.776 82.04V83.04H423.776V82.04H422.776ZM404.656 65V55.72H402.656V65H404.656ZM403.656 56.72H418.296V54.72H403.656V56.72ZM417.656 54.9518L411.416 60.1518L412.696 61.6882L418.936 56.4882L417.656 54.9518ZM413.056 60.92V24.84H411.056V60.92H413.056ZM412.056 25.84H422.776V23.84H412.056V25.84ZM421.776 24.84V65H423.776V24.84H421.776ZM422.776 64H403.656V66H422.776V64ZM403.656 64C403.606 64 403.61 63.9917 403.642 64.0062C403.659 64.0134 403.677 64.0243 403.696 64.0391C403.714 64.0539 403.728 64.0687 403.736 64.08L402.136 65.28C402.524 65.7968 403.092 66 403.656 66V64ZM403.643 63.9729C403.58 63.9094 403.491 63.7809 403.418 63.5253L401.495 64.0747C401.635 64.5657 401.866 65.0239 402.229 65.3871L403.643 63.9729ZM403.393 63.4489C403.272 63.1263 403.18 62.7115 403.132 62.1895L401.14 62.3705C401.2 63.0218 401.321 63.6203 401.52 64.1511L403.393 63.4489ZM403.132 62.1895C403.082 61.6376 403.056 61.0282 403.056 60.36H401.056C401.056 61.0784 401.084 61.7491 401.14 62.3705L403.132 62.1895ZM403.056 60.36C403.056 59.4316 403.108 58.691 403.203 58.1244L401.23 57.7956C401.111 58.509 401.056 59.3684 401.056 60.36H403.056ZM403.205 58.1121C403.299 57.499 403.45 57.1375 403.59 56.9412L401.963 55.7788C401.569 56.3292 401.347 57.0343 401.228 57.8079L403.205 58.1121ZM403.671 56.8072C403.727 56.6937 403.762 56.6762 403.744 56.6887C403.735 56.6958 403.718 56.7054 403.696 56.7124C403.674 56.7193 403.659 56.72 403.656 56.72V54.72C402.794 54.72 402.209 55.2591 401.882 55.9128L403.671 56.8072ZM402.656 55.72V65H404.656V55.72H402.656ZM413.056 82.04V72.92H411.056V82.04H413.056ZM412.056 73.92H422.776V71.92H412.056V73.92ZM421.776 72.92V82.04H423.776V72.92H421.776ZM422.776 81.04H412.056V83.04H422.776V81.04Z" fill="#188F58" fill-opacity="0.32" mask="url(#path-1-outside-1_30_12)"/>
</svg>
