<svg width="294" height="89" viewBox="0 0 294 89" fill="none" xmlns="http://www.w3.org/2000/svg">
<mask id="path-1-outside-1_38_35" maskUnits="userSpaceOnUse" x="-1" y="-1" width="296" height="91" fill="black">
<rect fill="white" x="-1" y="-1" width="296" height="91"/>
<path d="M26.6059 69C20.8993 69 16.0726 68.2533 12.1259 66.76C8.2326 65.2667 5.2726 63.0533 3.24594 60.12C1.2726 57.1867 0.285938 53.5333 0.285938 49.16C0.285938 47.88 0.365938 46.5467 0.525938 45.16C0.685938 43.72 0.872604 42.36 1.08594 41.08C1.3526 39.7467 1.5926 38.5733 1.80594 37.56C2.01927 36.5467 2.17927 35.8 2.28594 35.32L12.6859 37.32C12.5259 38.1733 12.3126 39.2667 12.0459 40.6C11.7793 41.9333 11.5393 43.3467 11.3259 44.84C11.1126 46.28 11.0059 47.6667 11.0059 49C11.0059 51.08 11.3259 52.8133 11.9659 54.2C12.6593 55.5867 13.6726 56.7067 15.0059 57.56C16.3393 58.36 18.0193 58.92 20.0459 59.24C22.0726 59.56 24.4459 59.72 27.1659 59.72H54.7659L48.5259 64.92V12.44H59.2459V69H26.6059ZM24.9259 38.84C23.9126 37.6133 23.1393 36.44 22.6059 35.32C22.0726 34.2 21.8059 33 21.8059 31.72C21.8059 29.9067 22.2859 28.28 23.2459 26.84C24.2059 25.3467 25.4593 24.2 27.0059 23.4C28.5526 22.5467 30.2593 22.12 32.1259 22.12C33.1393 22.12 34.1793 22.2533 35.2459 22.52C36.3126 22.7867 37.2193 23.1867 37.9659 23.72L35.2459 28.6C34.7659 28.3333 34.2859 28.1733 33.8059 28.12C33.3793 28.0133 32.9259 27.96 32.4459 27.96C31.1659 27.96 30.1793 28.3067 29.4859 29C28.7926 29.64 28.4459 30.52 28.4459 31.64C28.4459 32.28 28.5793 32.8933 28.8459 33.48C29.1126 34.0667 29.5126 34.7067 30.0459 35.4L24.9259 38.84ZM20.0459 39.48V33.64H39.4059V39.48H20.0459ZM71.9422 69V12.44H82.5822V69H71.9422ZM127.1 69V28.84H137.82V64.92L131.58 59.72H147.82V69H127.1ZM110.3 46.12V36.76H127.1V46.12H110.3ZM92.8603 88.84C92.167 88.84 91.4203 88.8133 90.6203 88.76C89.8203 88.7067 88.9936 88.6267 88.1403 88.52L88.5403 79.4C89.3936 79.4533 90.1936 79.5067 90.9403 79.56C91.7403 79.6133 92.327 79.64 92.7003 79.64C94.7803 79.64 96.4336 78.8133 97.6603 77.16C98.9403 75.5067 99.5803 73.1867 99.5803 70.2V28.84H110.3V70.2C110.3 73.8267 109.554 77.0533 108.06 79.88C106.62 82.7067 104.594 84.8933 101.98 86.44C99.367 88.04 96.327 88.84 92.8603 88.84ZM147.82 69V59.72C148.087 59.72 148.327 59.8267 148.54 60.04C148.754 60.2533 148.914 60.5733 149.02 61C149.127 61.4267 149.207 61.9333 149.26 62.52C149.367 63.0533 149.42 63.6667 149.42 64.36C149.42 65.0533 149.367 65.6933 149.26 66.28C149.207 66.8667 149.127 67.3733 149.02 67.8C148.914 68.1733 148.754 68.4667 148.54 68.68C148.327 68.8933 148.087 69 147.82 69ZM120.06 21.48V12.36H130.38V21.48H120.06ZM134.62 21.48V12.36H144.94V21.48H134.62ZM194.829 69C192.642 69 190.456 68.6 188.269 67.8C186.136 66.9467 184.162 65.6933 182.349 64.04L188.909 57.24C189.976 58.0933 190.962 58.7333 191.869 59.16C192.829 59.5333 193.816 59.72 194.829 59.72H209.789L204.269 64.76V47C204.269 46.1467 204.162 44.8667 203.949 43.16C203.789 41.4 203.522 39.4267 203.149 37.24C202.829 35 202.429 32.7333 201.949 30.44L212.509 28.84C212.882 30.76 213.229 32.92 213.549 35.32C213.922 37.6667 214.242 39.9067 214.509 42.04C214.776 44.12 214.909 45.7733 214.909 47V69H194.829ZM147.789 69V59.72H159.469L157.069 62.2V37H167.789V69H147.789ZM167.789 69V59.72H174.269C175.976 59.72 177.282 59.48 178.189 59C179.096 58.4667 179.709 57.4267 180.029 55.88C180.402 54.28 180.589 51.9067 180.589 48.76V33H191.309V48.76C191.309 53.5067 190.696 57.3733 189.469 60.36C188.296 63.3467 186.456 65.5333 183.949 66.92C181.442 68.3067 178.216 69 174.269 69H167.789ZM147.789 69C147.469 69 147.229 68.8933 147.069 68.68C146.856 68.4667 146.696 68.1733 146.589 67.8C146.429 67.3733 146.322 66.8667 146.269 66.28C146.216 65.6933 146.189 65.0533 146.189 64.36C146.189 63.4 146.242 62.6 146.349 61.96C146.456 61.2667 146.642 60.7333 146.909 60.36C147.122 59.9333 147.416 59.72 147.789 59.72V69ZM181.389 9.24V1.24H190.669V9.24H181.389ZM173.629 21.48V12.36H183.949V21.48H173.629ZM188.189 21.48V12.36H198.509V21.48H188.189ZM223.723 69V59.72H264.363L259.243 65V12.44H269.963V69H223.723ZM234.843 59.72V23.64H245.483V59.72H234.843ZM235.403 17C234.39 15.7733 233.617 14.6 233.083 13.48C232.55 12.36 232.283 11.16 232.283 9.88C232.283 8.06666 232.763 6.44 233.723 5C234.683 3.50666 235.937 2.35999 237.483 1.56C239.03 0.706664 240.737 0.279998 242.603 0.279998C243.617 0.279998 244.657 0.413331 245.723 0.679997C246.79 0.946664 247.697 1.34666 248.443 1.88L245.723 6.76C245.243 6.49333 244.763 6.33333 244.283 6.28C243.857 6.17333 243.403 6.12 242.923 6.12C241.643 6.12 240.657 6.46666 239.963 7.16C239.27 7.8 238.923 8.68 238.923 9.8C238.923 10.44 239.057 11.0533 239.323 11.64C239.59 12.2267 239.99 12.8667 240.523 13.56L235.403 17ZM230.523 17.64V11.8H249.883V17.64H230.523ZM283.036 69V12.44H293.676V69H283.036Z"/>
</mask>
<path d="M12.1259 66.76L11.7678 67.6937L11.772 67.6953L12.1259 66.76ZM3.24594 60.12L2.41615 60.6782L2.42321 60.6884L3.24594 60.12ZM0.525938 45.16L1.51936 45.2746L1.51982 45.2704L0.525938 45.16ZM1.08594 41.08L0.105357 40.8839L0.102195 40.8997L0.0995436 40.9156L1.08594 41.08ZM1.80594 37.56L2.78449 37.766L2.78449 37.766L1.80594 37.56ZM2.28594 35.32L2.47479 34.338L1.52055 34.1545L1.30975 35.1031L2.28594 35.32ZM12.6859 37.32L13.6688 37.5043L13.8522 36.526L12.8748 36.338L12.6859 37.32ZM11.3259 44.84L12.3152 44.9865L12.3159 44.9814L11.3259 44.84ZM11.9659 54.2L11.058 54.6191L11.0645 54.6332L11.0715 54.6472L11.9659 54.2ZM15.0059 57.56L14.4669 58.4023L14.4791 58.4101L14.4914 58.4175L15.0059 57.56ZM20.0459 59.24L20.2019 58.2522L20.2019 58.2522L20.0459 59.24ZM54.7659 59.72L55.4061 60.4882L57.528 58.72H54.7659V59.72ZM48.5259 64.92H47.5259V67.055L49.1661 65.6882L48.5259 64.92ZM48.5259 12.44V11.44H47.5259V12.44H48.5259ZM59.2459 12.44H60.2459V11.44H59.2459V12.44ZM59.2459 69V70H60.2459V69H59.2459ZM24.9259 38.84L24.155 39.4769L24.7318 40.1752L25.4836 39.67L24.9259 38.84ZM22.6059 35.32L21.7031 35.7499L21.7031 35.7499L22.6059 35.32ZM23.2459 26.84L24.078 27.3947L24.0826 27.3878L24.0871 27.3808L23.2459 26.84ZM27.0059 23.4L27.4654 24.2882L27.4773 24.2821L27.489 24.2756L27.0059 23.4ZM35.2459 22.52L35.4885 21.5499L35.4885 21.5499L35.2459 22.52ZM37.9659 23.72L38.8394 24.2069L39.2747 23.4259L38.5472 22.9063L37.9659 23.72ZM35.2459 28.6L34.7603 29.4742L35.6332 29.9591L36.1194 29.0869L35.2459 28.6ZM33.8059 28.12L33.5634 29.0901L33.6287 29.1065L33.6955 29.1139L33.8059 28.12ZM29.4859 29L30.1642 29.7348L30.1789 29.7212L30.193 29.7071L29.4859 29ZM28.8459 33.48L29.7563 33.0662L29.7563 33.0662L28.8459 33.48ZM30.0459 35.4L30.6036 36.23L31.4887 35.6354L30.8386 34.7903L30.0459 35.4ZM20.0459 39.48H19.0459V40.48H20.0459V39.48ZM20.0459 33.64V32.64H19.0459V33.64H20.0459ZM39.4059 33.64H40.4059V32.64H39.4059V33.64ZM39.4059 39.48V40.48H40.4059V39.48H39.4059ZM26.6059 68C20.9803 68 16.2813 67.2631 12.4798 65.8247L11.772 67.6953C15.8639 69.2436 20.8183 70 26.6059 70V68ZM12.4841 65.8263C8.74614 64.3926 5.96238 62.2925 4.06867 59.5516L2.42321 60.6884C4.58283 63.8142 7.71907 66.1407 11.7678 67.6937L12.4841 65.8263ZM4.07566 59.5618C2.23713 56.8289 1.28594 53.3819 1.28594 49.16H-0.714062C-0.714062 53.6848 0.308082 57.5445 2.41622 60.6782L4.07566 59.5618ZM1.28594 49.16C1.28594 47.9216 1.36335 46.6266 1.51935 45.2746L-0.467471 45.0454C-0.631472 46.4667 -0.714062 47.8384 -0.714062 49.16H1.28594ZM1.51982 45.2704C1.67804 43.8464 1.8623 42.5046 2.07233 41.2444L0.0995436 40.9156C-0.117096 42.2154 -0.306167 43.5936 -0.467946 45.0496L1.51982 45.2704ZM2.06652 41.2761C2.33272 39.9451 2.57202 38.7752 2.78449 37.766L0.827388 37.354C0.613186 38.3714 0.372493 39.5482 0.105357 40.8839L2.06652 41.2761ZM2.78449 37.766C2.9977 36.7533 3.15674 36.0112 3.26212 35.5369L1.30975 35.1031C1.2018 35.5888 1.04084 36.3401 0.827388 37.354L2.78449 37.766ZM2.09709 36.302L12.4971 38.302L12.8748 36.338L2.47479 34.338L2.09709 36.302ZM11.7031 37.1357C11.5441 37.9835 11.3316 39.0726 11.0654 40.4039L13.0265 40.7961C13.2936 39.4608 13.5078 38.3631 13.6688 37.5043L11.7031 37.1357ZM11.0654 40.4039C10.7947 41.7572 10.5517 43.1889 10.336 44.6986L12.3159 44.9814C12.5269 43.5045 12.7638 42.1095 13.0265 40.7961L11.0654 40.4039ZM10.3367 44.6935C10.1169 46.1776 10.0059 47.6134 10.0059 49H12.0059C12.0059 47.7199 12.1083 46.3824 12.3151 44.9865L10.3367 44.6935ZM10.0059 49C10.0059 51.1753 10.3396 53.0625 11.058 54.6191L12.8739 53.7809C12.3123 52.5642 12.0059 50.9847 12.0059 49H10.0059ZM11.0715 54.6472C11.8473 56.1987 12.985 57.4539 14.4669 58.4023L15.545 56.7177C14.3602 55.9595 13.4713 54.9746 12.8604 53.7528L11.0715 54.6472ZM14.4914 58.4175C15.9638 59.3009 17.7749 59.8938 19.89 60.2278L20.2019 58.2522C18.2636 57.9462 16.7147 57.4191 15.5204 56.7025L14.4914 58.4175ZM19.89 60.2278C21.9817 60.558 24.4094 60.72 27.1659 60.72V58.72C24.4824 58.72 22.1635 58.562 20.2019 58.2522L19.89 60.2278ZM27.1659 60.72H54.7659V58.72H27.1659V60.72ZM54.1258 58.9518L47.8858 64.1518L49.1661 65.6882L55.4061 60.4882L54.1258 58.9518ZM49.5259 64.92V12.44H47.5259V64.92H49.5259ZM48.5259 13.44H59.2459V11.44H48.5259V13.44ZM58.2459 12.44V69H60.2459V12.44H58.2459ZM59.2459 68H26.6059V70H59.2459V68ZM25.6969 38.2031C24.722 37.0229 23.9985 35.9185 23.5088 34.8901L21.7031 35.7499C22.28 36.9615 23.1033 38.2037 24.155 39.4769L25.6969 38.2031ZM23.5088 34.8901C23.0415 33.9087 22.8059 32.8561 22.8059 31.72H20.8059C20.8059 33.1439 21.1037 34.4913 21.7031 35.7499L23.5088 34.8901ZM22.8059 31.72C22.8059 30.0941 23.2329 28.6623 24.078 27.3947L22.4139 26.2853C21.339 27.8977 20.8059 29.7192 20.8059 31.72H22.8059ZM24.0871 27.3808C24.9544 26.0316 26.0773 25.0062 27.4654 24.2882L26.5465 22.5118C24.8412 23.3938 23.4575 24.6617 22.4048 26.2992L24.0871 27.3808ZM27.489 24.2756C28.8793 23.5085 30.4183 23.12 32.1259 23.12V21.12C30.1002 21.12 28.2259 21.5848 26.5229 22.5244L27.489 24.2756ZM32.1259 23.12C33.0509 23.12 34.0094 23.2416 35.0034 23.4901L35.4885 21.5499C34.3492 21.265 33.2276 21.12 32.1259 21.12V23.12ZM35.0034 23.4901C35.9719 23.7323 36.7582 24.0862 37.3847 24.5337L38.5472 22.9063C37.6804 22.2871 36.6533 21.8411 35.4885 21.5499L35.0034 23.4901ZM37.0925 23.2331L34.3725 28.1131L36.1194 29.0869L38.8394 24.2069L37.0925 23.2331ZM35.7316 27.7258C35.1515 27.4036 34.545 27.196 33.9164 27.1261L33.6955 29.1139C34.0269 29.1507 34.3804 29.2631 34.7603 29.4742L35.7316 27.7258ZM34.0485 27.1499C33.5356 27.0216 33.0003 26.96 32.4459 26.96V28.96C32.8516 28.96 33.2229 29.005 33.5634 29.0901L34.0485 27.1499ZM32.4459 26.96C30.985 26.96 29.7119 27.3598 28.7788 28.2929L30.193 29.7071C30.6466 29.2535 31.3468 28.96 32.4459 28.96V26.96ZM28.8077 28.2652C27.8709 29.1299 27.4459 30.2977 27.4459 31.64H29.4459C29.4459 30.7423 29.7143 30.1501 30.1642 29.7348L28.8077 28.2652ZM27.4459 31.64C27.4459 32.4238 27.6103 33.1781 27.9356 33.8938L29.7563 33.0662C29.5483 32.6086 29.4459 32.1362 29.4459 31.64H27.4459ZM27.9356 33.8938C28.2428 34.5697 28.6887 35.2757 29.2533 36.0097L30.8386 34.7903C30.3365 34.1376 29.9824 33.5636 29.7563 33.0662L27.9356 33.8938ZM29.4883 34.5699L24.3682 38.01L25.4836 39.67L30.6036 36.23L29.4883 34.5699ZM21.0459 39.48V33.64H19.0459V39.48H21.0459ZM20.0459 34.64H39.4059V32.64H20.0459V34.64ZM38.4059 33.64V39.48H40.4059V33.64H38.4059ZM39.4059 38.48H20.0459V40.48H39.4059V38.48ZM71.9422 69H70.9422V70H71.9422V69ZM71.9422 12.44V11.44H70.9422V12.44H71.9422ZM82.5822 12.44H83.5822V11.44H82.5822V12.44ZM82.5822 69V70H83.5822V69H82.5822ZM72.9422 69V12.44H70.9422V69H72.9422ZM71.9422 13.44H82.5822V11.44H71.9422V13.44ZM81.5822 12.44V69H83.5822V12.44H81.5822ZM82.5822 68H71.9422V70H82.5822V68ZM127.1 69H126.1V70H127.1V69ZM127.1 28.84V27.84H126.1V28.84H127.1ZM137.82 28.84H138.82V27.84H137.82V28.84ZM137.82 64.92L137.18 65.6882L138.82 67.055V64.92H137.82ZM131.58 59.72V58.72H128.818L130.94 60.4882L131.58 59.72ZM147.82 59.72H148.82V58.72H147.82V59.72ZM147.82 69V70H148.82V69H147.82ZM110.3 46.12H109.3V47.12H110.3V46.12ZM110.3 36.76V35.76H109.3V36.76H110.3ZM127.1 36.76H128.1V35.76H127.1V36.76ZM127.1 46.12V47.12H128.1V46.12H127.1ZM90.6203 88.76L90.6868 87.7622L90.6203 88.76ZM88.1403 88.52L87.1413 88.4762L87.1008 89.3979L88.0163 89.5123L88.1403 88.52ZM88.5403 79.4L88.6027 78.4019L87.5859 78.3384L87.5413 79.3562L88.5403 79.4ZM90.9403 79.56L90.8691 80.5575L90.8738 80.5578L90.9403 79.56ZM97.6603 77.16L96.8696 76.5478L96.8633 76.5559L96.8572 76.5642L97.6603 77.16ZM99.5803 28.84V27.84H98.5803V28.84H99.5803ZM110.3 28.84H111.3V27.84H110.3V28.84ZM108.06 79.88L107.176 79.4129L107.173 79.4195L107.169 79.4261L108.06 79.88ZM101.98 86.44L101.471 85.5794L101.465 85.5832L101.458 85.5871L101.98 86.44ZM147.82 69H146.82V70H147.82V69ZM147.82 59.72V58.72H146.82V59.72H147.82ZM149.02 61L148.05 61.2425L148.05 61.2425L149.02 61ZM149.26 62.52L148.264 62.6105L148.269 62.6637L148.28 62.7161L149.26 62.52ZM149.26 66.28L148.276 66.1011L148.268 66.145L148.264 66.1895L149.26 66.28ZM149.02 67.8L149.982 68.0747L149.986 68.0587L149.99 68.0425L149.02 67.8ZM120.06 21.48H119.06V22.48H120.06V21.48ZM120.06 12.36V11.36H119.06V12.36H120.06ZM130.38 12.36H131.38V11.36H130.38V12.36ZM130.38 21.48V22.48H131.38V21.48H130.38ZM134.62 21.48H133.62V22.48H134.62V21.48ZM134.62 12.36V11.36H133.62V12.36H134.62ZM144.94 12.36H145.94V11.36H144.94V12.36ZM144.94 21.48V22.48H145.94V21.48H144.94ZM128.1 69V28.84H126.1V69H128.1ZM127.1 29.84H137.82V27.84H127.1V29.84ZM136.82 28.84V64.92H138.82V28.84H136.82ZM138.46 64.1518L132.22 58.9518L130.94 60.4882L137.18 65.6882L138.46 64.1518ZM131.58 60.72H147.82V58.72H131.58V60.72ZM146.82 59.72V69H148.82V59.72H146.82ZM147.82 68H127.1V70H147.82V68ZM111.3 46.12V36.76H109.3V46.12H111.3ZM110.3 37.76H127.1V35.76H110.3V37.76ZM126.1 36.76V46.12H128.1V36.76H126.1ZM127.1 45.12H110.3V47.12H127.1V45.12ZM92.8603 87.84C92.1923 87.84 91.468 87.8143 90.6868 87.7622L90.5538 89.7578C91.3726 89.8124 92.1417 89.84 92.8603 89.84V87.84ZM90.6868 87.7622C89.9074 87.7103 89.0999 87.6322 88.2643 87.5277L88.0163 89.5123C88.8874 89.6212 89.7332 89.7031 90.5538 89.7578L90.6868 87.7622ZM89.1394 88.5638L89.5394 79.4438L87.5413 79.3562L87.1413 88.4762L89.1394 88.5638ZM88.4779 80.3981C89.3287 80.4512 90.1257 80.5044 90.8691 80.5575L91.0116 78.5625C90.2616 78.509 89.4586 78.4554 88.6027 78.4019L88.4779 80.3981ZM90.8738 80.5578C91.6768 80.6113 92.2915 80.64 92.7003 80.64V78.64C92.3624 78.64 91.8038 78.6153 91.0068 78.5622L90.8738 80.5578ZM92.7003 80.64C95.093 80.64 97.0458 79.6665 98.4634 77.7558L96.8572 76.5642C95.8215 77.9601 94.4676 78.64 92.7003 78.64V80.64ZM98.451 77.7722C99.9141 75.8824 100.58 73.316 100.58 70.2H98.5803C98.5803 73.0574 97.9666 75.1309 96.8696 76.5478L98.451 77.7722ZM100.58 70.2V28.84H98.5803V70.2H100.58ZM99.5803 29.84H110.3V27.84H99.5803V29.84ZM109.3 28.84V70.2H111.3V28.84H109.3ZM109.3 70.2C109.3 73.686 108.584 76.7485 107.176 79.4129L108.945 80.3471C110.524 77.3581 111.3 73.9674 111.3 70.2H109.3ZM107.169 79.4261C105.811 82.0917 103.914 84.1338 101.471 85.5794L102.49 87.3006C105.274 85.6529 107.429 83.3217 108.951 80.3339L107.169 79.4261ZM101.458 85.5871C99.0219 87.0788 96.1675 87.84 92.8603 87.84V89.84C96.4865 89.84 99.7121 89.0012 102.502 87.2929L101.458 85.5871ZM148.82 69V59.72H146.82V69H148.82ZM147.82 60.72C147.82 60.72 147.816 60.7199 147.809 60.7185C147.803 60.7172 147.797 60.7153 147.794 60.7138C147.791 60.7124 147.793 60.7126 147.799 60.717C147.805 60.7214 147.817 60.7306 147.833 60.7471L149.247 59.3329C148.873 58.9589 148.388 58.72 147.82 58.72V60.72ZM147.833 60.7471C147.873 60.7866 147.969 60.9161 148.05 61.2425L149.99 60.7575C149.859 60.2306 149.635 59.7201 149.247 59.3329L147.833 60.7471ZM148.05 61.2425C148.141 61.6058 148.214 62.0591 148.264 62.6105L150.256 62.4295C150.2 61.8076 150.113 61.2476 149.99 60.7575L148.05 61.2425ZM148.28 62.7161C148.371 63.1701 148.42 63.7155 148.42 64.36H150.42C150.42 63.6178 150.363 62.9366 150.241 62.3239L148.28 62.7161ZM148.42 64.36C148.42 65.0028 148.371 65.5821 148.276 66.1011L150.244 66.4589C150.363 65.8046 150.42 65.1039 150.42 64.36H148.42ZM148.264 66.1895C148.214 66.7409 148.141 67.1942 148.05 67.5575L149.99 68.0425C150.113 67.5524 150.2 66.9924 150.256 66.3705L148.264 66.1895ZM148.059 67.5253C147.986 67.7809 147.897 67.9094 147.833 67.9729L149.247 69.3871C149.611 69.0239 149.842 68.5657 149.982 68.0747L148.059 67.5253ZM147.833 67.9729C147.817 67.9894 147.805 67.9986 147.799 68.003C147.793 68.0074 147.791 68.0076 147.794 68.0062C147.797 68.0047 147.803 68.0028 147.809 68.0015C147.816 68.0001 147.82 68 147.82 68V70C148.388 70 148.873 69.7611 149.247 69.3871L147.833 67.9729ZM121.06 21.48V12.36H119.06V21.48H121.06ZM120.06 13.36H130.38V11.36H120.06V13.36ZM129.38 12.36V21.48H131.38V12.36H129.38ZM130.38 20.48H120.06V22.48H130.38V20.48ZM135.62 21.48V12.36H133.62V21.48H135.62ZM134.62 13.36H144.94V11.36H134.62V13.36ZM143.94 12.36V21.48H145.94V12.36H143.94ZM144.94 20.48H134.62V22.48H144.94V20.48ZM188.269 67.8L187.898 68.7285L187.912 68.734L187.925 68.7391L188.269 67.8ZM182.349 64.04L181.629 63.3457L180.915 64.086L181.675 64.779L182.349 64.04ZM188.909 57.24L189.534 56.4591L188.822 55.8898L188.189 56.5457L188.909 57.24ZM191.869 59.16L191.443 60.0648L191.474 60.0795L191.507 60.092L191.869 59.16ZM209.789 59.72L210.463 60.4585L212.367 58.72H209.789V59.72ZM204.269 64.76H203.269V67.0272L204.943 65.4985L204.269 64.76ZM203.949 43.16L202.953 43.2505L202.955 43.2673L202.957 43.284L203.949 43.16ZM203.149 37.24L202.159 37.3814L202.161 37.3949L202.163 37.4083L203.149 37.24ZM201.949 30.44L201.799 29.4513L200.754 29.6097L200.97 30.6449L201.949 30.44ZM212.509 28.84L213.491 28.6491L213.308 27.7076L212.359 27.8513L212.509 28.84ZM213.549 35.32L212.558 35.4522L212.56 35.4647L212.561 35.4771L213.549 35.32ZM214.509 42.04L213.517 42.164L213.517 42.1672L214.509 42.04ZM214.909 69V70H215.909V69H214.909ZM147.789 69H146.789V70H147.789V69ZM147.789 59.72V58.72H146.789V59.72H147.789ZM159.469 59.72L160.188 60.4154L161.828 58.72H159.469V59.72ZM157.069 62.2H156.069V64.6713L157.788 62.8954L157.069 62.2ZM157.069 37V36H156.069V37H157.069ZM167.789 37H168.789V36H167.789V37ZM167.789 69V70H168.789V69H167.789ZM167.789 69H166.789V70H167.789V69ZM167.789 59.72V58.72H166.789V59.72H167.789ZM178.189 59L178.657 59.8838L178.677 59.8733L178.696 59.8619L178.189 59ZM180.029 55.88L179.055 55.6528L179.052 55.665L179.05 55.6774L180.029 55.88ZM180.589 33V32H179.589V33H180.589ZM191.309 33H192.309V32H191.309V33ZM189.469 60.36L188.544 59.9801L188.541 59.9872L188.538 59.9943L189.469 60.36ZM147.789 69V70H148.789V69H147.789ZM147.069 68.68L147.869 68.08L147.826 68.0231L147.776 67.9729L147.069 68.68ZM146.589 67.8L147.551 67.5253L147.54 67.4866L147.525 67.4489L146.589 67.8ZM146.349 61.96L147.336 62.1244L147.337 62.1121L146.349 61.96ZM146.909 60.36L147.723 60.9412L147.768 60.8774L147.803 60.8072L146.909 60.36ZM147.789 59.72H148.789V58.72H147.789V59.72ZM181.389 9.24H180.389V10.24H181.389V9.24ZM181.389 1.24V0.239995H180.389V1.24H181.389ZM190.669 1.24H191.669V0.239995H190.669V1.24ZM190.669 9.24V10.24H191.669V9.24H190.669ZM173.629 21.48H172.629V22.48H173.629V21.48ZM173.629 12.36V11.36H172.629V12.36H173.629ZM183.949 12.36H184.949V11.36H183.949V12.36ZM183.949 21.48V22.48H184.949V21.48H183.949ZM188.189 21.48H187.189V22.48H188.189V21.48ZM188.189 12.36V11.36H187.189V12.36H188.189ZM198.509 12.36H199.509V11.36H198.509V12.36ZM198.509 21.48V22.48H199.509V21.48H198.509ZM194.829 68C192.767 68 190.696 67.6232 188.613 66.8609L187.925 68.7391C190.215 69.5768 192.518 70 194.829 70V68ZM188.64 66.8715C186.626 66.0657 184.754 64.8791 183.023 63.301L181.675 64.779C183.571 66.5075 185.646 67.8277 187.898 68.7285L188.64 66.8715ZM183.069 64.7343L189.629 57.9343L188.189 56.5457L181.629 63.3457L183.069 64.7343ZM188.284 58.0209C189.392 58.9068 190.445 59.5952 191.443 60.0648L192.295 58.2552C191.479 57.8715 190.56 57.2799 189.534 56.4591L188.284 58.0209ZM191.507 60.092C192.58 60.5095 193.69 60.72 194.829 60.72V58.72C193.942 58.72 193.078 58.5571 192.232 58.228L191.507 60.092ZM194.829 60.72H209.789V58.72H194.829V60.72ZM209.115 58.9815L203.595 64.0215L204.943 65.4985L210.463 60.4585L209.115 58.9815ZM205.269 64.76V47H203.269V64.76H205.269ZM205.269 47C205.269 46.0819 205.156 44.7513 204.941 43.036L202.957 43.284C203.169 44.982 203.269 46.2114 203.269 47H205.269ZM204.945 43.0695C204.782 41.2779 204.511 39.278 204.135 37.0717L202.163 37.4083C202.533 39.5754 202.796 41.5221 202.953 43.2505L204.945 43.0695ZM204.139 37.0986C203.816 34.8366 203.412 32.5488 202.928 30.2351L200.97 30.6449C201.446 32.9179 201.842 35.1634 202.159 37.3814L204.139 37.0986ZM202.099 31.4287L212.659 29.8287L212.359 27.8513L201.799 29.4513L202.099 31.4287ZM211.527 29.0309C211.896 30.9275 212.24 33.0674 212.558 35.4522L214.54 35.1878C214.218 32.7726 213.869 30.5925 213.491 28.6491L211.527 29.0309ZM212.561 35.4771C212.933 37.8139 213.252 40.0428 213.517 42.164L215.501 41.916C215.233 39.7705 214.912 37.5194 214.537 35.1629L212.561 35.4771ZM213.517 42.1672C213.782 44.23 213.909 45.8353 213.909 47H215.909C215.909 45.7114 215.77 44.01 215.501 41.9128L213.517 42.1672ZM213.909 47V69H215.909V47H213.909ZM214.909 68H194.829V70H214.909V68ZM148.789 69V59.72H146.789V69H148.789ZM147.789 60.72H159.469V58.72H147.789V60.72ZM158.75 59.0246L156.35 61.5046L157.788 62.8954L160.188 60.4154L158.75 59.0246ZM158.069 62.2V37H156.069V62.2H158.069ZM157.069 38H167.789V36H157.069V38ZM166.789 37V69H168.789V37H166.789ZM167.789 68H147.789V70H167.789V68ZM168.789 69V59.72H166.789V69H168.789ZM167.789 60.72H174.269V58.72H167.789V60.72ZM174.269 60.72C176.043 60.72 177.54 60.4749 178.657 59.8838L177.721 58.1162C177.024 58.4851 175.908 58.72 174.269 58.72V60.72ZM178.696 59.8619C179.946 59.1264 180.66 57.7667 181.008 56.0826L179.05 55.6774C178.758 57.0866 178.245 57.8069 177.682 58.1381L178.696 59.8619ZM181.003 56.1072C181.403 54.3929 181.589 51.9271 181.589 48.76H179.589C179.589 51.8863 179.402 54.1671 179.055 55.6528L181.003 56.1072ZM181.589 48.76V33H179.589V48.76H181.589ZM180.589 34H191.309V32H180.589V34ZM190.309 33V48.76H192.309V33H190.309ZM190.309 48.76C190.309 53.4322 189.704 57.1567 188.544 59.9801L190.394 60.7399C191.688 57.59 192.309 53.5811 192.309 48.76H190.309ZM188.538 59.9943C187.439 62.7921 185.743 64.7845 183.465 66.045L184.433 67.795C187.168 66.2821 189.152 63.9012 190.4 60.7257L188.538 59.9943ZM183.465 66.045C181.152 67.3245 178.107 68 174.269 68V70C178.324 70 181.733 69.2888 184.433 67.795L183.465 66.045ZM174.269 68H167.789V70H174.269V68ZM147.789 68C147.739 68 147.743 67.9917 147.775 68.0062C147.791 68.0134 147.81 68.0243 147.829 68.0391C147.847 68.0539 147.861 68.0687 147.869 68.08L146.269 69.28C146.657 69.7968 147.225 70 147.789 70V68ZM147.776 67.9729C147.713 67.9094 147.624 67.7809 147.551 67.5253L145.628 68.0747C145.768 68.5657 145.999 69.0239 146.362 69.3871L147.776 67.9729ZM147.525 67.4489C147.404 67.1263 147.312 66.7115 147.265 66.1895L145.273 66.3705C145.332 67.0218 145.454 67.6203 145.653 68.1511L147.525 67.4489ZM147.265 66.1895C147.215 65.6376 147.189 65.0282 147.189 64.36H145.189C145.189 65.0784 145.217 65.7491 145.273 66.3705L147.265 66.1895ZM147.189 64.36C147.189 63.4316 147.241 62.691 147.335 62.1244L145.363 61.7956C145.244 62.509 145.189 63.3684 145.189 64.36H147.189ZM147.337 62.1121C147.432 61.499 147.583 61.1375 147.723 60.9412L146.095 59.7788C145.702 60.3292 145.48 61.0343 145.361 61.8079L147.337 62.1121ZM147.803 60.8072C147.86 60.6937 147.894 60.6762 147.877 60.6887C147.868 60.6958 147.851 60.7054 147.829 60.7124C147.807 60.7193 147.792 60.72 147.789 60.72V58.72C146.926 58.72 146.341 59.2591 146.015 59.9128L147.803 60.8072ZM146.789 59.72V69H148.789V59.72H146.789ZM182.389 9.24V1.24H180.389V9.24H182.389ZM181.389 2.24H190.669V0.239995H181.389V2.24ZM189.669 1.24V9.24H191.669V1.24H189.669ZM190.669 8.24H181.389V10.24H190.669V8.24ZM174.629 21.48V12.36H172.629V21.48H174.629ZM173.629 13.36H183.949V11.36H173.629V13.36ZM182.949 12.36V21.48H184.949V12.36H182.949ZM183.949 20.48H173.629V22.48H183.949V20.48ZM189.189 21.48V12.36H187.189V21.48H189.189ZM188.189 13.36H198.509V11.36H188.189V13.36ZM197.509 12.36V21.48H199.509V12.36H197.509ZM198.509 20.48H188.189V22.48H198.509V20.48ZM223.723 69H222.723V70H223.723V69ZM223.723 59.72V58.72H222.723V59.72H223.723ZM264.363 59.72L265.081 60.4161L266.726 58.72H264.363V59.72ZM259.243 65H258.243V67.4677L259.961 65.6961L259.243 65ZM259.243 12.44V11.44H258.243V12.44H259.243ZM269.963 12.44H270.963V11.44H269.963V12.44ZM269.963 69V70H270.963V69H269.963ZM234.843 59.72H233.843V60.72H234.843V59.72ZM234.843 23.64V22.64H233.843V23.64H234.843ZM245.483 23.64H246.483V22.64H245.483V23.64ZM245.483 59.72V60.72H246.483V59.72H245.483ZM235.403 17L234.632 17.6369L235.209 18.3352L235.961 17.83L235.403 17ZM233.083 13.48L232.181 13.9099L232.181 13.9099L233.083 13.48ZM233.723 5L234.555 5.5547L234.56 5.54777L234.565 5.54076L233.723 5ZM237.483 1.56L237.943 2.44821L237.955 2.44205L237.967 2.43557L237.483 1.56ZM245.723 0.679997L245.966 -0.290145L245.966 -0.290145L245.723 0.679997ZM248.443 1.88L249.317 2.36685L249.752 1.58592L249.025 1.06626L248.443 1.88ZM245.723 6.76L245.238 7.63415L246.111 8.11912L246.597 7.24685L245.723 6.76ZM244.283 6.28L244.041 7.25014L244.106 7.26645L244.173 7.27388L244.283 6.28ZM239.963 7.16L240.642 7.8948L240.656 7.88124L240.671 7.8671L239.963 7.16ZM239.323 11.64L238.413 12.0538L238.413 12.0538L239.323 11.64ZM240.523 13.56L241.081 14.39L241.966 13.7954L241.316 12.9503L240.523 13.56ZM230.523 17.64H229.523V18.64H230.523V17.64ZM230.523 11.8V10.8H229.523V11.8H230.523ZM249.883 11.8H250.883V10.8H249.883V11.8ZM249.883 17.64V18.64H250.883V17.64H249.883ZM224.723 69V59.72H222.723V69H224.723ZM223.723 60.72H264.363V58.72H223.723V60.72ZM263.646 59.0239L258.526 64.3039L259.961 65.6961L265.081 60.4161L263.646 59.0239ZM260.243 65V12.44H258.243V65H260.243ZM259.243 13.44H269.963V11.44H259.243V13.44ZM268.963 12.44V69H270.963V12.44H268.963ZM269.963 68H223.723V70H269.963V68ZM235.843 59.72V23.64H233.843V59.72H235.843ZM234.843 24.64H245.483V22.64H234.843V24.64ZM244.483 23.64V59.72H246.483V23.64H244.483ZM245.483 58.72H234.843V60.72H245.483V58.72ZM236.174 16.3631C235.199 15.1829 234.476 14.0785 233.986 13.0501L232.181 13.9099C232.758 15.1215 233.581 16.3637 234.632 17.6369L236.174 16.3631ZM233.986 13.0501C233.519 12.0687 233.283 11.0161 233.283 9.88H231.283C231.283 11.3039 231.581 12.6513 232.181 13.9099L233.986 13.0501ZM233.283 9.88C233.283 8.25413 233.71 6.82234 234.555 5.5547L232.891 4.4453C231.816 6.05765 231.283 7.87919 231.283 9.88H233.283ZM234.565 5.54076C235.432 4.19164 236.555 3.16617 237.943 2.44821L237.024 0.671778C235.319 1.55382 233.935 2.82168 232.882 4.45924L234.565 5.54076ZM237.967 2.43557C239.357 1.66852 240.896 1.28 242.603 1.28V-0.720002C240.578 -0.720002 238.703 -0.255191 237 0.684418L237.967 2.43557ZM242.603 1.28C243.528 1.28 244.487 1.40163 245.481 1.65014L245.966 -0.290145C244.827 -0.574973 243.705 -0.720002 242.603 -0.720002V1.28ZM245.481 1.65014C246.449 1.89227 247.236 2.24622 247.862 2.69373L249.025 1.06626C248.158 0.447112 247.131 0.00105985 245.966 -0.290145L245.481 1.65014ZM247.57 1.39314L244.85 6.27314L246.597 7.24685L249.317 2.36685L247.57 1.39314ZM246.209 5.88584C245.629 5.56356 245.022 5.35596 244.394 5.28611L244.173 7.27388C244.504 7.3107 244.858 7.4231 245.238 7.63415L246.209 5.88584ZM244.526 5.30985C244.013 5.18164 243.478 5.12 242.923 5.12V7.12C243.329 7.12 243.7 7.16502 244.041 7.25014L244.526 5.30985ZM242.923 5.12C241.463 5.12 240.189 5.51981 239.256 6.45289L240.671 7.8671C241.124 7.41352 241.824 7.12 242.923 7.12V5.12ZM239.285 6.42519C238.348 7.28985 237.923 8.45768 237.923 9.8H239.923C239.923 8.90232 240.192 8.31014 240.642 7.8948L239.285 6.42519ZM237.923 9.8C237.923 10.5838 238.088 11.3381 238.413 12.0538L240.234 11.2262C240.026 10.7686 239.923 10.2962 239.923 9.8H237.923ZM238.413 12.0538C238.72 12.7297 239.166 13.4357 239.731 14.1697L241.316 12.9503C240.814 12.2976 240.46 11.7236 240.234 11.2262L238.413 12.0538ZM239.966 12.7299L234.846 16.1699L235.961 17.83L241.081 14.39L239.966 12.7299ZM231.523 17.64V11.8H229.523V17.64H231.523ZM230.523 12.8H249.883V10.8H230.523V12.8ZM248.883 11.8V17.64H250.883V11.8H248.883ZM249.883 16.64H230.523V18.64H249.883V16.64ZM283.036 69H282.036V70H283.036V69ZM283.036 12.44V11.44H282.036V12.44H283.036ZM293.676 12.44H294.676V11.44H293.676V12.44ZM293.676 69V70H294.676V69H293.676ZM284.036 69V12.44H282.036V69H284.036ZM283.036 13.44H293.676V11.44H283.036V13.44ZM292.676 12.44V69H294.676V12.44H292.676ZM293.676 68H283.036V70H293.676V68Z" fill="#188F58" fill-opacity="0.32" mask="url(#path-1-outside-1_38_35)"/>
</svg>
